<?xml version="1.0" encoding="utf-8" standalone="no"?>
<!DOCTYPE svg PUBLIC "-//W3C//DTD SVG 1.1//EN"
  "http://www.w3.org/Graphics/SVG/1.1/DTD/svg11.dtd">
<svg xmlns:xlink="http://www.w3.org/1999/xlink" width="413.00625pt" height="394.05625pt" viewBox="0 0 413.00625 394.05625" xmlns="http://www.w3.org/2000/svg" version="1.1">
 <metadata>
  <rdf:RDF xmlns:dc="http://purl.org/dc/elements/1.1/" xmlns:cc="http://creativecommons.org/ns#" xmlns:rdf="http://www.w3.org/1999/02/22-rdf-syntax-ns#">
   <cc:Work>
    <dc:type rdf:resource="http://purl.org/dc/dcmitype/StillImage"/>
    <dc:date>2022-05-27T10:30:37.846196</dc:date>
    <dc:format>image/svg+xml</dc:format>
    <dc:creator>
     <cc:Agent>
      <dc:title>Matplotlib v3.5.2, https://matplotlib.org/</dc:title>
     </cc:Agent>
    </dc:creator>
   </cc:Work>
  </rdf:RDF>
 </metadata>
 <defs>
  <style type="text/css">*{stroke-linejoin: round; stroke-linecap: butt}</style>
 </defs>
 <g id="figure_1">
  <g id="patch_1">
   <path d="M 0 394.05625 
L 413.00625 394.05625 
L 413.00625 0 
L 0 0 
L 0 394.05625 
z
" style="fill: none"/>
  </g>
  <g id="axes_1">
   <g id="patch_2">
    <path d="M 53.00625 360 
L 405.80625 360 
L 405.80625 7.2 
L 53.00625 7.2 
z
" style="fill: #ffffff"/>
   </g>
   <g id="matplotlib.axis_1">
    <g id="xtick_1">
     <g id="line2d_1">
      <path d="M 53.00625 360 
L 53.00625 7.2 
" clip-path="url(#p70e77fda99)" style="fill: none; stroke: #b0b0b0; stroke-width: 0.8; stroke-linecap: square"/>
     </g>
     <g id="line2d_2"/>
     <g id="text_1">
      <!-- 0 -->
      <g transform="translate(49.825 371.098437)scale(0.1 -0.1)">
       <defs>
        <path id="DejaVuSans-30" d="M 2034 4250 
Q 1547 4250 1301 3770 
Q 1056 3291 1056 2328 
Q 1056 1369 1301 889 
Q 1547 409 2034 409 
Q 2525 409 2770 889 
Q 3016 1369 3016 2328 
Q 3016 3291 2770 3770 
Q 2525 4250 2034 4250 
z
M 2034 4750 
Q 2819 4750 3233 4129 
Q 3647 3509 3647 2328 
Q 3647 1150 3233 529 
Q 2819 -91 2034 -91 
Q 1250 -91 836 529 
Q 422 1150 422 2328 
Q 422 3509 836 4129 
Q 1250 4750 2034 4750 
z
" transform="scale(0.015625)"/>
       </defs>
       <use xlink:href="#DejaVuSans-30"/>
      </g>
     </g>
    </g>
    <g id="xtick_2">
     <g id="line2d_3">
      <path d="M 98.587645 360 
L 98.587645 7.2 
" clip-path="url(#p70e77fda99)" style="fill: none; stroke: #b0b0b0; stroke-width: 0.8; stroke-linecap: square"/>
     </g>
     <g id="line2d_4"/>
     <g id="text_2">
      <!-- 50 -->
      <g transform="translate(92.225145 371.098437)scale(0.1 -0.1)">
       <defs>
        <path id="DejaVuSans-35" d="M 691 4666 
L 3169 4666 
L 3169 4134 
L 1269 4134 
L 1269 2991 
Q 1406 3038 1543 3061 
Q 1681 3084 1819 3084 
Q 2600 3084 3056 2656 
Q 3513 2228 3513 1497 
Q 3513 744 3044 326 
Q 2575 -91 1722 -91 
Q 1428 -91 1123 -41 
Q 819 9 494 109 
L 494 744 
Q 775 591 1075 516 
Q 1375 441 1709 441 
Q 2250 441 2565 725 
Q 2881 1009 2881 1497 
Q 2881 1984 2565 2268 
Q 2250 2553 1709 2553 
Q 1456 2553 1204 2497 
Q 953 2441 691 2322 
L 691 4666 
z
" transform="scale(0.015625)"/>
       </defs>
       <use xlink:href="#DejaVuSans-35"/>
       <use xlink:href="#DejaVuSans-30" x="63.623047"/>
      </g>
     </g>
    </g>
    <g id="xtick_3">
     <g id="line2d_5">
      <path d="M 144.169041 360 
L 144.169041 7.2 
" clip-path="url(#p70e77fda99)" style="fill: none; stroke: #b0b0b0; stroke-width: 0.8; stroke-linecap: square"/>
     </g>
     <g id="line2d_6"/>
     <g id="text_3">
      <!-- 100 -->
      <g transform="translate(134.625291 371.098437)scale(0.1 -0.1)">
       <defs>
        <path id="DejaVuSans-31" d="M 794 531 
L 1825 531 
L 1825 4091 
L 703 3866 
L 703 4441 
L 1819 4666 
L 2450 4666 
L 2450 531 
L 3481 531 
L 3481 0 
L 794 0 
L 794 531 
z
" transform="scale(0.015625)"/>
       </defs>
       <use xlink:href="#DejaVuSans-31"/>
       <use xlink:href="#DejaVuSans-30" x="63.623047"/>
       <use xlink:href="#DejaVuSans-30" x="127.246094"/>
      </g>
     </g>
    </g>
    <g id="xtick_4">
     <g id="line2d_7">
      <path d="M 189.750436 360 
L 189.750436 7.2 
" clip-path="url(#p70e77fda99)" style="fill: none; stroke: #b0b0b0; stroke-width: 0.8; stroke-linecap: square"/>
     </g>
     <g id="line2d_8"/>
     <g id="text_4">
      <!-- 150 -->
      <g transform="translate(180.206686 371.098437)scale(0.1 -0.1)">
       <use xlink:href="#DejaVuSans-31"/>
       <use xlink:href="#DejaVuSans-35" x="63.623047"/>
       <use xlink:href="#DejaVuSans-30" x="127.246094"/>
      </g>
     </g>
    </g>
    <g id="xtick_5">
     <g id="line2d_9">
      <path d="M 235.331831 360 
L 235.331831 7.2 
" clip-path="url(#p70e77fda99)" style="fill: none; stroke: #b0b0b0; stroke-width: 0.8; stroke-linecap: square"/>
     </g>
     <g id="line2d_10"/>
     <g id="text_5">
      <!-- 200 -->
      <g transform="translate(225.788081 371.098437)scale(0.1 -0.1)">
       <defs>
        <path id="DejaVuSans-32" d="M 1228 531 
L 3431 531 
L 3431 0 
L 469 0 
L 469 531 
Q 828 903 1448 1529 
Q 2069 2156 2228 2338 
Q 2531 2678 2651 2914 
Q 2772 3150 2772 3378 
Q 2772 3750 2511 3984 
Q 2250 4219 1831 4219 
Q 1534 4219 1204 4116 
Q 875 4013 500 3803 
L 500 4441 
Q 881 4594 1212 4672 
Q 1544 4750 1819 4750 
Q 2544 4750 2975 4387 
Q 3406 4025 3406 3419 
Q 3406 3131 3298 2873 
Q 3191 2616 2906 2266 
Q 2828 2175 2409 1742 
Q 1991 1309 1228 531 
z
" transform="scale(0.015625)"/>
       </defs>
       <use xlink:href="#DejaVuSans-32"/>
       <use xlink:href="#DejaVuSans-30" x="63.623047"/>
       <use xlink:href="#DejaVuSans-30" x="127.246094"/>
      </g>
     </g>
    </g>
    <g id="xtick_6">
     <g id="line2d_11">
      <path d="M 280.913227 360 
L 280.913227 7.2 
" clip-path="url(#p70e77fda99)" style="fill: none; stroke: #b0b0b0; stroke-width: 0.8; stroke-linecap: square"/>
     </g>
     <g id="line2d_12"/>
     <g id="text_6">
      <!-- 250 -->
      <g transform="translate(271.369477 371.098437)scale(0.1 -0.1)">
       <use xlink:href="#DejaVuSans-32"/>
       <use xlink:href="#DejaVuSans-35" x="63.623047"/>
       <use xlink:href="#DejaVuSans-30" x="127.246094"/>
      </g>
     </g>
    </g>
    <g id="xtick_7">
     <g id="line2d_13">
      <path d="M 326.494622 360 
L 326.494622 7.2 
" clip-path="url(#p70e77fda99)" style="fill: none; stroke: #b0b0b0; stroke-width: 0.8; stroke-linecap: square"/>
     </g>
     <g id="line2d_14"/>
     <g id="text_7">
      <!-- 300 -->
      <g transform="translate(316.950872 371.098437)scale(0.1 -0.1)">
       <defs>
        <path id="DejaVuSans-33" d="M 2597 2516 
Q 3050 2419 3304 2112 
Q 3559 1806 3559 1356 
Q 3559 666 3084 287 
Q 2609 -91 1734 -91 
Q 1441 -91 1130 -33 
Q 819 25 488 141 
L 488 750 
Q 750 597 1062 519 
Q 1375 441 1716 441 
Q 2309 441 2620 675 
Q 2931 909 2931 1356 
Q 2931 1769 2642 2001 
Q 2353 2234 1838 2234 
L 1294 2234 
L 1294 2753 
L 1863 2753 
Q 2328 2753 2575 2939 
Q 2822 3125 2822 3475 
Q 2822 3834 2567 4026 
Q 2313 4219 1838 4219 
Q 1578 4219 1281 4162 
Q 984 4106 628 3988 
L 628 4550 
Q 988 4650 1302 4700 
Q 1616 4750 1894 4750 
Q 2613 4750 3031 4423 
Q 3450 4097 3450 3541 
Q 3450 3153 3228 2886 
Q 3006 2619 2597 2516 
z
" transform="scale(0.015625)"/>
       </defs>
       <use xlink:href="#DejaVuSans-33"/>
       <use xlink:href="#DejaVuSans-30" x="63.623047"/>
       <use xlink:href="#DejaVuSans-30" x="127.246094"/>
      </g>
     </g>
    </g>
    <g id="xtick_8">
     <g id="line2d_15">
      <path d="M 372.076017 360 
L 372.076017 7.2 
" clip-path="url(#p70e77fda99)" style="fill: none; stroke: #b0b0b0; stroke-width: 0.8; stroke-linecap: square"/>
     </g>
     <g id="line2d_16"/>
     <g id="text_8">
      <!-- 350 -->
      <g transform="translate(362.532267 371.098437)scale(0.1 -0.1)">
       <use xlink:href="#DejaVuSans-33"/>
       <use xlink:href="#DejaVuSans-35" x="63.623047"/>
       <use xlink:href="#DejaVuSans-30" x="127.246094"/>
      </g>
     </g>
    </g>
    <g id="text_9">
     <!-- Time (s) -->
     <g transform="translate(209.077344 384.776562)scale(0.1 -0.1)">
      <defs>
       <path id="DejaVuSans-54" d="M -19 4666 
L 3928 4666 
L 3928 4134 
L 2272 4134 
L 2272 0 
L 1638 0 
L 1638 4134 
L -19 4134 
L -19 4666 
z
" transform="scale(0.015625)"/>
       <path id="DejaVuSans-69" d="M 603 3500 
L 1178 3500 
L 1178 0 
L 603 0 
L 603 3500 
z
M 603 4863 
L 1178 4863 
L 1178 4134 
L 603 4134 
L 603 4863 
z
" transform="scale(0.015625)"/>
       <path id="DejaVuSans-6d" d="M 3328 2828 
Q 3544 3216 3844 3400 
Q 4144 3584 4550 3584 
Q 5097 3584 5394 3201 
Q 5691 2819 5691 2113 
L 5691 0 
L 5113 0 
L 5113 2094 
Q 5113 2597 4934 2840 
Q 4756 3084 4391 3084 
Q 3944 3084 3684 2787 
Q 3425 2491 3425 1978 
L 3425 0 
L 2847 0 
L 2847 2094 
Q 2847 2600 2669 2842 
Q 2491 3084 2119 3084 
Q 1678 3084 1418 2786 
Q 1159 2488 1159 1978 
L 1159 0 
L 581 0 
L 581 3500 
L 1159 3500 
L 1159 2956 
Q 1356 3278 1631 3431 
Q 1906 3584 2284 3584 
Q 2666 3584 2933 3390 
Q 3200 3197 3328 2828 
z
" transform="scale(0.015625)"/>
       <path id="DejaVuSans-65" d="M 3597 1894 
L 3597 1613 
L 953 1613 
Q 991 1019 1311 708 
Q 1631 397 2203 397 
Q 2534 397 2845 478 
Q 3156 559 3463 722 
L 3463 178 
Q 3153 47 2828 -22 
Q 2503 -91 2169 -91 
Q 1331 -91 842 396 
Q 353 884 353 1716 
Q 353 2575 817 3079 
Q 1281 3584 2069 3584 
Q 2775 3584 3186 3129 
Q 3597 2675 3597 1894 
z
M 3022 2063 
Q 3016 2534 2758 2815 
Q 2500 3097 2075 3097 
Q 1594 3097 1305 2825 
Q 1016 2553 972 2059 
L 3022 2063 
z
" transform="scale(0.015625)"/>
       <path id="DejaVuSans-20" transform="scale(0.015625)"/>
       <path id="DejaVuSans-28" d="M 1984 4856 
Q 1566 4138 1362 3434 
Q 1159 2731 1159 2009 
Q 1159 1288 1364 580 
Q 1569 -128 1984 -844 
L 1484 -844 
Q 1016 -109 783 600 
Q 550 1309 550 2009 
Q 550 2706 781 3412 
Q 1013 4119 1484 4856 
L 1984 4856 
z
" transform="scale(0.015625)"/>
       <path id="DejaVuSans-73" d="M 2834 3397 
L 2834 2853 
Q 2591 2978 2328 3040 
Q 2066 3103 1784 3103 
Q 1356 3103 1142 2972 
Q 928 2841 928 2578 
Q 928 2378 1081 2264 
Q 1234 2150 1697 2047 
L 1894 2003 
Q 2506 1872 2764 1633 
Q 3022 1394 3022 966 
Q 3022 478 2636 193 
Q 2250 -91 1575 -91 
Q 1294 -91 989 -36 
Q 684 19 347 128 
L 347 722 
Q 666 556 975 473 
Q 1284 391 1588 391 
Q 1994 391 2212 530 
Q 2431 669 2431 922 
Q 2431 1156 2273 1281 
Q 2116 1406 1581 1522 
L 1381 1569 
Q 847 1681 609 1914 
Q 372 2147 372 2553 
Q 372 3047 722 3315 
Q 1072 3584 1716 3584 
Q 2034 3584 2315 3537 
Q 2597 3491 2834 3397 
z
" transform="scale(0.015625)"/>
       <path id="DejaVuSans-29" d="M 513 4856 
L 1013 4856 
Q 1481 4119 1714 3412 
Q 1947 2706 1947 2009 
Q 1947 1309 1714 600 
Q 1481 -109 1013 -844 
L 513 -844 
Q 928 -128 1133 580 
Q 1338 1288 1338 2009 
Q 1338 2731 1133 3434 
Q 928 4138 513 4856 
z
" transform="scale(0.015625)"/>
      </defs>
      <use xlink:href="#DejaVuSans-54"/>
      <use xlink:href="#DejaVuSans-69" x="57.958984"/>
      <use xlink:href="#DejaVuSans-6d" x="85.742188"/>
      <use xlink:href="#DejaVuSans-65" x="183.154297"/>
      <use xlink:href="#DejaVuSans-20" x="244.677734"/>
      <use xlink:href="#DejaVuSans-28" x="276.464844"/>
      <use xlink:href="#DejaVuSans-73" x="315.478516"/>
      <use xlink:href="#DejaVuSans-29" x="367.578125"/>
     </g>
    </g>
   </g>
   <g id="matplotlib.axis_2">
    <g id="ytick_1">
     <g id="line2d_17">
      <path d="M 53.00625 352.403828 
L 405.80625 352.403828 
" clip-path="url(#p70e77fda99)" style="fill: none; stroke: #b0b0b0; stroke-width: 0.8; stroke-linecap: square"/>
     </g>
     <g id="line2d_18"/>
     <g id="text_10">
      <!-- 0.225 -->
      <g transform="translate(20.878125 356.203047)scale(0.1 -0.1)">
       <defs>
        <path id="DejaVuSans-2e" d="M 684 794 
L 1344 794 
L 1344 0 
L 684 0 
L 684 794 
z
" transform="scale(0.015625)"/>
       </defs>
       <use xlink:href="#DejaVuSans-30"/>
       <use xlink:href="#DejaVuSans-2e" x="63.623047"/>
       <use xlink:href="#DejaVuSans-32" x="95.410156"/>
       <use xlink:href="#DejaVuSans-32" x="159.033203"/>
       <use xlink:href="#DejaVuSans-35" x="222.65625"/>
      </g>
     </g>
    </g>
    <g id="ytick_2">
     <g id="line2d_19">
      <path d="M 53.00625 310.202871 
L 405.80625 310.202871 
" clip-path="url(#p70e77fda99)" style="fill: none; stroke: #b0b0b0; stroke-width: 0.8; stroke-linecap: square"/>
     </g>
     <g id="line2d_20"/>
     <g id="text_11">
      <!-- 0.250 -->
      <g transform="translate(20.878125 314.00209)scale(0.1 -0.1)">
       <use xlink:href="#DejaVuSans-30"/>
       <use xlink:href="#DejaVuSans-2e" x="63.623047"/>
       <use xlink:href="#DejaVuSans-32" x="95.410156"/>
       <use xlink:href="#DejaVuSans-35" x="159.033203"/>
       <use xlink:href="#DejaVuSans-30" x="222.65625"/>
      </g>
     </g>
    </g>
    <g id="ytick_3">
     <g id="line2d_21">
      <path d="M 53.00625 268.001914 
L 405.80625 268.001914 
" clip-path="url(#p70e77fda99)" style="fill: none; stroke: #b0b0b0; stroke-width: 0.8; stroke-linecap: square"/>
     </g>
     <g id="line2d_22"/>
     <g id="text_12">
      <!-- 0.275 -->
      <g transform="translate(20.878125 271.801133)scale(0.1 -0.1)">
       <defs>
        <path id="DejaVuSans-37" d="M 525 4666 
L 3525 4666 
L 3525 4397 
L 1831 0 
L 1172 0 
L 2766 4134 
L 525 4134 
L 525 4666 
z
" transform="scale(0.015625)"/>
       </defs>
       <use xlink:href="#DejaVuSans-30"/>
       <use xlink:href="#DejaVuSans-2e" x="63.623047"/>
       <use xlink:href="#DejaVuSans-32" x="95.410156"/>
       <use xlink:href="#DejaVuSans-37" x="159.033203"/>
       <use xlink:href="#DejaVuSans-35" x="222.65625"/>
      </g>
     </g>
    </g>
    <g id="ytick_4">
     <g id="line2d_23">
      <path d="M 53.00625 225.800957 
L 405.80625 225.800957 
" clip-path="url(#p70e77fda99)" style="fill: none; stroke: #b0b0b0; stroke-width: 0.8; stroke-linecap: square"/>
     </g>
     <g id="line2d_24"/>
     <g id="text_13">
      <!-- 0.300 -->
      <g transform="translate(20.878125 229.600176)scale(0.1 -0.1)">
       <use xlink:href="#DejaVuSans-30"/>
       <use xlink:href="#DejaVuSans-2e" x="63.623047"/>
       <use xlink:href="#DejaVuSans-33" x="95.410156"/>
       <use xlink:href="#DejaVuSans-30" x="159.033203"/>
       <use xlink:href="#DejaVuSans-30" x="222.65625"/>
      </g>
     </g>
    </g>
    <g id="ytick_5">
     <g id="line2d_25">
      <path d="M 53.00625 183.6 
L 405.80625 183.6 
" clip-path="url(#p70e77fda99)" style="fill: none; stroke: #b0b0b0; stroke-width: 0.8; stroke-linecap: square"/>
     </g>
     <g id="line2d_26"/>
     <g id="text_14">
      <!-- 0.325 -->
      <g transform="translate(20.878125 187.399219)scale(0.1 -0.1)">
       <use xlink:href="#DejaVuSans-30"/>
       <use xlink:href="#DejaVuSans-2e" x="63.623047"/>
       <use xlink:href="#DejaVuSans-33" x="95.410156"/>
       <use xlink:href="#DejaVuSans-32" x="159.033203"/>
       <use xlink:href="#DejaVuSans-35" x="222.65625"/>
      </g>
     </g>
    </g>
    <g id="ytick_6">
     <g id="line2d_27">
      <path d="M 53.00625 141.399043 
L 405.80625 141.399043 
" clip-path="url(#p70e77fda99)" style="fill: none; stroke: #b0b0b0; stroke-width: 0.8; stroke-linecap: square"/>
     </g>
     <g id="line2d_28"/>
     <g id="text_15">
      <!-- 0.350 -->
      <g transform="translate(20.878125 145.198262)scale(0.1 -0.1)">
       <use xlink:href="#DejaVuSans-30"/>
       <use xlink:href="#DejaVuSans-2e" x="63.623047"/>
       <use xlink:href="#DejaVuSans-33" x="95.410156"/>
       <use xlink:href="#DejaVuSans-35" x="159.033203"/>
       <use xlink:href="#DejaVuSans-30" x="222.65625"/>
      </g>
     </g>
    </g>
    <g id="ytick_7">
     <g id="line2d_29">
      <path d="M 53.00625 99.198086 
L 405.80625 99.198086 
" clip-path="url(#p70e77fda99)" style="fill: none; stroke: #b0b0b0; stroke-width: 0.8; stroke-linecap: square"/>
     </g>
     <g id="line2d_30"/>
     <g id="text_16">
      <!-- 0.375 -->
      <g transform="translate(20.878125 102.997305)scale(0.1 -0.1)">
       <use xlink:href="#DejaVuSans-30"/>
       <use xlink:href="#DejaVuSans-2e" x="63.623047"/>
       <use xlink:href="#DejaVuSans-33" x="95.410156"/>
       <use xlink:href="#DejaVuSans-37" x="159.033203"/>
       <use xlink:href="#DejaVuSans-35" x="222.65625"/>
      </g>
     </g>
    </g>
    <g id="ytick_8">
     <g id="line2d_31">
      <path d="M 53.00625 56.997129 
L 405.80625 56.997129 
" clip-path="url(#p70e77fda99)" style="fill: none; stroke: #b0b0b0; stroke-width: 0.8; stroke-linecap: square"/>
     </g>
     <g id="line2d_32"/>
     <g id="text_17">
      <!-- 0.400 -->
      <g transform="translate(20.878125 60.796348)scale(0.1 -0.1)">
       <defs>
        <path id="DejaVuSans-34" d="M 2419 4116 
L 825 1625 
L 2419 1625 
L 2419 4116 
z
M 2253 4666 
L 3047 4666 
L 3047 1625 
L 3713 1625 
L 3713 1100 
L 3047 1100 
L 3047 0 
L 2419 0 
L 2419 1100 
L 313 1100 
L 313 1709 
L 2253 4666 
z
" transform="scale(0.015625)"/>
       </defs>
       <use xlink:href="#DejaVuSans-30"/>
       <use xlink:href="#DejaVuSans-2e" x="63.623047"/>
       <use xlink:href="#DejaVuSans-34" x="95.410156"/>
       <use xlink:href="#DejaVuSans-30" x="159.033203"/>
       <use xlink:href="#DejaVuSans-30" x="222.65625"/>
      </g>
     </g>
    </g>
    <g id="ytick_9">
     <g id="line2d_33">
      <path d="M 53.00625 14.796172 
L 405.80625 14.796172 
" clip-path="url(#p70e77fda99)" style="fill: none; stroke: #b0b0b0; stroke-width: 0.8; stroke-linecap: square"/>
     </g>
     <g id="line2d_34"/>
     <g id="text_18">
      <!-- 0.425 -->
      <g transform="translate(20.878125 18.595391)scale(0.1 -0.1)">
       <use xlink:href="#DejaVuSans-30"/>
       <use xlink:href="#DejaVuSans-2e" x="63.623047"/>
       <use xlink:href="#DejaVuSans-34" x="95.410156"/>
       <use xlink:href="#DejaVuSans-32" x="159.033203"/>
       <use xlink:href="#DejaVuSans-35" x="222.65625"/>
      </g>
     </g>
    </g>
    <g id="text_19">
     <!-- Latency (s) -->
     <g transform="translate(14.798437 211.459375)rotate(-90)scale(0.1 -0.1)">
      <defs>
       <path id="DejaVuSans-4c" d="M 628 4666 
L 1259 4666 
L 1259 531 
L 3531 531 
L 3531 0 
L 628 0 
L 628 4666 
z
" transform="scale(0.015625)"/>
       <path id="DejaVuSans-61" d="M 2194 1759 
Q 1497 1759 1228 1600 
Q 959 1441 959 1056 
Q 959 750 1161 570 
Q 1363 391 1709 391 
Q 2188 391 2477 730 
Q 2766 1069 2766 1631 
L 2766 1759 
L 2194 1759 
z
M 3341 1997 
L 3341 0 
L 2766 0 
L 2766 531 
Q 2569 213 2275 61 
Q 1981 -91 1556 -91 
Q 1019 -91 701 211 
Q 384 513 384 1019 
Q 384 1609 779 1909 
Q 1175 2209 1959 2209 
L 2766 2209 
L 2766 2266 
Q 2766 2663 2505 2880 
Q 2244 3097 1772 3097 
Q 1472 3097 1187 3025 
Q 903 2953 641 2809 
L 641 3341 
Q 956 3463 1253 3523 
Q 1550 3584 1831 3584 
Q 2591 3584 2966 3190 
Q 3341 2797 3341 1997 
z
" transform="scale(0.015625)"/>
       <path id="DejaVuSans-74" d="M 1172 4494 
L 1172 3500 
L 2356 3500 
L 2356 3053 
L 1172 3053 
L 1172 1153 
Q 1172 725 1289 603 
Q 1406 481 1766 481 
L 2356 481 
L 2356 0 
L 1766 0 
Q 1100 0 847 248 
Q 594 497 594 1153 
L 594 3053 
L 172 3053 
L 172 3500 
L 594 3500 
L 594 4494 
L 1172 4494 
z
" transform="scale(0.015625)"/>
       <path id="DejaVuSans-6e" d="M 3513 2113 
L 3513 0 
L 2938 0 
L 2938 2094 
Q 2938 2591 2744 2837 
Q 2550 3084 2163 3084 
Q 1697 3084 1428 2787 
Q 1159 2491 1159 1978 
L 1159 0 
L 581 0 
L 581 3500 
L 1159 3500 
L 1159 2956 
Q 1366 3272 1645 3428 
Q 1925 3584 2291 3584 
Q 2894 3584 3203 3211 
Q 3513 2838 3513 2113 
z
" transform="scale(0.015625)"/>
       <path id="DejaVuSans-63" d="M 3122 3366 
L 3122 2828 
Q 2878 2963 2633 3030 
Q 2388 3097 2138 3097 
Q 1578 3097 1268 2742 
Q 959 2388 959 1747 
Q 959 1106 1268 751 
Q 1578 397 2138 397 
Q 2388 397 2633 464 
Q 2878 531 3122 666 
L 3122 134 
Q 2881 22 2623 -34 
Q 2366 -91 2075 -91 
Q 1284 -91 818 406 
Q 353 903 353 1747 
Q 353 2603 823 3093 
Q 1294 3584 2113 3584 
Q 2378 3584 2631 3529 
Q 2884 3475 3122 3366 
z
" transform="scale(0.015625)"/>
       <path id="DejaVuSans-79" d="M 2059 -325 
Q 1816 -950 1584 -1140 
Q 1353 -1331 966 -1331 
L 506 -1331 
L 506 -850 
L 844 -850 
Q 1081 -850 1212 -737 
Q 1344 -625 1503 -206 
L 1606 56 
L 191 3500 
L 800 3500 
L 1894 763 
L 2988 3500 
L 3597 3500 
L 2059 -325 
z
" transform="scale(0.015625)"/>
      </defs>
      <use xlink:href="#DejaVuSans-4c"/>
      <use xlink:href="#DejaVuSans-61" x="55.712891"/>
      <use xlink:href="#DejaVuSans-74" x="116.992188"/>
      <use xlink:href="#DejaVuSans-65" x="156.201172"/>
      <use xlink:href="#DejaVuSans-6e" x="217.724609"/>
      <use xlink:href="#DejaVuSans-63" x="281.103516"/>
      <use xlink:href="#DejaVuSans-79" x="336.083984"/>
      <use xlink:href="#DejaVuSans-20" x="395.263672"/>
      <use xlink:href="#DejaVuSans-28" x="427.050781"/>
      <use xlink:href="#DejaVuSans-73" x="466.064453"/>
      <use xlink:href="#DejaVuSans-29" x="518.164062"/>
     </g>
    </g>
   </g>
   <g id="LineCollection_1">
    <path d="M 53.00625 242.68134 
L 53.00625 56.997129 
" clip-path="url(#p70e77fda99)" style="fill: none; stroke: #1f77b4; stroke-width: 1.5"/>
    <path d="M 59.159738 276.442105 
L 59.159738 90.757895 
" clip-path="url(#p70e77fda99)" style="fill: none; stroke: #1f77b4; stroke-width: 1.5"/>
    <path d="M 65.313227 259.561722 
L 65.313227 175.159809 
" clip-path="url(#p70e77fda99)" style="fill: none; stroke: #1f77b4; stroke-width: 1.5"/>
    <path d="M 71.466715 259.561722 
L 71.466715 175.159809 
" clip-path="url(#p70e77fda99)" style="fill: none; stroke: #1f77b4; stroke-width: 1.5"/>
    <path d="M 77.620203 259.561722 
L 77.620203 158.279426 
" clip-path="url(#p70e77fda99)" style="fill: none; stroke: #1f77b4; stroke-width: 1.5"/>
    <path d="M 83.773692 225.800957 
L 83.773692 107.638278 
" clip-path="url(#p70e77fda99)" style="fill: none; stroke: #1f77b4; stroke-width: 1.5"/>
    <path d="M 89.92718 259.561722 
L 89.92718 56.997129 
" clip-path="url(#p70e77fda99)" style="fill: none; stroke: #1f77b4; stroke-width: 1.5"/>
    <path d="M 96.080669 175.159809 
L 96.080669 56.997129 
" clip-path="url(#p70e77fda99)" style="fill: none; stroke: #1f77b4; stroke-width: 1.5"/>
    <path d="M 102.234157 310.202871 
L 102.234157 158.279426 
" clip-path="url(#p70e77fda99)" style="fill: none; stroke: #1f77b4; stroke-width: 1.5"/>
    <path d="M 108.387645 343.963636 
L 108.387645 141.399043 
" clip-path="url(#p70e77fda99)" style="fill: none; stroke: #1f77b4; stroke-width: 1.5"/>
    <path d="M 114.541134 225.800957 
L 114.541134 107.638278 
" clip-path="url(#p70e77fda99)" style="fill: none; stroke: #1f77b4; stroke-width: 1.5"/>
    <path d="M 120.694622 293.322488 
L 120.694622 90.757895 
" clip-path="url(#p70e77fda99)" style="fill: none; stroke: #1f77b4; stroke-width: 1.5"/>
    <path d="M 126.84811 259.561722 
L 126.84811 158.279426 
" clip-path="url(#p70e77fda99)" style="fill: none; stroke: #1f77b4; stroke-width: 1.5"/>
    <path d="M 133.001599 259.561722 
L 133.001599 158.279426 
" clip-path="url(#p70e77fda99)" style="fill: none; stroke: #1f77b4; stroke-width: 1.5"/>
    <path d="M 139.155087 327.083254 
L 139.155087 23.236364 
" clip-path="url(#p70e77fda99)" style="fill: none; stroke: #1f77b4; stroke-width: 1.5"/>
    <path d="M 145.308576 276.442105 
L 145.308576 107.638278 
" clip-path="url(#p70e77fda99)" style="fill: none; stroke: #1f77b4; stroke-width: 1.5"/>
    <path d="M 151.462064 225.800957 
L 151.462064 56.997129 
" clip-path="url(#p70e77fda99)" style="fill: none; stroke: #1f77b4; stroke-width: 1.5"/>
    <path d="M 157.615552 225.800957 
L 157.615552 56.997129 
" clip-path="url(#p70e77fda99)" style="fill: none; stroke: #1f77b4; stroke-width: 1.5"/>
    <path d="M 163.769041 259.561722 
L 163.769041 90.757895 
" clip-path="url(#p70e77fda99)" style="fill: none; stroke: #1f77b4; stroke-width: 1.5"/>
    <path d="M 169.922529 259.561722 
L 169.922529 107.638278 
" clip-path="url(#p70e77fda99)" style="fill: none; stroke: #1f77b4; stroke-width: 1.5"/>
    <path d="M 176.076017 259.561722 
L 176.076017 175.159809 
" clip-path="url(#p70e77fda99)" style="fill: none; stroke: #1f77b4; stroke-width: 1.5"/>
    <path d="M 182.229506 225.800957 
L 182.229506 107.638278 
" clip-path="url(#p70e77fda99)" style="fill: none; stroke: #1f77b4; stroke-width: 1.5"/>
    <path d="M 188.382994 225.800957 
L 188.382994 56.997129 
" clip-path="url(#p70e77fda99)" style="fill: none; stroke: #1f77b4; stroke-width: 1.5"/>
    <path d="M 194.536483 259.561722 
L 194.536483 56.997129 
" clip-path="url(#p70e77fda99)" style="fill: none; stroke: #1f77b4; stroke-width: 1.5"/>
    <path d="M 200.689971 259.561722 
L 200.689971 56.997129 
" clip-path="url(#p70e77fda99)" style="fill: none; stroke: #1f77b4; stroke-width: 1.5"/>
    <path d="M 206.843459 225.800957 
L 206.843459 56.997129 
" clip-path="url(#p70e77fda99)" style="fill: none; stroke: #1f77b4; stroke-width: 1.5"/>
    <path d="M 212.996948 343.963636 
L 212.996948 107.638278 
" clip-path="url(#p70e77fda99)" style="fill: none; stroke: #1f77b4; stroke-width: 1.5"/>
    <path d="M 219.150436 225.800957 
L 219.150436 56.997129 
" clip-path="url(#p70e77fda99)" style="fill: none; stroke: #1f77b4; stroke-width: 1.5"/>
    <path d="M 225.303924 225.800957 
L 225.303924 124.51866 
" clip-path="url(#p70e77fda99)" style="fill: none; stroke: #1f77b4; stroke-width: 1.5"/>
    <path d="M 231.457413 225.800957 
L 231.457413 158.279426 
" clip-path="url(#p70e77fda99)" style="fill: none; stroke: #1f77b4; stroke-width: 1.5"/>
    <path d="M 237.610901 225.800957 
L 237.610901 107.638278 
" clip-path="url(#p70e77fda99)" style="fill: none; stroke: #1f77b4; stroke-width: 1.5"/>
    <path d="M 243.76439 293.322488 
L 243.76439 107.638278 
" clip-path="url(#p70e77fda99)" style="fill: none; stroke: #1f77b4; stroke-width: 1.5"/>
    <path d="M 249.917878 259.561722 
L 249.917878 175.159809 
" clip-path="url(#p70e77fda99)" style="fill: none; stroke: #1f77b4; stroke-width: 1.5"/>
    <path d="M 256.071366 259.561722 
L 256.071366 107.638278 
" clip-path="url(#p70e77fda99)" style="fill: none; stroke: #1f77b4; stroke-width: 1.5"/>
    <path d="M 262.224855 327.083254 
L 262.224855 56.997129 
" clip-path="url(#p70e77fda99)" style="fill: none; stroke: #1f77b4; stroke-width: 1.5"/>
    <path d="M 268.378343 242.68134 
L 268.378343 107.638278 
" clip-path="url(#p70e77fda99)" style="fill: none; stroke: #1f77b4; stroke-width: 1.5"/>
    <path d="M 274.531831 225.800957 
L 274.531831 56.997129 
" clip-path="url(#p70e77fda99)" style="fill: none; stroke: #1f77b4; stroke-width: 1.5"/>
    <path d="M 280.68532 242.68134 
L 280.68532 56.997129 
" clip-path="url(#p70e77fda99)" style="fill: none; stroke: #1f77b4; stroke-width: 1.5"/>
    <path d="M 286.838808 225.800957 
L 286.838808 56.997129 
" clip-path="url(#p70e77fda99)" style="fill: none; stroke: #1f77b4; stroke-width: 1.5"/>
    <path d="M 292.992297 276.442105 
L 292.992297 124.51866 
" clip-path="url(#p70e77fda99)" style="fill: none; stroke: #1f77b4; stroke-width: 1.5"/>
    <path d="M 299.145785 343.963636 
L 299.145785 107.638278 
" clip-path="url(#p70e77fda99)" style="fill: none; stroke: #1f77b4; stroke-width: 1.5"/>
    <path d="M 305.299273 259.561722 
L 305.299273 141.399043 
" clip-path="url(#p70e77fda99)" style="fill: none; stroke: #1f77b4; stroke-width: 1.5"/>
    <path d="M 311.452762 259.561722 
L 311.452762 158.279426 
" clip-path="url(#p70e77fda99)" style="fill: none; stroke: #1f77b4; stroke-width: 1.5"/>
    <path d="M 317.60625 310.202871 
L 317.60625 158.279426 
" clip-path="url(#p70e77fda99)" style="fill: none; stroke: #1f77b4; stroke-width: 1.5"/>
    <path d="M 323.759738 259.561722 
L 323.759738 124.51866 
" clip-path="url(#p70e77fda99)" style="fill: none; stroke: #1f77b4; stroke-width: 1.5"/>
    <path d="M 329.913227 225.800957 
L 329.913227 90.757895 
" clip-path="url(#p70e77fda99)" style="fill: none; stroke: #1f77b4; stroke-width: 1.5"/>
    <path d="M 336.066715 225.800957 
L 336.066715 124.51866 
" clip-path="url(#p70e77fda99)" style="fill: none; stroke: #1f77b4; stroke-width: 1.5"/>
    <path d="M 342.220203 242.68134 
L 342.220203 107.638278 
" clip-path="url(#p70e77fda99)" style="fill: none; stroke: #1f77b4; stroke-width: 1.5"/>
    <path d="M 348.373692 225.800957 
L 348.373692 124.51866 
" clip-path="url(#p70e77fda99)" style="fill: none; stroke: #1f77b4; stroke-width: 1.5"/>
    <path d="M 354.52718 242.68134 
L 354.52718 90.757895 
" clip-path="url(#p70e77fda99)" style="fill: none; stroke: #1f77b4; stroke-width: 1.5"/>
    <path d="M 360.680669 225.800957 
L 360.680669 107.638278 
" clip-path="url(#p70e77fda99)" style="fill: none; stroke: #1f77b4; stroke-width: 1.5"/>
    <path d="M 366.834157 259.561722 
L 366.834157 90.757895 
" clip-path="url(#p70e77fda99)" style="fill: none; stroke: #1f77b4; stroke-width: 1.5"/>
    <path d="M 372.987645 175.159809 
L 372.987645 56.997129 
" clip-path="url(#p70e77fda99)" style="fill: none; stroke: #1f77b4; stroke-width: 1.5"/>
    <path d="M 379.141134 259.561722 
L 379.141134 56.997129 
" clip-path="url(#p70e77fda99)" style="fill: none; stroke: #1f77b4; stroke-width: 1.5"/>
    <path d="M 385.294622 225.800957 
L 385.294622 158.279426 
" clip-path="url(#p70e77fda99)" style="fill: none; stroke: #1f77b4; stroke-width: 1.5"/>
    <path d="M 391.44811 343.963636 
L 391.44811 124.51866 
" clip-path="url(#p70e77fda99)" style="fill: none; stroke: #1f77b4; stroke-width: 1.5"/>
    <path d="M 397.601599 225.800957 
L 397.601599 124.51866 
" clip-path="url(#p70e77fda99)" style="fill: none; stroke: #1f77b4; stroke-width: 1.5"/>
    <path d="M 403.755087 276.442105 
L 403.755087 90.757895 
" clip-path="url(#p70e77fda99)" style="fill: none; stroke: #1f77b4; stroke-width: 1.5"/>
   </g>
   <g id="line2d_35">
    <path d="M 53.00625 149.839234 
L 59.159738 183.6 
L 65.313227 217.360766 
L 71.466715 217.360766 
L 77.620203 208.920574 
L 83.773692 166.719617 
L 89.92718 158.279426 
L 96.080669 116.078469 
L 102.234157 234.241148 
L 108.387645 242.68134 
L 114.541134 166.719617 
L 120.694622 192.040191 
L 126.84811 208.920574 
L 133.001599 208.920574 
L 139.155087 175.159809 
L 145.308576 192.040191 
L 151.462064 141.399043 
L 157.615552 141.399043 
L 163.769041 175.159809 
L 169.922529 183.6 
L 176.076017 217.360766 
L 182.229506 166.719617 
L 188.382994 141.399043 
L 194.536483 158.279426 
L 200.689971 158.279426 
L 206.843459 141.399043 
L 212.996948 225.800957 
L 219.150436 141.399043 
L 225.303924 175.159809 
L 231.457413 192.040191 
L 237.610901 166.719617 
L 243.76439 200.480383 
L 249.917878 217.360766 
L 256.071366 183.6 
L 262.224855 192.040191 
L 268.378343 175.159809 
L 274.531831 141.399043 
L 280.68532 149.839234 
L 286.838808 141.399043 
L 292.992297 200.480383 
L 299.145785 225.800957 
L 305.299273 200.480383 
L 311.452762 208.920574 
L 317.60625 234.241148 
L 323.759738 192.040191 
L 329.913227 158.279426 
L 336.066715 175.159809 
L 342.220203 175.159809 
L 348.373692 175.159809 
L 354.52718 166.719617 
L 360.680669 166.719617 
L 366.834157 175.159809 
L 372.987645 116.078469 
L 379.141134 158.279426 
L 385.294622 192.040191 
L 391.44811 234.241148 
L 397.601599 175.159809 
L 403.755087 183.6 
" clip-path="url(#p70e77fda99)" style="fill: none; stroke-dasharray: 5.55,2.4; stroke-dashoffset: 0; stroke: #1f77b4; stroke-width: 1.5"/>
    <defs>
     <path id="m504376e3d0" d="M 3 0 
L -3 -0 
" style="stroke: #1f77b4"/>
    </defs>
    <g clip-path="url(#p70e77fda99)">
     <use xlink:href="#m504376e3d0" x="53.00625" y="149.839234" style="fill: #1f77b4; stroke: #1f77b4"/>
     <use xlink:href="#m504376e3d0" x="59.159738" y="183.6" style="fill: #1f77b4; stroke: #1f77b4"/>
     <use xlink:href="#m504376e3d0" x="65.313227" y="217.360766" style="fill: #1f77b4; stroke: #1f77b4"/>
     <use xlink:href="#m504376e3d0" x="71.466715" y="217.360766" style="fill: #1f77b4; stroke: #1f77b4"/>
     <use xlink:href="#m504376e3d0" x="77.620203" y="208.920574" style="fill: #1f77b4; stroke: #1f77b4"/>
     <use xlink:href="#m504376e3d0" x="83.773692" y="166.719617" style="fill: #1f77b4; stroke: #1f77b4"/>
     <use xlink:href="#m504376e3d0" x="89.92718" y="158.279426" style="fill: #1f77b4; stroke: #1f77b4"/>
     <use xlink:href="#m504376e3d0" x="96.080669" y="116.078469" style="fill: #1f77b4; stroke: #1f77b4"/>
     <use xlink:href="#m504376e3d0" x="102.234157" y="234.241148" style="fill: #1f77b4; stroke: #1f77b4"/>
     <use xlink:href="#m504376e3d0" x="108.387645" y="242.68134" style="fill: #1f77b4; stroke: #1f77b4"/>
     <use xlink:href="#m504376e3d0" x="114.541134" y="166.719617" style="fill: #1f77b4; stroke: #1f77b4"/>
     <use xlink:href="#m504376e3d0" x="120.694622" y="192.040191" style="fill: #1f77b4; stroke: #1f77b4"/>
     <use xlink:href="#m504376e3d0" x="126.84811" y="208.920574" style="fill: #1f77b4; stroke: #1f77b4"/>
     <use xlink:href="#m504376e3d0" x="133.001599" y="208.920574" style="fill: #1f77b4; stroke: #1f77b4"/>
     <use xlink:href="#m504376e3d0" x="139.155087" y="175.159809" style="fill: #1f77b4; stroke: #1f77b4"/>
     <use xlink:href="#m504376e3d0" x="145.308576" y="192.040191" style="fill: #1f77b4; stroke: #1f77b4"/>
     <use xlink:href="#m504376e3d0" x="151.462064" y="141.399043" style="fill: #1f77b4; stroke: #1f77b4"/>
     <use xlink:href="#m504376e3d0" x="157.615552" y="141.399043" style="fill: #1f77b4; stroke: #1f77b4"/>
     <use xlink:href="#m504376e3d0" x="163.769041" y="175.159809" style="fill: #1f77b4; stroke: #1f77b4"/>
     <use xlink:href="#m504376e3d0" x="169.922529" y="183.6" style="fill: #1f77b4; stroke: #1f77b4"/>
     <use xlink:href="#m504376e3d0" x="176.076017" y="217.360766" style="fill: #1f77b4; stroke: #1f77b4"/>
     <use xlink:href="#m504376e3d0" x="182.229506" y="166.719617" style="fill: #1f77b4; stroke: #1f77b4"/>
     <use xlink:href="#m504376e3d0" x="188.382994" y="141.399043" style="fill: #1f77b4; stroke: #1f77b4"/>
     <use xlink:href="#m504376e3d0" x="194.536483" y="158.279426" style="fill: #1f77b4; stroke: #1f77b4"/>
     <use xlink:href="#m504376e3d0" x="200.689971" y="158.279426" style="fill: #1f77b4; stroke: #1f77b4"/>
     <use xlink:href="#m504376e3d0" x="206.843459" y="141.399043" style="fill: #1f77b4; stroke: #1f77b4"/>
     <use xlink:href="#m504376e3d0" x="212.996948" y="225.800957" style="fill: #1f77b4; stroke: #1f77b4"/>
     <use xlink:href="#m504376e3d0" x="219.150436" y="141.399043" style="fill: #1f77b4; stroke: #1f77b4"/>
     <use xlink:href="#m504376e3d0" x="225.303924" y="175.159809" style="fill: #1f77b4; stroke: #1f77b4"/>
     <use xlink:href="#m504376e3d0" x="231.457413" y="192.040191" style="fill: #1f77b4; stroke: #1f77b4"/>
     <use xlink:href="#m504376e3d0" x="237.610901" y="166.719617" style="fill: #1f77b4; stroke: #1f77b4"/>
     <use xlink:href="#m504376e3d0" x="243.76439" y="200.480383" style="fill: #1f77b4; stroke: #1f77b4"/>
     <use xlink:href="#m504376e3d0" x="249.917878" y="217.360766" style="fill: #1f77b4; stroke: #1f77b4"/>
     <use xlink:href="#m504376e3d0" x="256.071366" y="183.6" style="fill: #1f77b4; stroke: #1f77b4"/>
     <use xlink:href="#m504376e3d0" x="262.224855" y="192.040191" style="fill: #1f77b4; stroke: #1f77b4"/>
     <use xlink:href="#m504376e3d0" x="268.378343" y="175.159809" style="fill: #1f77b4; stroke: #1f77b4"/>
     <use xlink:href="#m504376e3d0" x="274.531831" y="141.399043" style="fill: #1f77b4; stroke: #1f77b4"/>
     <use xlink:href="#m504376e3d0" x="280.68532" y="149.839234" style="fill: #1f77b4; stroke: #1f77b4"/>
     <use xlink:href="#m504376e3d0" x="286.838808" y="141.399043" style="fill: #1f77b4; stroke: #1f77b4"/>
     <use xlink:href="#m504376e3d0" x="292.992297" y="200.480383" style="fill: #1f77b4; stroke: #1f77b4"/>
     <use xlink:href="#m504376e3d0" x="299.145785" y="225.800957" style="fill: #1f77b4; stroke: #1f77b4"/>
     <use xlink:href="#m504376e3d0" x="305.299273" y="200.480383" style="fill: #1f77b4; stroke: #1f77b4"/>
     <use xlink:href="#m504376e3d0" x="311.452762" y="208.920574" style="fill: #1f77b4; stroke: #1f77b4"/>
     <use xlink:href="#m504376e3d0" x="317.60625" y="234.241148" style="fill: #1f77b4; stroke: #1f77b4"/>
     <use xlink:href="#m504376e3d0" x="323.759738" y="192.040191" style="fill: #1f77b4; stroke: #1f77b4"/>
     <use xlink:href="#m504376e3d0" x="329.913227" y="158.279426" style="fill: #1f77b4; stroke: #1f77b4"/>
     <use xlink:href="#m504376e3d0" x="336.066715" y="175.159809" style="fill: #1f77b4; stroke: #1f77b4"/>
     <use xlink:href="#m504376e3d0" x="342.220203" y="175.159809" style="fill: #1f77b4; stroke: #1f77b4"/>
     <use xlink:href="#m504376e3d0" x="348.373692" y="175.159809" style="fill: #1f77b4; stroke: #1f77b4"/>
     <use xlink:href="#m504376e3d0" x="354.52718" y="166.719617" style="fill: #1f77b4; stroke: #1f77b4"/>
     <use xlink:href="#m504376e3d0" x="360.680669" y="166.719617" style="fill: #1f77b4; stroke: #1f77b4"/>
     <use xlink:href="#m504376e3d0" x="366.834157" y="175.159809" style="fill: #1f77b4; stroke: #1f77b4"/>
     <use xlink:href="#m504376e3d0" x="372.987645" y="116.078469" style="fill: #1f77b4; stroke: #1f77b4"/>
     <use xlink:href="#m504376e3d0" x="379.141134" y="158.279426" style="fill: #1f77b4; stroke: #1f77b4"/>
     <use xlink:href="#m504376e3d0" x="385.294622" y="192.040191" style="fill: #1f77b4; stroke: #1f77b4"/>
     <use xlink:href="#m504376e3d0" x="391.44811" y="234.241148" style="fill: #1f77b4; stroke: #1f77b4"/>
     <use xlink:href="#m504376e3d0" x="397.601599" y="175.159809" style="fill: #1f77b4; stroke: #1f77b4"/>
     <use xlink:href="#m504376e3d0" x="403.755087" y="183.6" style="fill: #1f77b4; stroke: #1f77b4"/>
    </g>
   </g>
   <g id="patch_3">
    <path d="M 53.00625 360 
L 53.00625 7.2 
" style="fill: none; stroke: #000000; stroke-width: 0.8; stroke-linejoin: miter; stroke-linecap: square"/>
   </g>
   <g id="patch_4">
    <path d="M 405.80625 360 
L 405.80625 7.2 
" style="fill: none; stroke: #000000; stroke-width: 0.8; stroke-linejoin: miter; stroke-linecap: square"/>
   </g>
   <g id="patch_5">
    <path d="M 53.00625 360 
L 405.80625 360 
" style="fill: none; stroke: #000000; stroke-width: 0.8; stroke-linejoin: miter; stroke-linecap: square"/>
   </g>
   <g id="patch_6">
    <path d="M 53.00625 7.2 
L 405.80625 7.2 
" style="fill: none; stroke: #000000; stroke-width: 0.8; stroke-linejoin: miter; stroke-linecap: square"/>
   </g>
  </g>
 </g>
 <defs>
  <clipPath id="p70e77fda99">
   <rect x="53.00625" y="7.2" width="352.8" height="352.8"/>
  </clipPath>
 </defs>
</svg>
