<?xml version="1.0" encoding="utf-8" standalone="no"?>
<!DOCTYPE svg PUBLIC "-//W3C//DTD SVG 1.1//EN"
  "http://www.w3.org/Graphics/SVG/1.1/DTD/svg11.dtd">
<svg xmlns:xlink="http://www.w3.org/1999/xlink" width="400.28125pt" height="463.14425pt" viewBox="0 0 400.28125 463.14425" xmlns="http://www.w3.org/2000/svg" version="1.1">
 <metadata>
  <rdf:RDF xmlns:dc="http://purl.org/dc/elements/1.1/" xmlns:cc="http://creativecommons.org/ns#" xmlns:rdf="http://www.w3.org/1999/02/22-rdf-syntax-ns#">
   <cc:Work>
    <dc:type rdf:resource="http://purl.org/dc/dcmitype/StillImage"/>
    <dc:date>2022-05-23T22:34:58.939625</dc:date>
    <dc:format>image/svg+xml</dc:format>
    <dc:creator>
     <cc:Agent>
      <dc:title>Matplotlib v3.5.2, https://matplotlib.org/</dc:title>
     </cc:Agent>
    </dc:creator>
   </cc:Work>
  </rdf:RDF>
 </metadata>
 <defs>
  <style type="text/css">*{stroke-linejoin: round; stroke-linecap: butt}</style>
 </defs>
 <g id="figure_1">
  <g id="patch_1">
   <path d="M 0 463.14425 
L 400.28125 463.14425 
L 400.28125 -0 
L 0 -0 
L 0 463.14425 
z
" style="fill: none"/>
  </g>
  <g id="axes_1">
   <g id="patch_2">
    <path d="M 40.28125 429.088 
L 393.08125 429.088 
L 393.08125 76.288 
L 40.28125 76.288 
z
" style="fill: #ffffff"/>
   </g>
   <g id="matplotlib.axis_1">
    <g id="xtick_1">
     <g id="line2d_1">
      <path d="M 40.28125 429.088 
L 40.28125 76.288 
" clip-path="url(#p67a1db80c3)" style="fill: none; stroke: #b0b0b0; stroke-width: 0.8; stroke-linecap: square"/>
     </g>
     <g id="line2d_2"/>
     <g id="text_1">
      <!-- 0 -->
      <g transform="translate(37.1 440.186437)scale(0.1 -0.1)">
       <defs>
        <path id="DejaVuSans-30" d="M 2034 4250 
Q 1547 4250 1301 3770 
Q 1056 3291 1056 2328 
Q 1056 1369 1301 889 
Q 1547 409 2034 409 
Q 2525 409 2770 889 
Q 3016 1369 3016 2328 
Q 3016 3291 2770 3770 
Q 2525 4250 2034 4250 
z
M 2034 4750 
Q 2819 4750 3233 4129 
Q 3647 3509 3647 2328 
Q 3647 1150 3233 529 
Q 2819 -91 2034 -91 
Q 1250 -91 836 529 
Q 422 1150 422 2328 
Q 422 3509 836 4129 
Q 1250 4750 2034 4750 
z
" transform="scale(0.015625)"/>
       </defs>
       <use xlink:href="#DejaVuSans-30"/>
      </g>
     </g>
    </g>
    <g id="xtick_2">
     <g id="line2d_3">
      <path d="M 96.72925 429.088 
L 96.72925 76.288 
" clip-path="url(#p67a1db80c3)" style="fill: none; stroke: #b0b0b0; stroke-width: 0.8; stroke-linecap: square"/>
     </g>
     <g id="line2d_4"/>
     <g id="text_2">
      <!-- 10 -->
      <g transform="translate(90.36675 440.186437)scale(0.1 -0.1)">
       <defs>
        <path id="DejaVuSans-31" d="M 794 531 
L 1825 531 
L 1825 4091 
L 703 3866 
L 703 4441 
L 1819 4666 
L 2450 4666 
L 2450 531 
L 3481 531 
L 3481 0 
L 794 0 
L 794 531 
z
" transform="scale(0.015625)"/>
       </defs>
       <use xlink:href="#DejaVuSans-31"/>
       <use xlink:href="#DejaVuSans-30" x="63.623047"/>
      </g>
     </g>
    </g>
    <g id="xtick_3">
     <g id="line2d_5">
      <path d="M 153.17725 429.088 
L 153.17725 76.288 
" clip-path="url(#p67a1db80c3)" style="fill: none; stroke: #b0b0b0; stroke-width: 0.8; stroke-linecap: square"/>
     </g>
     <g id="line2d_6"/>
     <g id="text_3">
      <!-- 20 -->
      <g transform="translate(146.81475 440.186437)scale(0.1 -0.1)">
       <defs>
        <path id="DejaVuSans-32" d="M 1228 531 
L 3431 531 
L 3431 0 
L 469 0 
L 469 531 
Q 828 903 1448 1529 
Q 2069 2156 2228 2338 
Q 2531 2678 2651 2914 
Q 2772 3150 2772 3378 
Q 2772 3750 2511 3984 
Q 2250 4219 1831 4219 
Q 1534 4219 1204 4116 
Q 875 4013 500 3803 
L 500 4441 
Q 881 4594 1212 4672 
Q 1544 4750 1819 4750 
Q 2544 4750 2975 4387 
Q 3406 4025 3406 3419 
Q 3406 3131 3298 2873 
Q 3191 2616 2906 2266 
Q 2828 2175 2409 1742 
Q 1991 1309 1228 531 
z
" transform="scale(0.015625)"/>
       </defs>
       <use xlink:href="#DejaVuSans-32"/>
       <use xlink:href="#DejaVuSans-30" x="63.623047"/>
      </g>
     </g>
    </g>
    <g id="xtick_4">
     <g id="line2d_7">
      <path d="M 209.62525 429.088 
L 209.62525 76.288 
" clip-path="url(#p67a1db80c3)" style="fill: none; stroke: #b0b0b0; stroke-width: 0.8; stroke-linecap: square"/>
     </g>
     <g id="line2d_8"/>
     <g id="text_4">
      <!-- 30 -->
      <g transform="translate(203.26275 440.186437)scale(0.1 -0.1)">
       <defs>
        <path id="DejaVuSans-33" d="M 2597 2516 
Q 3050 2419 3304 2112 
Q 3559 1806 3559 1356 
Q 3559 666 3084 287 
Q 2609 -91 1734 -91 
Q 1441 -91 1130 -33 
Q 819 25 488 141 
L 488 750 
Q 750 597 1062 519 
Q 1375 441 1716 441 
Q 2309 441 2620 675 
Q 2931 909 2931 1356 
Q 2931 1769 2642 2001 
Q 2353 2234 1838 2234 
L 1294 2234 
L 1294 2753 
L 1863 2753 
Q 2328 2753 2575 2939 
Q 2822 3125 2822 3475 
Q 2822 3834 2567 4026 
Q 2313 4219 1838 4219 
Q 1578 4219 1281 4162 
Q 984 4106 628 3988 
L 628 4550 
Q 988 4650 1302 4700 
Q 1616 4750 1894 4750 
Q 2613 4750 3031 4423 
Q 3450 4097 3450 3541 
Q 3450 3153 3228 2886 
Q 3006 2619 2597 2516 
z
" transform="scale(0.015625)"/>
       </defs>
       <use xlink:href="#DejaVuSans-33"/>
       <use xlink:href="#DejaVuSans-30" x="63.623047"/>
      </g>
     </g>
    </g>
    <g id="xtick_5">
     <g id="line2d_9">
      <path d="M 266.07325 429.088 
L 266.07325 76.288 
" clip-path="url(#p67a1db80c3)" style="fill: none; stroke: #b0b0b0; stroke-width: 0.8; stroke-linecap: square"/>
     </g>
     <g id="line2d_10"/>
     <g id="text_5">
      <!-- 40 -->
      <g transform="translate(259.71075 440.186437)scale(0.1 -0.1)">
       <defs>
        <path id="DejaVuSans-34" d="M 2419 4116 
L 825 1625 
L 2419 1625 
L 2419 4116 
z
M 2253 4666 
L 3047 4666 
L 3047 1625 
L 3713 1625 
L 3713 1100 
L 3047 1100 
L 3047 0 
L 2419 0 
L 2419 1100 
L 313 1100 
L 313 1709 
L 2253 4666 
z
" transform="scale(0.015625)"/>
       </defs>
       <use xlink:href="#DejaVuSans-34"/>
       <use xlink:href="#DejaVuSans-30" x="63.623047"/>
      </g>
     </g>
    </g>
    <g id="xtick_6">
     <g id="line2d_11">
      <path d="M 322.52125 429.088 
L 322.52125 76.288 
" clip-path="url(#p67a1db80c3)" style="fill: none; stroke: #b0b0b0; stroke-width: 0.8; stroke-linecap: square"/>
     </g>
     <g id="line2d_12"/>
     <g id="text_6">
      <!-- 50 -->
      <g transform="translate(316.15875 440.186437)scale(0.1 -0.1)">
       <defs>
        <path id="DejaVuSans-35" d="M 691 4666 
L 3169 4666 
L 3169 4134 
L 1269 4134 
L 1269 2991 
Q 1406 3038 1543 3061 
Q 1681 3084 1819 3084 
Q 2600 3084 3056 2656 
Q 3513 2228 3513 1497 
Q 3513 744 3044 326 
Q 2575 -91 1722 -91 
Q 1428 -91 1123 -41 
Q 819 9 494 109 
L 494 744 
Q 775 591 1075 516 
Q 1375 441 1709 441 
Q 2250 441 2565 725 
Q 2881 1009 2881 1497 
Q 2881 1984 2565 2268 
Q 2250 2553 1709 2553 
Q 1456 2553 1204 2497 
Q 953 2441 691 2322 
L 691 4666 
z
" transform="scale(0.015625)"/>
       </defs>
       <use xlink:href="#DejaVuSans-35"/>
       <use xlink:href="#DejaVuSans-30" x="63.623047"/>
      </g>
     </g>
    </g>
    <g id="xtick_7">
     <g id="line2d_13">
      <path d="M 378.96925 429.088 
L 378.96925 76.288 
" clip-path="url(#p67a1db80c3)" style="fill: none; stroke: #b0b0b0; stroke-width: 0.8; stroke-linecap: square"/>
     </g>
     <g id="line2d_14"/>
     <g id="text_7">
      <!-- 60 -->
      <g transform="translate(372.60675 440.186437)scale(0.1 -0.1)">
       <defs>
        <path id="DejaVuSans-36" d="M 2113 2584 
Q 1688 2584 1439 2293 
Q 1191 2003 1191 1497 
Q 1191 994 1439 701 
Q 1688 409 2113 409 
Q 2538 409 2786 701 
Q 3034 994 3034 1497 
Q 3034 2003 2786 2293 
Q 2538 2584 2113 2584 
z
M 3366 4563 
L 3366 3988 
Q 3128 4100 2886 4159 
Q 2644 4219 2406 4219 
Q 1781 4219 1451 3797 
Q 1122 3375 1075 2522 
Q 1259 2794 1537 2939 
Q 1816 3084 2150 3084 
Q 2853 3084 3261 2657 
Q 3669 2231 3669 1497 
Q 3669 778 3244 343 
Q 2819 -91 2113 -91 
Q 1303 -91 875 529 
Q 447 1150 447 2328 
Q 447 3434 972 4092 
Q 1497 4750 2381 4750 
Q 2619 4750 2861 4703 
Q 3103 4656 3366 4563 
z
" transform="scale(0.015625)"/>
       </defs>
       <use xlink:href="#DejaVuSans-36"/>
       <use xlink:href="#DejaVuSans-30" x="63.623047"/>
      </g>
     </g>
    </g>
    <g id="text_8">
     <!-- Время, сек -->
     <g transform="translate(188.196094 453.864562)scale(0.1 -0.1)">
      <defs>
       <path id="DejaVuSans-412" d="M 1259 2228 
L 1259 519 
L 2272 519 
Q 2781 519 3026 730 
Q 3272 941 3272 1375 
Q 3272 1813 3026 2020 
Q 2781 2228 2272 2228 
L 1259 2228 
z
M 1259 4147 
L 1259 2741 
L 2194 2741 
Q 2656 2741 2882 2914 
Q 3109 3088 3109 3444 
Q 3109 3797 2882 3972 
Q 2656 4147 2194 4147 
L 1259 4147 
z
M 628 4666 
L 2241 4666 
Q 2963 4666 3353 4366 
Q 3744 4066 3744 3513 
Q 3744 3084 3544 2831 
Q 3344 2578 2956 2516 
Q 3422 2416 3680 2098 
Q 3938 1781 3938 1306 
Q 3938 681 3513 340 
Q 3088 0 2303 0 
L 628 0 
L 628 4666 
z
" transform="scale(0.015625)"/>
       <path id="DejaVuSans-440" d="M 1159 525 
L 1159 -1331 
L 581 -1331 
L 581 3500 
L 1159 3500 
L 1159 2969 
Q 1341 3281 1617 3432 
Q 1894 3584 2278 3584 
Q 2916 3584 3314 3078 
Q 3713 2572 3713 1747 
Q 3713 922 3314 415 
Q 2916 -91 2278 -91 
Q 1894 -91 1617 61 
Q 1341 213 1159 525 
z
M 3116 1747 
Q 3116 2381 2855 2742 
Q 2594 3103 2138 3103 
Q 1681 3103 1420 2742 
Q 1159 2381 1159 1747 
Q 1159 1113 1420 752 
Q 1681 391 2138 391 
Q 2594 391 2855 752 
Q 3116 1113 3116 1747 
z
" transform="scale(0.015625)"/>
       <path id="DejaVuSans-435" d="M 3597 1894 
L 3597 1613 
L 953 1613 
Q 991 1019 1311 708 
Q 1631 397 2203 397 
Q 2534 397 2845 478 
Q 3156 559 3463 722 
L 3463 178 
Q 3153 47 2828 -22 
Q 2503 -91 2169 -91 
Q 1331 -91 842 396 
Q 353 884 353 1716 
Q 353 2575 817 3079 
Q 1281 3584 2069 3584 
Q 2775 3584 3186 3129 
Q 3597 2675 3597 1894 
z
M 3022 2063 
Q 3016 2534 2758 2815 
Q 2500 3097 2075 3097 
Q 1594 3097 1305 2825 
Q 1016 2553 972 2059 
L 3022 2063 
z
" transform="scale(0.015625)"/>
       <path id="DejaVuSans-43c" d="M 581 3500 
L 1422 3500 
L 2416 1156 
L 3413 3500 
L 4247 3500 
L 4247 0 
L 3669 0 
L 3669 2950 
L 2703 672 
L 2128 672 
L 1159 2950 
L 1159 0 
L 581 0 
L 581 3500 
z
" transform="scale(0.015625)"/>
       <path id="DejaVuSans-44f" d="M 1181 2491 
Q 1181 2231 1381 2084 
Q 1581 1938 1953 1938 
L 2728 1938 
L 2728 3041 
L 1953 3041 
Q 1581 3041 1381 2897 
Q 1181 2753 1181 2491 
z
M 363 0 
L 1431 1534 
Q 1069 1616 828 1830 
Q 588 2044 588 2491 
Q 588 2997 923 3248 
Q 1259 3500 1938 3500 
L 3306 3500 
L 3306 0 
L 2728 0 
L 2728 1478 
L 2013 1478 
L 981 0 
L 363 0 
z
" transform="scale(0.015625)"/>
       <path id="DejaVuSans-2c" d="M 750 794 
L 1409 794 
L 1409 256 
L 897 -744 
L 494 -744 
L 750 256 
L 750 794 
z
" transform="scale(0.015625)"/>
       <path id="DejaVuSans-20" transform="scale(0.015625)"/>
       <path id="DejaVuSans-441" d="M 3122 3366 
L 3122 2828 
Q 2878 2963 2633 3030 
Q 2388 3097 2138 3097 
Q 1578 3097 1268 2742 
Q 959 2388 959 1747 
Q 959 1106 1268 751 
Q 1578 397 2138 397 
Q 2388 397 2633 464 
Q 2878 531 3122 666 
L 3122 134 
Q 2881 22 2623 -34 
Q 2366 -91 2075 -91 
Q 1284 -91 818 406 
Q 353 903 353 1747 
Q 353 2603 823 3093 
Q 1294 3584 2113 3584 
Q 2378 3584 2631 3529 
Q 2884 3475 3122 3366 
z
" transform="scale(0.015625)"/>
       <path id="DejaVuSans-43a" d="M 581 3500 
L 1153 3500 
L 1153 1856 
L 2775 3500 
L 3481 3500 
L 2144 2147 
L 3653 0 
L 3009 0 
L 1769 1766 
L 1153 1141 
L 1153 0 
L 581 0 
L 581 3500 
z
" transform="scale(0.015625)"/>
      </defs>
      <use xlink:href="#DejaVuSans-412"/>
      <use xlink:href="#DejaVuSans-440" x="68.603516"/>
      <use xlink:href="#DejaVuSans-435" x="132.080078"/>
      <use xlink:href="#DejaVuSans-43c" x="193.603516"/>
      <use xlink:href="#DejaVuSans-44f" x="269.042969"/>
      <use xlink:href="#DejaVuSans-2c" x="329.199219"/>
      <use xlink:href="#DejaVuSans-20" x="360.986328"/>
      <use xlink:href="#DejaVuSans-441" x="392.773438"/>
      <use xlink:href="#DejaVuSans-435" x="447.753906"/>
      <use xlink:href="#DejaVuSans-43a" x="509.277344"/>
     </g>
    </g>
   </g>
   <g id="matplotlib.axis_2">
    <g id="ytick_1">
     <g id="line2d_15">
      <path d="M 40.28125 392.825592 
L 393.08125 392.825592 
" clip-path="url(#p67a1db80c3)" style="fill: none; stroke: #b0b0b0; stroke-width: 0.8; stroke-linecap: square"/>
     </g>
     <g id="line2d_16"/>
     <g id="text_9">
      <!-- 0.4 -->
      <g transform="translate(20.878125 396.624811)scale(0.1 -0.1)">
       <defs>
        <path id="DejaVuSans-2e" d="M 684 794 
L 1344 794 
L 1344 0 
L 684 0 
L 684 794 
z
" transform="scale(0.015625)"/>
       </defs>
       <use xlink:href="#DejaVuSans-30"/>
       <use xlink:href="#DejaVuSans-2e" x="63.623047"/>
       <use xlink:href="#DejaVuSans-34" x="95.410156"/>
      </g>
     </g>
    </g>
    <g id="ytick_2">
     <g id="line2d_17">
      <path d="M 40.28125 335.036894 
L 393.08125 335.036894 
" clip-path="url(#p67a1db80c3)" style="fill: none; stroke: #b0b0b0; stroke-width: 0.8; stroke-linecap: square"/>
     </g>
     <g id="line2d_18"/>
     <g id="text_10">
      <!-- 0.6 -->
      <g transform="translate(20.878125 338.836113)scale(0.1 -0.1)">
       <use xlink:href="#DejaVuSans-30"/>
       <use xlink:href="#DejaVuSans-2e" x="63.623047"/>
       <use xlink:href="#DejaVuSans-36" x="95.410156"/>
      </g>
     </g>
    </g>
    <g id="ytick_3">
     <g id="line2d_19">
      <path d="M 40.28125 277.248197 
L 393.08125 277.248197 
" clip-path="url(#p67a1db80c3)" style="fill: none; stroke: #b0b0b0; stroke-width: 0.8; stroke-linecap: square"/>
     </g>
     <g id="line2d_20"/>
     <g id="text_11">
      <!-- 0.8 -->
      <g transform="translate(20.878125 281.047415)scale(0.1 -0.1)">
       <defs>
        <path id="DejaVuSans-38" d="M 2034 2216 
Q 1584 2216 1326 1975 
Q 1069 1734 1069 1313 
Q 1069 891 1326 650 
Q 1584 409 2034 409 
Q 2484 409 2743 651 
Q 3003 894 3003 1313 
Q 3003 1734 2745 1975 
Q 2488 2216 2034 2216 
z
M 1403 2484 
Q 997 2584 770 2862 
Q 544 3141 544 3541 
Q 544 4100 942 4425 
Q 1341 4750 2034 4750 
Q 2731 4750 3128 4425 
Q 3525 4100 3525 3541 
Q 3525 3141 3298 2862 
Q 3072 2584 2669 2484 
Q 3125 2378 3379 2068 
Q 3634 1759 3634 1313 
Q 3634 634 3220 271 
Q 2806 -91 2034 -91 
Q 1263 -91 848 271 
Q 434 634 434 1313 
Q 434 1759 690 2068 
Q 947 2378 1403 2484 
z
M 1172 3481 
Q 1172 3119 1398 2916 
Q 1625 2713 2034 2713 
Q 2441 2713 2670 2916 
Q 2900 3119 2900 3481 
Q 2900 3844 2670 4047 
Q 2441 4250 2034 4250 
Q 1625 4250 1398 4047 
Q 1172 3844 1172 3481 
z
" transform="scale(0.015625)"/>
       </defs>
       <use xlink:href="#DejaVuSans-30"/>
       <use xlink:href="#DejaVuSans-2e" x="63.623047"/>
       <use xlink:href="#DejaVuSans-38" x="95.410156"/>
      </g>
     </g>
    </g>
    <g id="ytick_4">
     <g id="line2d_21">
      <path d="M 40.28125 219.459499 
L 393.08125 219.459499 
" clip-path="url(#p67a1db80c3)" style="fill: none; stroke: #b0b0b0; stroke-width: 0.8; stroke-linecap: square"/>
     </g>
     <g id="line2d_22"/>
     <g id="text_12">
      <!-- 1.0 -->
      <g transform="translate(20.878125 223.258718)scale(0.1 -0.1)">
       <use xlink:href="#DejaVuSans-31"/>
       <use xlink:href="#DejaVuSans-2e" x="63.623047"/>
       <use xlink:href="#DejaVuSans-30" x="95.410156"/>
      </g>
     </g>
    </g>
    <g id="ytick_5">
     <g id="line2d_23">
      <path d="M 40.28125 161.670801 
L 393.08125 161.670801 
" clip-path="url(#p67a1db80c3)" style="fill: none; stroke: #b0b0b0; stroke-width: 0.8; stroke-linecap: square"/>
     </g>
     <g id="line2d_24"/>
     <g id="text_13">
      <!-- 1.2 -->
      <g transform="translate(20.878125 165.47002)scale(0.1 -0.1)">
       <use xlink:href="#DejaVuSans-31"/>
       <use xlink:href="#DejaVuSans-2e" x="63.623047"/>
       <use xlink:href="#DejaVuSans-32" x="95.410156"/>
      </g>
     </g>
    </g>
    <g id="ytick_6">
     <g id="line2d_25">
      <path d="M 40.28125 103.882103 
L 393.08125 103.882103 
" clip-path="url(#p67a1db80c3)" style="fill: none; stroke: #b0b0b0; stroke-width: 0.8; stroke-linecap: square"/>
     </g>
     <g id="line2d_26"/>
     <g id="text_14">
      <!-- 1.4 -->
      <g transform="translate(20.878125 107.681322)scale(0.1 -0.1)">
       <use xlink:href="#DejaVuSans-31"/>
       <use xlink:href="#DejaVuSans-2e" x="63.623047"/>
       <use xlink:href="#DejaVuSans-34" x="95.410156"/>
      </g>
     </g>
    </g>
    <g id="text_15">
     <!-- Задержка, сек -->
     <g transform="translate(14.798437 291.278625)rotate(-90)scale(0.1 -0.1)">
      <defs>
       <path id="DejaVuSans-417" d="M 1828 4750 
Q 2597 4750 3084 4423 
Q 3572 4097 3572 3541 
Q 3572 3153 3350 2886 
Q 3128 2619 2719 2516 
Q 3172 2419 3426 2112 
Q 3681 1806 3681 1356 
Q 3681 638 3126 273 
Q 2572 -91 1828 -91 
Q 1447 -91 1003 12 
Q 559 116 422 203 
L 422 853 
Q 900 575 1164 508 
Q 1428 441 1816 441 
Q 2403 441 2728 666 
Q 3053 891 3053 1356 
Q 3053 1769 2764 2001 
Q 2475 2234 1866 2234 
L 1228 2234 
L 1228 2753 
L 1891 2753 
Q 2450 2753 2697 2939 
Q 2944 3125 2944 3475 
Q 2944 3834 2689 4026 
Q 2434 4219 1816 4219 
Q 1397 4219 1253 4181 
Q 1109 4144 469 3903 
L 469 4519 
Q 822 4644 1190 4697 
Q 1559 4750 1828 4750 
z
" transform="scale(0.015625)"/>
       <path id="DejaVuSans-430" d="M 2194 1759 
Q 1497 1759 1228 1600 
Q 959 1441 959 1056 
Q 959 750 1161 570 
Q 1363 391 1709 391 
Q 2188 391 2477 730 
Q 2766 1069 2766 1631 
L 2766 1759 
L 2194 1759 
z
M 3341 1997 
L 3341 0 
L 2766 0 
L 2766 531 
Q 2569 213 2275 61 
Q 1981 -91 1556 -91 
Q 1019 -91 701 211 
Q 384 513 384 1019 
Q 384 1609 779 1909 
Q 1175 2209 1959 2209 
L 2766 2209 
L 2766 2266 
Q 2766 2663 2505 2880 
Q 2244 3097 1772 3097 
Q 1472 3097 1187 3025 
Q 903 2953 641 2809 
L 641 3341 
Q 956 3463 1253 3523 
Q 1550 3584 1831 3584 
Q 2591 3584 2966 3190 
Q 3341 2797 3341 1997 
z
" transform="scale(0.015625)"/>
       <path id="DejaVuSans-434" d="M 1384 459 
L 3053 459 
L 3053 3041 
L 1844 3041 
L 1844 2603 
Q 1844 1316 1475 628 
L 1384 459 
z
M 550 459 
Q 834 584 959 850 
Q 1266 1509 1266 2838 
L 1266 3500 
L 3631 3500 
L 3631 459 
L 4091 459 
L 4091 -884 
L 3631 -884 
L 3631 0 
L 794 0 
L 794 -884 
L 334 -884 
L 334 459 
L 550 459 
z
" transform="scale(0.015625)"/>
       <path id="DejaVuSans-436" d="M 2597 3500 
L 3169 3500 
L 3169 1856 
L 4697 3500 
L 5366 3500 
L 4109 2153 
L 5547 0 
L 4931 0 
L 3753 1769 
L 3169 1141 
L 3169 0 
L 2597 0 
L 2597 1141 
L 2013 1769 
L 834 0 
L 219 0 
L 1656 2153 
L 400 3500 
L 1069 3500 
L 2597 1856 
L 2597 3500 
z
" transform="scale(0.015625)"/>
      </defs>
      <use xlink:href="#DejaVuSans-417"/>
      <use xlink:href="#DejaVuSans-430" x="64.111328"/>
      <use xlink:href="#DejaVuSans-434" x="125.390625"/>
      <use xlink:href="#DejaVuSans-435" x="194.53125"/>
      <use xlink:href="#DejaVuSans-440" x="256.054688"/>
      <use xlink:href="#DejaVuSans-436" x="319.53125"/>
      <use xlink:href="#DejaVuSans-43a" x="409.619141"/>
      <use xlink:href="#DejaVuSans-430" x="470.019531"/>
      <use xlink:href="#DejaVuSans-2c" x="531.298828"/>
      <use xlink:href="#DejaVuSans-20" x="563.085938"/>
      <use xlink:href="#DejaVuSans-441" x="594.873047"/>
      <use xlink:href="#DejaVuSans-435" x="649.853516"/>
      <use xlink:href="#DejaVuSans-43a" x="711.376953"/>
     </g>
    </g>
   </g>
   <g id="LineCollection_1">
    <path d="M 40.28125 398.604462 
L 40.28125 366.820678 
" clip-path="url(#p67a1db80c3)" style="fill: none; stroke: #1f77b4; stroke-width: 1.5"/>
    <path d="M 78.38365 395.715027 
L 78.38365 372.599548 
" clip-path="url(#p67a1db80c3)" style="fill: none; stroke: #1f77b4; stroke-width: 1.5"/>
    <path d="M 116.48605 413.051636 
L 116.48605 372.599548 
" clip-path="url(#p67a1db80c3)" style="fill: none; stroke: #1f77b4; stroke-width: 1.5"/>
    <path d="M 154.58845 389.936157 
L 154.58845 372.599548 
" clip-path="url(#p67a1db80c3)" style="fill: none; stroke: #1f77b4; stroke-width: 1.5"/>
    <path d="M 192.69085 392.825592 
L 192.69085 372.599548 
" clip-path="url(#p67a1db80c3)" style="fill: none; stroke: #1f77b4; stroke-width: 1.5"/>
    <path d="M 230.79325 395.715027 
L 230.79325 372.599548 
" clip-path="url(#p67a1db80c3)" style="fill: none; stroke: #1f77b4; stroke-width: 1.5"/>
    <path d="M 268.89565 387.046722 
L 268.89565 361.041808 
" clip-path="url(#p67a1db80c3)" style="fill: none; stroke: #1f77b4; stroke-width: 1.5"/>
    <path d="M 306.99805 387.046722 
L 306.99805 372.599548 
" clip-path="url(#p67a1db80c3)" style="fill: none; stroke: #1f77b4; stroke-width: 1.5"/>
    <path d="M 345.10045 413.051636 
L 345.10045 372.599548 
" clip-path="url(#p67a1db80c3)" style="fill: none; stroke: #1f77b4; stroke-width: 1.5"/>
    <path d="M 383.20285 387.046722 
L 383.20285 372.599548 
" clip-path="url(#p67a1db80c3)" style="fill: none; stroke: #1f77b4; stroke-width: 1.5"/>
   </g>
   <g id="LineCollection_2">
    <path d="M 40.28125 392.825592 
L 40.28125 375.488983 
" clip-path="url(#p67a1db80c3)" style="fill: none; stroke: #ff7f0e; stroke-width: 1.5"/>
    <path d="M 78.38365 392.825592 
L 78.38365 363.931243 
" clip-path="url(#p67a1db80c3)" style="fill: none; stroke: #ff7f0e; stroke-width: 1.5"/>
    <path d="M 116.48605 387.046722 
L 116.48605 363.931243 
" clip-path="url(#p67a1db80c3)" style="fill: none; stroke: #ff7f0e; stroke-width: 1.5"/>
    <path d="M 154.58845 384.157287 
L 154.58845 372.599548 
" clip-path="url(#p67a1db80c3)" style="fill: none; stroke: #ff7f0e; stroke-width: 1.5"/>
    <path d="M 192.69085 392.825592 
L 192.69085 363.931243 
" clip-path="url(#p67a1db80c3)" style="fill: none; stroke: #ff7f0e; stroke-width: 1.5"/>
    <path d="M 230.79325 384.157287 
L 230.79325 363.931243 
" clip-path="url(#p67a1db80c3)" style="fill: none; stroke: #ff7f0e; stroke-width: 1.5"/>
    <path d="M 268.89565 384.157287 
L 268.89565 366.820678 
" clip-path="url(#p67a1db80c3)" style="fill: none; stroke: #ff7f0e; stroke-width: 1.5"/>
    <path d="M 306.99805 384.157287 
L 306.99805 372.599548 
" clip-path="url(#p67a1db80c3)" style="fill: none; stroke: #ff7f0e; stroke-width: 1.5"/>
    <path d="M 345.10045 392.825592 
L 345.10045 375.488983 
" clip-path="url(#p67a1db80c3)" style="fill: none; stroke: #ff7f0e; stroke-width: 1.5"/>
    <path d="M 383.20285 384.157287 
L 383.20285 361.041808 
" clip-path="url(#p67a1db80c3)" style="fill: none; stroke: #ff7f0e; stroke-width: 1.5"/>
   </g>
   <g id="LineCollection_3">
    <path d="M 40.28125 363.931243 
L 40.28125 349.484069 
" clip-path="url(#p67a1db80c3)" style="fill: none; stroke: #2ca02c; stroke-width: 1.5"/>
    <path d="M 78.38365 363.931243 
L 78.38365 343.705199 
" clip-path="url(#p67a1db80c3)" style="fill: none; stroke: #2ca02c; stroke-width: 1.5"/>
    <path d="M 116.48605 369.710113 
L 116.48605 352.373504 
" clip-path="url(#p67a1db80c3)" style="fill: none; stroke: #2ca02c; stroke-width: 1.5"/>
    <path d="M 154.58845 363.931243 
L 154.58845 355.262939 
" clip-path="url(#p67a1db80c3)" style="fill: none; stroke: #2ca02c; stroke-width: 1.5"/>
    <path d="M 192.69085 363.931243 
L 192.69085 352.373504 
" clip-path="url(#p67a1db80c3)" style="fill: none; stroke: #2ca02c; stroke-width: 1.5"/>
    <path d="M 230.79325 366.820678 
L 230.79325 363.931243 
" clip-path="url(#p67a1db80c3)" style="fill: none; stroke: #2ca02c; stroke-width: 1.5"/>
    <path d="M 268.89565 366.820678 
L 268.89565 358.152373 
" clip-path="url(#p67a1db80c3)" style="fill: none; stroke: #2ca02c; stroke-width: 1.5"/>
    <path d="M 306.99805 369.710113 
L 306.99805 340.815764 
" clip-path="url(#p67a1db80c3)" style="fill: none; stroke: #2ca02c; stroke-width: 1.5"/>
    <path d="M 345.10045 363.931243 
L 345.10045 349.484069 
" clip-path="url(#p67a1db80c3)" style="fill: none; stroke: #2ca02c; stroke-width: 1.5"/>
    <path d="M 383.20285 363.931243 
L 383.20285 343.705199 
" clip-path="url(#p67a1db80c3)" style="fill: none; stroke: #2ca02c; stroke-width: 1.5"/>
   </g>
   <g id="LineCollection_4">
    <path d="M 40.28125 132.776452 
L 40.28125 115.439843 
" clip-path="url(#p67a1db80c3)" style="fill: none; stroke: #d62728; stroke-width: 1.5"/>
    <path d="M 78.38365 132.776452 
L 78.38365 124.108147 
" clip-path="url(#p67a1db80c3)" style="fill: none; stroke: #d62728; stroke-width: 1.5"/>
    <path d="M 116.48605 135.665887 
L 116.48605 92.324364 
" clip-path="url(#p67a1db80c3)" style="fill: none; stroke: #d62728; stroke-width: 1.5"/>
    <path d="M 154.58845 161.670801 
L 154.58845 124.108147 
" clip-path="url(#p67a1db80c3)" style="fill: none; stroke: #d62728; stroke-width: 1.5"/>
    <path d="M 192.69085 153.002496 
L 192.69085 121.218713 
" clip-path="url(#p67a1db80c3)" style="fill: none; stroke: #d62728; stroke-width: 1.5"/>
    <path d="M 230.79325 132.776452 
L 230.79325 118.329278 
" clip-path="url(#p67a1db80c3)" style="fill: none; stroke: #d62728; stroke-width: 1.5"/>
    <path d="M 268.89565 132.776452 
L 268.89565 118.329278 
" clip-path="url(#p67a1db80c3)" style="fill: none; stroke: #d62728; stroke-width: 1.5"/>
    <path d="M 306.99805 135.665887 
L 306.99805 92.324364 
" clip-path="url(#p67a1db80c3)" style="fill: none; stroke: #d62728; stroke-width: 1.5"/>
    <path d="M 345.10045 141.444757 
L 345.10045 124.108147 
" clip-path="url(#p67a1db80c3)" style="fill: none; stroke: #d62728; stroke-width: 1.5"/>
    <path d="M 383.20285 132.776452 
L 383.20285 124.108147 
" clip-path="url(#p67a1db80c3)" style="fill: none; stroke: #d62728; stroke-width: 1.5"/>
   </g>
   <g id="line2d_27">
    <path d="M 40.28125 382.71257 
L 78.38365 384.157287 
L 116.48605 392.825592 
L 154.58845 381.267853 
L 192.69085 382.71257 
L 230.79325 384.157287 
L 268.89565 374.044265 
L 306.99805 379.823135 
L 345.10045 392.825592 
L 383.20285 379.823135 
" clip-path="url(#p67a1db80c3)" style="fill: none; stroke-dasharray: 5.55,2.4; stroke-dashoffset: 0; stroke: #1f77b4; stroke-width: 1.5"/>
    <defs>
     <path id="m0ecf0d02f2" d="M 3 0 
L -3 -0 
" style="stroke: #1f77b4"/>
    </defs>
    <g clip-path="url(#p67a1db80c3)">
     <use xlink:href="#m0ecf0d02f2" x="40.28125" y="382.71257" style="fill: #1f77b4; stroke: #1f77b4"/>
     <use xlink:href="#m0ecf0d02f2" x="78.38365" y="384.157287" style="fill: #1f77b4; stroke: #1f77b4"/>
     <use xlink:href="#m0ecf0d02f2" x="116.48605" y="392.825592" style="fill: #1f77b4; stroke: #1f77b4"/>
     <use xlink:href="#m0ecf0d02f2" x="154.58845" y="381.267853" style="fill: #1f77b4; stroke: #1f77b4"/>
     <use xlink:href="#m0ecf0d02f2" x="192.69085" y="382.71257" style="fill: #1f77b4; stroke: #1f77b4"/>
     <use xlink:href="#m0ecf0d02f2" x="230.79325" y="384.157287" style="fill: #1f77b4; stroke: #1f77b4"/>
     <use xlink:href="#m0ecf0d02f2" x="268.89565" y="374.044265" style="fill: #1f77b4; stroke: #1f77b4"/>
     <use xlink:href="#m0ecf0d02f2" x="306.99805" y="379.823135" style="fill: #1f77b4; stroke: #1f77b4"/>
     <use xlink:href="#m0ecf0d02f2" x="345.10045" y="392.825592" style="fill: #1f77b4; stroke: #1f77b4"/>
     <use xlink:href="#m0ecf0d02f2" x="383.20285" y="379.823135" style="fill: #1f77b4; stroke: #1f77b4"/>
    </g>
   </g>
   <g id="line2d_28">
    <path d="M 40.28125 384.157287 
L 78.38365 378.378418 
L 116.48605 375.488983 
L 154.58845 378.378418 
L 192.69085 378.378418 
L 230.79325 374.044265 
L 268.89565 375.488983 
L 306.99805 378.378418 
L 345.10045 384.157287 
L 383.20285 372.599548 
" clip-path="url(#p67a1db80c3)" style="fill: none; stroke-dasharray: 5.55,2.4; stroke-dashoffset: 0; stroke: #ff7f0e; stroke-width: 1.5"/>
    <defs>
     <path id="m4bc855ffb0" d="M 3 0 
L -3 -0 
" style="stroke: #ff7f0e"/>
    </defs>
    <g clip-path="url(#p67a1db80c3)">
     <use xlink:href="#m4bc855ffb0" x="40.28125" y="384.157287" style="fill: #ff7f0e; stroke: #ff7f0e"/>
     <use xlink:href="#m4bc855ffb0" x="78.38365" y="378.378418" style="fill: #ff7f0e; stroke: #ff7f0e"/>
     <use xlink:href="#m4bc855ffb0" x="116.48605" y="375.488983" style="fill: #ff7f0e; stroke: #ff7f0e"/>
     <use xlink:href="#m4bc855ffb0" x="154.58845" y="378.378418" style="fill: #ff7f0e; stroke: #ff7f0e"/>
     <use xlink:href="#m4bc855ffb0" x="192.69085" y="378.378418" style="fill: #ff7f0e; stroke: #ff7f0e"/>
     <use xlink:href="#m4bc855ffb0" x="230.79325" y="374.044265" style="fill: #ff7f0e; stroke: #ff7f0e"/>
     <use xlink:href="#m4bc855ffb0" x="268.89565" y="375.488983" style="fill: #ff7f0e; stroke: #ff7f0e"/>
     <use xlink:href="#m4bc855ffb0" x="306.99805" y="378.378418" style="fill: #ff7f0e; stroke: #ff7f0e"/>
     <use xlink:href="#m4bc855ffb0" x="345.10045" y="384.157287" style="fill: #ff7f0e; stroke: #ff7f0e"/>
     <use xlink:href="#m4bc855ffb0" x="383.20285" y="372.599548" style="fill: #ff7f0e; stroke: #ff7f0e"/>
    </g>
   </g>
   <g id="line2d_29">
    <path d="M 40.28125 356.707656 
L 78.38365 353.818221 
L 116.48605 361.041808 
L 154.58845 359.597091 
L 192.69085 358.152373 
L 230.79325 365.375961 
L 268.89565 362.486526 
L 306.99805 355.262939 
L 345.10045 356.707656 
L 383.20285 353.818221 
" clip-path="url(#p67a1db80c3)" style="fill: none; stroke-dasharray: 5.55,2.4; stroke-dashoffset: 0; stroke: #2ca02c; stroke-width: 1.5"/>
    <defs>
     <path id="mf0dc6bf057" d="M 3 0 
L -3 -0 
" style="stroke: #2ca02c"/>
    </defs>
    <g clip-path="url(#p67a1db80c3)">
     <use xlink:href="#mf0dc6bf057" x="40.28125" y="356.707656" style="fill: #2ca02c; stroke: #2ca02c"/>
     <use xlink:href="#mf0dc6bf057" x="78.38365" y="353.818221" style="fill: #2ca02c; stroke: #2ca02c"/>
     <use xlink:href="#mf0dc6bf057" x="116.48605" y="361.041808" style="fill: #2ca02c; stroke: #2ca02c"/>
     <use xlink:href="#mf0dc6bf057" x="154.58845" y="359.597091" style="fill: #2ca02c; stroke: #2ca02c"/>
     <use xlink:href="#mf0dc6bf057" x="192.69085" y="358.152373" style="fill: #2ca02c; stroke: #2ca02c"/>
     <use xlink:href="#mf0dc6bf057" x="230.79325" y="365.375961" style="fill: #2ca02c; stroke: #2ca02c"/>
     <use xlink:href="#mf0dc6bf057" x="268.89565" y="362.486526" style="fill: #2ca02c; stroke: #2ca02c"/>
     <use xlink:href="#mf0dc6bf057" x="306.99805" y="355.262939" style="fill: #2ca02c; stroke: #2ca02c"/>
     <use xlink:href="#mf0dc6bf057" x="345.10045" y="356.707656" style="fill: #2ca02c; stroke: #2ca02c"/>
     <use xlink:href="#mf0dc6bf057" x="383.20285" y="353.818221" style="fill: #2ca02c; stroke: #2ca02c"/>
    </g>
   </g>
   <g id="line2d_30">
    <path d="M 40.28125 124.108147 
L 78.38365 128.4423 
L 116.48605 113.995125 
L 154.58845 142.889474 
L 192.69085 137.110604 
L 230.79325 125.552865 
L 268.89565 125.552865 
L 306.99805 113.995125 
L 345.10045 132.776452 
L 383.20285 128.4423 
" clip-path="url(#p67a1db80c3)" style="fill: none; stroke-dasharray: 5.55,2.4; stroke-dashoffset: 0; stroke: #d62728; stroke-width: 1.5"/>
    <defs>
     <path id="mcf2fa49194" d="M 3 0 
L -3 -0 
" style="stroke: #d62728"/>
    </defs>
    <g clip-path="url(#p67a1db80c3)">
     <use xlink:href="#mcf2fa49194" x="40.28125" y="124.108147" style="fill: #d62728; stroke: #d62728"/>
     <use xlink:href="#mcf2fa49194" x="78.38365" y="128.4423" style="fill: #d62728; stroke: #d62728"/>
     <use xlink:href="#mcf2fa49194" x="116.48605" y="113.995125" style="fill: #d62728; stroke: #d62728"/>
     <use xlink:href="#mcf2fa49194" x="154.58845" y="142.889474" style="fill: #d62728; stroke: #d62728"/>
     <use xlink:href="#mcf2fa49194" x="192.69085" y="137.110604" style="fill: #d62728; stroke: #d62728"/>
     <use xlink:href="#mcf2fa49194" x="230.79325" y="125.552865" style="fill: #d62728; stroke: #d62728"/>
     <use xlink:href="#mcf2fa49194" x="268.89565" y="125.552865" style="fill: #d62728; stroke: #d62728"/>
     <use xlink:href="#mcf2fa49194" x="306.99805" y="113.995125" style="fill: #d62728; stroke: #d62728"/>
     <use xlink:href="#mcf2fa49194" x="345.10045" y="132.776452" style="fill: #d62728; stroke: #d62728"/>
     <use xlink:href="#mcf2fa49194" x="383.20285" y="128.4423" style="fill: #d62728; stroke: #d62728"/>
    </g>
   </g>
   <g id="patch_3">
    <path d="M 40.28125 429.088 
L 40.28125 76.288 
" style="fill: none; stroke: #000000; stroke-width: 0.8; stroke-linejoin: miter; stroke-linecap: square"/>
   </g>
   <g id="patch_4">
    <path d="M 393.08125 429.088 
L 393.08125 76.288 
" style="fill: none; stroke: #000000; stroke-width: 0.8; stroke-linejoin: miter; stroke-linecap: square"/>
   </g>
   <g id="patch_5">
    <path d="M 40.28125 429.088 
L 393.08125 429.088 
" style="fill: none; stroke: #000000; stroke-width: 0.8; stroke-linejoin: miter; stroke-linecap: square"/>
   </g>
   <g id="patch_6">
    <path d="M 40.28125 76.288 
L 393.08125 76.288 
" style="fill: none; stroke: #000000; stroke-width: 0.8; stroke-linejoin: miter; stroke-linecap: square"/>
   </g>
   <g id="legend_1">
    <g id="patch_7">
     <path d="M 96.66875 68.9125 
L 336.69375 68.9125 
Q 338.69375 68.9125 338.69375 66.9125 
L 338.69375 9.2 
Q 338.69375 7.2 336.69375 7.2 
L 96.66875 7.2 
Q 94.66875 7.2 94.66875 9.2 
L 94.66875 66.9125 
Q 94.66875 68.9125 96.66875 68.9125 
z
" style="fill: #ffffff; opacity: 0.8; stroke: #cccccc; stroke-linejoin: miter"/>
    </g>
    <g id="LineCollection_5">
     <path d="M 108.66875 20.298437 
L 108.66875 10.298437 
" style="fill: none; stroke: #1f77b4; stroke-width: 1.5"/>
    </g>
    <g id="line2d_31">
     <path d="M 98.66875 15.298437 
L 118.66875 15.298437 
" style="fill: none; stroke-dasharray: 5.55,2.4; stroke-dashoffset: 0; stroke: #1f77b4; stroke-width: 1.5"/>
    </g>
    <g id="line2d_32">
     <g>
      <use xlink:href="#m0ecf0d02f2" x="108.66875" y="15.298437" style="fill: #1f77b4; stroke: #1f77b4"/>
     </g>
    </g>
    <g id="text_16">
     <!-- network−caching=0 -->
     <g transform="translate(126.66875 18.798437)scale(0.1 -0.1)">
      <defs>
       <path id="DejaVuSans-6e" d="M 3513 2113 
L 3513 0 
L 2938 0 
L 2938 2094 
Q 2938 2591 2744 2837 
Q 2550 3084 2163 3084 
Q 1697 3084 1428 2787 
Q 1159 2491 1159 1978 
L 1159 0 
L 581 0 
L 581 3500 
L 1159 3500 
L 1159 2956 
Q 1366 3272 1645 3428 
Q 1925 3584 2291 3584 
Q 2894 3584 3203 3211 
Q 3513 2838 3513 2113 
z
" transform="scale(0.015625)"/>
       <path id="DejaVuSans-65" d="M 3597 1894 
L 3597 1613 
L 953 1613 
Q 991 1019 1311 708 
Q 1631 397 2203 397 
Q 2534 397 2845 478 
Q 3156 559 3463 722 
L 3463 178 
Q 3153 47 2828 -22 
Q 2503 -91 2169 -91 
Q 1331 -91 842 396 
Q 353 884 353 1716 
Q 353 2575 817 3079 
Q 1281 3584 2069 3584 
Q 2775 3584 3186 3129 
Q 3597 2675 3597 1894 
z
M 3022 2063 
Q 3016 2534 2758 2815 
Q 2500 3097 2075 3097 
Q 1594 3097 1305 2825 
Q 1016 2553 972 2059 
L 3022 2063 
z
" transform="scale(0.015625)"/>
       <path id="DejaVuSans-74" d="M 1172 4494 
L 1172 3500 
L 2356 3500 
L 2356 3053 
L 1172 3053 
L 1172 1153 
Q 1172 725 1289 603 
Q 1406 481 1766 481 
L 2356 481 
L 2356 0 
L 1766 0 
Q 1100 0 847 248 
Q 594 497 594 1153 
L 594 3053 
L 172 3053 
L 172 3500 
L 594 3500 
L 594 4494 
L 1172 4494 
z
" transform="scale(0.015625)"/>
       <path id="DejaVuSans-77" d="M 269 3500 
L 844 3500 
L 1563 769 
L 2278 3500 
L 2956 3500 
L 3675 769 
L 4391 3500 
L 4966 3500 
L 4050 0 
L 3372 0 
L 2619 2869 
L 1863 0 
L 1184 0 
L 269 3500 
z
" transform="scale(0.015625)"/>
       <path id="DejaVuSans-6f" d="M 1959 3097 
Q 1497 3097 1228 2736 
Q 959 2375 959 1747 
Q 959 1119 1226 758 
Q 1494 397 1959 397 
Q 2419 397 2687 759 
Q 2956 1122 2956 1747 
Q 2956 2369 2687 2733 
Q 2419 3097 1959 3097 
z
M 1959 3584 
Q 2709 3584 3137 3096 
Q 3566 2609 3566 1747 
Q 3566 888 3137 398 
Q 2709 -91 1959 -91 
Q 1206 -91 779 398 
Q 353 888 353 1747 
Q 353 2609 779 3096 
Q 1206 3584 1959 3584 
z
" transform="scale(0.015625)"/>
       <path id="DejaVuSans-72" d="M 2631 2963 
Q 2534 3019 2420 3045 
Q 2306 3072 2169 3072 
Q 1681 3072 1420 2755 
Q 1159 2438 1159 1844 
L 1159 0 
L 581 0 
L 581 3500 
L 1159 3500 
L 1159 2956 
Q 1341 3275 1631 3429 
Q 1922 3584 2338 3584 
Q 2397 3584 2469 3576 
Q 2541 3569 2628 3553 
L 2631 2963 
z
" transform="scale(0.015625)"/>
       <path id="DejaVuSans-6b" d="M 581 4863 
L 1159 4863 
L 1159 1991 
L 2875 3500 
L 3609 3500 
L 1753 1863 
L 3688 0 
L 2938 0 
L 1159 1709 
L 1159 0 
L 581 0 
L 581 4863 
z
" transform="scale(0.015625)"/>
       <path id="DejaVuSans-2212" d="M 678 2272 
L 4684 2272 
L 4684 1741 
L 678 1741 
L 678 2272 
z
" transform="scale(0.015625)"/>
       <path id="DejaVuSans-63" d="M 3122 3366 
L 3122 2828 
Q 2878 2963 2633 3030 
Q 2388 3097 2138 3097 
Q 1578 3097 1268 2742 
Q 959 2388 959 1747 
Q 959 1106 1268 751 
Q 1578 397 2138 397 
Q 2388 397 2633 464 
Q 2878 531 3122 666 
L 3122 134 
Q 2881 22 2623 -34 
Q 2366 -91 2075 -91 
Q 1284 -91 818 406 
Q 353 903 353 1747 
Q 353 2603 823 3093 
Q 1294 3584 2113 3584 
Q 2378 3584 2631 3529 
Q 2884 3475 3122 3366 
z
" transform="scale(0.015625)"/>
       <path id="DejaVuSans-61" d="M 2194 1759 
Q 1497 1759 1228 1600 
Q 959 1441 959 1056 
Q 959 750 1161 570 
Q 1363 391 1709 391 
Q 2188 391 2477 730 
Q 2766 1069 2766 1631 
L 2766 1759 
L 2194 1759 
z
M 3341 1997 
L 3341 0 
L 2766 0 
L 2766 531 
Q 2569 213 2275 61 
Q 1981 -91 1556 -91 
Q 1019 -91 701 211 
Q 384 513 384 1019 
Q 384 1609 779 1909 
Q 1175 2209 1959 2209 
L 2766 2209 
L 2766 2266 
Q 2766 2663 2505 2880 
Q 2244 3097 1772 3097 
Q 1472 3097 1187 3025 
Q 903 2953 641 2809 
L 641 3341 
Q 956 3463 1253 3523 
Q 1550 3584 1831 3584 
Q 2591 3584 2966 3190 
Q 3341 2797 3341 1997 
z
" transform="scale(0.015625)"/>
       <path id="DejaVuSans-68" d="M 3513 2113 
L 3513 0 
L 2938 0 
L 2938 2094 
Q 2938 2591 2744 2837 
Q 2550 3084 2163 3084 
Q 1697 3084 1428 2787 
Q 1159 2491 1159 1978 
L 1159 0 
L 581 0 
L 581 4863 
L 1159 4863 
L 1159 2956 
Q 1366 3272 1645 3428 
Q 1925 3584 2291 3584 
Q 2894 3584 3203 3211 
Q 3513 2838 3513 2113 
z
" transform="scale(0.015625)"/>
       <path id="DejaVuSans-69" d="M 603 3500 
L 1178 3500 
L 1178 0 
L 603 0 
L 603 3500 
z
M 603 4863 
L 1178 4863 
L 1178 4134 
L 603 4134 
L 603 4863 
z
" transform="scale(0.015625)"/>
       <path id="DejaVuSans-67" d="M 2906 1791 
Q 2906 2416 2648 2759 
Q 2391 3103 1925 3103 
Q 1463 3103 1205 2759 
Q 947 2416 947 1791 
Q 947 1169 1205 825 
Q 1463 481 1925 481 
Q 2391 481 2648 825 
Q 2906 1169 2906 1791 
z
M 3481 434 
Q 3481 -459 3084 -895 
Q 2688 -1331 1869 -1331 
Q 1566 -1331 1297 -1286 
Q 1028 -1241 775 -1147 
L 775 -588 
Q 1028 -725 1275 -790 
Q 1522 -856 1778 -856 
Q 2344 -856 2625 -561 
Q 2906 -266 2906 331 
L 2906 616 
Q 2728 306 2450 153 
Q 2172 0 1784 0 
Q 1141 0 747 490 
Q 353 981 353 1791 
Q 353 2603 747 3093 
Q 1141 3584 1784 3584 
Q 2172 3584 2450 3431 
Q 2728 3278 2906 2969 
L 2906 3500 
L 3481 3500 
L 3481 434 
z
" transform="scale(0.015625)"/>
       <path id="DejaVuSans-3d" d="M 678 2906 
L 4684 2906 
L 4684 2381 
L 678 2381 
L 678 2906 
z
M 678 1631 
L 4684 1631 
L 4684 1100 
L 678 1100 
L 678 1631 
z
" transform="scale(0.015625)"/>
      </defs>
      <use xlink:href="#DejaVuSans-6e"/>
      <use xlink:href="#DejaVuSans-65" x="63.378906"/>
      <use xlink:href="#DejaVuSans-74" x="124.902344"/>
      <use xlink:href="#DejaVuSans-77" x="164.111328"/>
      <use xlink:href="#DejaVuSans-6f" x="245.898438"/>
      <use xlink:href="#DejaVuSans-72" x="307.080078"/>
      <use xlink:href="#DejaVuSans-6b" x="348.193359"/>
      <use xlink:href="#DejaVuSans-2212" x="406.103516"/>
      <use xlink:href="#DejaVuSans-63" x="489.892578"/>
      <use xlink:href="#DejaVuSans-61" x="544.873047"/>
      <use xlink:href="#DejaVuSans-63" x="606.152344"/>
      <use xlink:href="#DejaVuSans-68" x="661.132812"/>
      <use xlink:href="#DejaVuSans-69" x="724.511719"/>
      <use xlink:href="#DejaVuSans-6e" x="752.294922"/>
      <use xlink:href="#DejaVuSans-67" x="815.673828"/>
      <use xlink:href="#DejaVuSans-3d" x="879.150391"/>
      <use xlink:href="#DejaVuSans-30" x="962.939453"/>
     </g>
    </g>
    <g id="LineCollection_6">
     <path d="M 108.66875 34.976562 
L 108.66875 24.976562 
" style="fill: none; stroke: #ff7f0e; stroke-width: 1.5"/>
    </g>
    <g id="line2d_33">
     <path d="M 98.66875 29.976562 
L 118.66875 29.976562 
" style="fill: none; stroke-dasharray: 5.55,2.4; stroke-dashoffset: 0; stroke: #ff7f0e; stroke-width: 1.5"/>
    </g>
    <g id="line2d_34">
     <g>
      <use xlink:href="#m4bc855ffb0" x="108.66875" y="29.976562" style="fill: #ff7f0e; stroke: #ff7f0e"/>
     </g>
    </g>
    <g id="text_17">
     <!-- network−caching=100 -->
     <g transform="translate(126.66875 33.476562)scale(0.1 -0.1)">
      <use xlink:href="#DejaVuSans-6e"/>
      <use xlink:href="#DejaVuSans-65" x="63.378906"/>
      <use xlink:href="#DejaVuSans-74" x="124.902344"/>
      <use xlink:href="#DejaVuSans-77" x="164.111328"/>
      <use xlink:href="#DejaVuSans-6f" x="245.898438"/>
      <use xlink:href="#DejaVuSans-72" x="307.080078"/>
      <use xlink:href="#DejaVuSans-6b" x="348.193359"/>
      <use xlink:href="#DejaVuSans-2212" x="406.103516"/>
      <use xlink:href="#DejaVuSans-63" x="489.892578"/>
      <use xlink:href="#DejaVuSans-61" x="544.873047"/>
      <use xlink:href="#DejaVuSans-63" x="606.152344"/>
      <use xlink:href="#DejaVuSans-68" x="661.132812"/>
      <use xlink:href="#DejaVuSans-69" x="724.511719"/>
      <use xlink:href="#DejaVuSans-6e" x="752.294922"/>
      <use xlink:href="#DejaVuSans-67" x="815.673828"/>
      <use xlink:href="#DejaVuSans-3d" x="879.150391"/>
      <use xlink:href="#DejaVuSans-31" x="962.939453"/>
      <use xlink:href="#DejaVuSans-30" x="1026.5625"/>
      <use xlink:href="#DejaVuSans-30" x="1090.185547"/>
     </g>
    </g>
    <g id="LineCollection_7">
     <path d="M 108.66875 49.654687 
L 108.66875 39.654687 
" style="fill: none; stroke: #2ca02c; stroke-width: 1.5"/>
    </g>
    <g id="line2d_35">
     <path d="M 98.66875 44.654687 
L 118.66875 44.654687 
" style="fill: none; stroke-dasharray: 5.55,2.4; stroke-dashoffset: 0; stroke: #2ca02c; stroke-width: 1.5"/>
    </g>
    <g id="line2d_36">
     <g>
      <use xlink:href="#mf0dc6bf057" x="108.66875" y="44.654687" style="fill: #2ca02c; stroke: #2ca02c"/>
     </g>
    </g>
    <g id="text_18">
     <!-- network−caching=200 -->
     <g transform="translate(126.66875 48.154687)scale(0.1 -0.1)">
      <use xlink:href="#DejaVuSans-6e"/>
      <use xlink:href="#DejaVuSans-65" x="63.378906"/>
      <use xlink:href="#DejaVuSans-74" x="124.902344"/>
      <use xlink:href="#DejaVuSans-77" x="164.111328"/>
      <use xlink:href="#DejaVuSans-6f" x="245.898438"/>
      <use xlink:href="#DejaVuSans-72" x="307.080078"/>
      <use xlink:href="#DejaVuSans-6b" x="348.193359"/>
      <use xlink:href="#DejaVuSans-2212" x="406.103516"/>
      <use xlink:href="#DejaVuSans-63" x="489.892578"/>
      <use xlink:href="#DejaVuSans-61" x="544.873047"/>
      <use xlink:href="#DejaVuSans-63" x="606.152344"/>
      <use xlink:href="#DejaVuSans-68" x="661.132812"/>
      <use xlink:href="#DejaVuSans-69" x="724.511719"/>
      <use xlink:href="#DejaVuSans-6e" x="752.294922"/>
      <use xlink:href="#DejaVuSans-67" x="815.673828"/>
      <use xlink:href="#DejaVuSans-3d" x="879.150391"/>
      <use xlink:href="#DejaVuSans-32" x="962.939453"/>
      <use xlink:href="#DejaVuSans-30" x="1026.5625"/>
      <use xlink:href="#DejaVuSans-30" x="1090.185547"/>
     </g>
    </g>
    <g id="LineCollection_8">
     <path d="M 108.66875 64.332812 
L 108.66875 54.332812 
" style="fill: none; stroke: #d62728; stroke-width: 1.5"/>
    </g>
    <g id="line2d_37">
     <path d="M 98.66875 59.332812 
L 118.66875 59.332812 
" style="fill: none; stroke-dasharray: 5.55,2.4; stroke-dashoffset: 0; stroke: #d62728; stroke-width: 1.5"/>
    </g>
    <g id="line2d_38">
     <g>
      <use xlink:href="#mcf2fa49194" x="108.66875" y="59.332812" style="fill: #d62728; stroke: #d62728"/>
     </g>
    </g>
    <g id="text_19">
     <!-- network−caching=1000 (по умолчанию) -->
     <g transform="translate(126.66875 62.832812)scale(0.1 -0.1)">
      <defs>
       <path id="DejaVuSans-28" d="M 1984 4856 
Q 1566 4138 1362 3434 
Q 1159 2731 1159 2009 
Q 1159 1288 1364 580 
Q 1569 -128 1984 -844 
L 1484 -844 
Q 1016 -109 783 600 
Q 550 1309 550 2009 
Q 550 2706 781 3412 
Q 1013 4119 1484 4856 
L 1984 4856 
z
" transform="scale(0.015625)"/>
       <path id="DejaVuSans-43f" d="M 3603 3500 
L 3603 0 
L 3025 0 
L 3025 3041 
L 1159 3041 
L 1159 0 
L 581 0 
L 581 3500 
L 3603 3500 
z
" transform="scale(0.015625)"/>
       <path id="DejaVuSans-43e" d="M 1959 3097 
Q 1497 3097 1228 2736 
Q 959 2375 959 1747 
Q 959 1119 1226 758 
Q 1494 397 1959 397 
Q 2419 397 2687 759 
Q 2956 1122 2956 1747 
Q 2956 2369 2687 2733 
Q 2419 3097 1959 3097 
z
M 1959 3584 
Q 2709 3584 3137 3096 
Q 3566 2609 3566 1747 
Q 3566 888 3137 398 
Q 2709 -91 1959 -91 
Q 1206 -91 779 398 
Q 353 888 353 1747 
Q 353 2609 779 3096 
Q 1206 3584 1959 3584 
z
" transform="scale(0.015625)"/>
       <path id="DejaVuSans-443" d="M 2059 -325 
Q 1816 -950 1584 -1140 
Q 1353 -1331 966 -1331 
L 506 -1331 
L 506 -850 
L 844 -850 
Q 1081 -850 1212 -737 
Q 1344 -625 1503 -206 
L 1606 56 
L 191 3500 
L 800 3500 
L 1894 763 
L 2988 3500 
L 3597 3500 
L 2059 -325 
z
" transform="scale(0.015625)"/>
       <path id="DejaVuSans-43b" d="M 238 0 
L 238 478 
Q 806 566 981 959 
Q 1194 1513 1194 2928 
L 1194 3500 
L 3559 3500 
L 3559 0 
L 2984 0 
L 2984 3041 
L 1769 3041 
L 1769 2694 
Q 1769 1344 1494 738 
Q 1200 91 238 0 
z
" transform="scale(0.015625)"/>
       <path id="DejaVuSans-447" d="M 2625 0 
L 2625 1472 
L 1553 1472 
Q 1075 1472 756 1769 
Q 469 2038 469 2613 
L 469 3500 
L 1044 3500 
L 1044 2666 
Q 1044 2300 1206 2116 
Q 1372 1931 1697 1931 
L 2625 1931 
L 2625 3500 
L 3200 3500 
L 3200 0 
L 2625 0 
z
" transform="scale(0.015625)"/>
       <path id="DejaVuSans-43d" d="M 581 3500 
L 1159 3500 
L 1159 2072 
L 3025 2072 
L 3025 3500 
L 3603 3500 
L 3603 0 
L 3025 0 
L 3025 1613 
L 1159 1613 
L 1159 0 
L 581 0 
L 581 3500 
z
" transform="scale(0.015625)"/>
       <path id="DejaVuSans-438" d="M 3578 3500 
L 3578 0 
L 3006 0 
L 3006 2809 
L 1319 0 
L 581 0 
L 581 3500 
L 1153 3500 
L 1153 697 
L 2838 3500 
L 3578 3500 
z
" transform="scale(0.015625)"/>
       <path id="DejaVuSans-44e" d="M 3431 3097 
Q 2969 3097 2700 2736 
Q 2431 2375 2431 1747 
Q 2431 1119 2698 758 
Q 2966 397 3431 397 
Q 3891 397 4159 759 
Q 4428 1122 4428 1747 
Q 4428 2369 4159 2733 
Q 3891 3097 3431 3097 
z
M 1844 2103 
Q 1903 2697 2292 3140 
Q 2681 3584 3431 3584 
Q 4181 3584 4609 3096 
Q 5038 2609 5038 1747 
Q 5038 888 4609 398 
Q 4181 -91 3431 -91 
Q 2678 -91 2267 381 
Q 1856 853 1828 1628 
L 1178 1628 
L 1178 0 
L 603 0 
L 603 3500 
L 1178 3500 
L 1178 2103 
L 1844 2103 
z
" transform="scale(0.015625)"/>
       <path id="DejaVuSans-29" d="M 513 4856 
L 1013 4856 
Q 1481 4119 1714 3412 
Q 1947 2706 1947 2009 
Q 1947 1309 1714 600 
Q 1481 -109 1013 -844 
L 513 -844 
Q 928 -128 1133 580 
Q 1338 1288 1338 2009 
Q 1338 2731 1133 3434 
Q 928 4138 513 4856 
z
" transform="scale(0.015625)"/>
      </defs>
      <use xlink:href="#DejaVuSans-6e"/>
      <use xlink:href="#DejaVuSans-65" x="63.378906"/>
      <use xlink:href="#DejaVuSans-74" x="124.902344"/>
      <use xlink:href="#DejaVuSans-77" x="164.111328"/>
      <use xlink:href="#DejaVuSans-6f" x="245.898438"/>
      <use xlink:href="#DejaVuSans-72" x="307.080078"/>
      <use xlink:href="#DejaVuSans-6b" x="348.193359"/>
      <use xlink:href="#DejaVuSans-2212" x="406.103516"/>
      <use xlink:href="#DejaVuSans-63" x="489.892578"/>
      <use xlink:href="#DejaVuSans-61" x="544.873047"/>
      <use xlink:href="#DejaVuSans-63" x="606.152344"/>
      <use xlink:href="#DejaVuSans-68" x="661.132812"/>
      <use xlink:href="#DejaVuSans-69" x="724.511719"/>
      <use xlink:href="#DejaVuSans-6e" x="752.294922"/>
      <use xlink:href="#DejaVuSans-67" x="815.673828"/>
      <use xlink:href="#DejaVuSans-3d" x="879.150391"/>
      <use xlink:href="#DejaVuSans-31" x="962.939453"/>
      <use xlink:href="#DejaVuSans-30" x="1026.5625"/>
      <use xlink:href="#DejaVuSans-30" x="1090.185547"/>
      <use xlink:href="#DejaVuSans-30" x="1153.808594"/>
      <use xlink:href="#DejaVuSans-20" x="1217.431641"/>
      <use xlink:href="#DejaVuSans-28" x="1249.21875"/>
      <use xlink:href="#DejaVuSans-43f" x="1288.232422"/>
      <use xlink:href="#DejaVuSans-43e" x="1353.613281"/>
      <use xlink:href="#DejaVuSans-20" x="1414.794922"/>
      <use xlink:href="#DejaVuSans-443" x="1446.582031"/>
      <use xlink:href="#DejaVuSans-43c" x="1505.761719"/>
      <use xlink:href="#DejaVuSans-43e" x="1581.201172"/>
      <use xlink:href="#DejaVuSans-43b" x="1642.382812"/>
      <use xlink:href="#DejaVuSans-447" x="1706.298828"/>
      <use xlink:href="#DejaVuSans-430" x="1765.380859"/>
      <use xlink:href="#DejaVuSans-43d" x="1826.660156"/>
      <use xlink:href="#DejaVuSans-438" x="1892.041016"/>
      <use xlink:href="#DejaVuSans-44e" x="1957.03125"/>
      <use xlink:href="#DejaVuSans-29" x="2041.210938"/>
     </g>
    </g>
   </g>
  </g>
 </g>
 <defs>
  <clipPath id="p67a1db80c3">
   <rect x="40.28125" y="76.288" width="352.8" height="352.8"/>
  </clipPath>
 </defs>
</svg>
