<?xml version="1.0" encoding="utf-8" standalone="no"?>
<!DOCTYPE svg PUBLIC "-//W3C//DTD SVG 1.1//EN"
  "http://www.w3.org/Graphics/SVG/1.1/DTD/svg11.dtd">
<svg xmlns:xlink="http://www.w3.org/1999/xlink" width="406.64375pt" height="449.03225pt" viewBox="0 0 406.64375 449.03225" xmlns="http://www.w3.org/2000/svg" version="1.1">
 <metadata>
  <rdf:RDF xmlns:dc="http://purl.org/dc/elements/1.1/" xmlns:cc="http://creativecommons.org/ns#" xmlns:rdf="http://www.w3.org/1999/02/22-rdf-syntax-ns#">
   <cc:Work>
    <dc:type rdf:resource="http://purl.org/dc/dcmitype/StillImage"/>
    <dc:date>2022-05-27T10:27:51.139208</dc:date>
    <dc:format>image/svg+xml</dc:format>
    <dc:creator>
     <cc:Agent>
      <dc:title>Matplotlib v3.5.2, https://matplotlib.org/</dc:title>
     </cc:Agent>
    </dc:creator>
   </cc:Work>
  </rdf:RDF>
 </metadata>
 <defs>
  <style type="text/css">*{stroke-linejoin: round; stroke-linecap: butt}</style>
 </defs>
 <g id="figure_1">
  <g id="patch_1">
   <path d="M 0 449.03225 
L 406.64375 449.03225 
L 406.64375 0 
L 0 0 
L 0 449.03225 
z
" style="fill: none"/>
  </g>
  <g id="axes_1">
   <g id="patch_2">
    <path d="M 46.64375 414.976 
L 399.44375 414.976 
L 399.44375 62.176 
L 46.64375 62.176 
z
" style="fill: #ffffff"/>
   </g>
   <g id="matplotlib.axis_1">
    <g id="xtick_1">
     <g id="line2d_1">
      <path d="M 46.64375 414.976 
L 46.64375 62.176 
" clip-path="url(#p66b514f049)" style="fill: none; stroke: #b0b0b0; stroke-width: 0.8; stroke-linecap: square"/>
     </g>
     <g id="line2d_2"/>
     <g id="text_1">
      <!-- 0 -->
      <g transform="translate(43.4625 426.074437)scale(0.1 -0.1)">
       <defs>
        <path id="DejaVuSans-30" d="M 2034 4250 
Q 1547 4250 1301 3770 
Q 1056 3291 1056 2328 
Q 1056 1369 1301 889 
Q 1547 409 2034 409 
Q 2525 409 2770 889 
Q 3016 1369 3016 2328 
Q 3016 3291 2770 3770 
Q 2525 4250 2034 4250 
z
M 2034 4750 
Q 2819 4750 3233 4129 
Q 3647 3509 3647 2328 
Q 3647 1150 3233 529 
Q 2819 -91 2034 -91 
Q 1250 -91 836 529 
Q 422 1150 422 2328 
Q 422 3509 836 4129 
Q 1250 4750 2034 4750 
z
" transform="scale(0.015625)"/>
       </defs>
       <use xlink:href="#DejaVuSans-30"/>
      </g>
     </g>
    </g>
    <g id="xtick_2">
     <g id="line2d_3">
      <path d="M 103.09175 414.976 
L 103.09175 62.176 
" clip-path="url(#p66b514f049)" style="fill: none; stroke: #b0b0b0; stroke-width: 0.8; stroke-linecap: square"/>
     </g>
     <g id="line2d_4"/>
     <g id="text_2">
      <!-- 10 -->
      <g transform="translate(96.72925 426.074437)scale(0.1 -0.1)">
       <defs>
        <path id="DejaVuSans-31" d="M 794 531 
L 1825 531 
L 1825 4091 
L 703 3866 
L 703 4441 
L 1819 4666 
L 2450 4666 
L 2450 531 
L 3481 531 
L 3481 0 
L 794 0 
L 794 531 
z
" transform="scale(0.015625)"/>
       </defs>
       <use xlink:href="#DejaVuSans-31"/>
       <use xlink:href="#DejaVuSans-30" x="63.623047"/>
      </g>
     </g>
    </g>
    <g id="xtick_3">
     <g id="line2d_5">
      <path d="M 159.53975 414.976 
L 159.53975 62.176 
" clip-path="url(#p66b514f049)" style="fill: none; stroke: #b0b0b0; stroke-width: 0.8; stroke-linecap: square"/>
     </g>
     <g id="line2d_6"/>
     <g id="text_3">
      <!-- 20 -->
      <g transform="translate(153.17725 426.074437)scale(0.1 -0.1)">
       <defs>
        <path id="DejaVuSans-32" d="M 1228 531 
L 3431 531 
L 3431 0 
L 469 0 
L 469 531 
Q 828 903 1448 1529 
Q 2069 2156 2228 2338 
Q 2531 2678 2651 2914 
Q 2772 3150 2772 3378 
Q 2772 3750 2511 3984 
Q 2250 4219 1831 4219 
Q 1534 4219 1204 4116 
Q 875 4013 500 3803 
L 500 4441 
Q 881 4594 1212 4672 
Q 1544 4750 1819 4750 
Q 2544 4750 2975 4387 
Q 3406 4025 3406 3419 
Q 3406 3131 3298 2873 
Q 3191 2616 2906 2266 
Q 2828 2175 2409 1742 
Q 1991 1309 1228 531 
z
" transform="scale(0.015625)"/>
       </defs>
       <use xlink:href="#DejaVuSans-32"/>
       <use xlink:href="#DejaVuSans-30" x="63.623047"/>
      </g>
     </g>
    </g>
    <g id="xtick_4">
     <g id="line2d_7">
      <path d="M 215.98775 414.976 
L 215.98775 62.176 
" clip-path="url(#p66b514f049)" style="fill: none; stroke: #b0b0b0; stroke-width: 0.8; stroke-linecap: square"/>
     </g>
     <g id="line2d_8"/>
     <g id="text_4">
      <!-- 30 -->
      <g transform="translate(209.62525 426.074437)scale(0.1 -0.1)">
       <defs>
        <path id="DejaVuSans-33" d="M 2597 2516 
Q 3050 2419 3304 2112 
Q 3559 1806 3559 1356 
Q 3559 666 3084 287 
Q 2609 -91 1734 -91 
Q 1441 -91 1130 -33 
Q 819 25 488 141 
L 488 750 
Q 750 597 1062 519 
Q 1375 441 1716 441 
Q 2309 441 2620 675 
Q 2931 909 2931 1356 
Q 2931 1769 2642 2001 
Q 2353 2234 1838 2234 
L 1294 2234 
L 1294 2753 
L 1863 2753 
Q 2328 2753 2575 2939 
Q 2822 3125 2822 3475 
Q 2822 3834 2567 4026 
Q 2313 4219 1838 4219 
Q 1578 4219 1281 4162 
Q 984 4106 628 3988 
L 628 4550 
Q 988 4650 1302 4700 
Q 1616 4750 1894 4750 
Q 2613 4750 3031 4423 
Q 3450 4097 3450 3541 
Q 3450 3153 3228 2886 
Q 3006 2619 2597 2516 
z
" transform="scale(0.015625)"/>
       </defs>
       <use xlink:href="#DejaVuSans-33"/>
       <use xlink:href="#DejaVuSans-30" x="63.623047"/>
      </g>
     </g>
    </g>
    <g id="xtick_5">
     <g id="line2d_9">
      <path d="M 272.43575 414.976 
L 272.43575 62.176 
" clip-path="url(#p66b514f049)" style="fill: none; stroke: #b0b0b0; stroke-width: 0.8; stroke-linecap: square"/>
     </g>
     <g id="line2d_10"/>
     <g id="text_5">
      <!-- 40 -->
      <g transform="translate(266.07325 426.074437)scale(0.1 -0.1)">
       <defs>
        <path id="DejaVuSans-34" d="M 2419 4116 
L 825 1625 
L 2419 1625 
L 2419 4116 
z
M 2253 4666 
L 3047 4666 
L 3047 1625 
L 3713 1625 
L 3713 1100 
L 3047 1100 
L 3047 0 
L 2419 0 
L 2419 1100 
L 313 1100 
L 313 1709 
L 2253 4666 
z
" transform="scale(0.015625)"/>
       </defs>
       <use xlink:href="#DejaVuSans-34"/>
       <use xlink:href="#DejaVuSans-30" x="63.623047"/>
      </g>
     </g>
    </g>
    <g id="xtick_6">
     <g id="line2d_11">
      <path d="M 328.88375 414.976 
L 328.88375 62.176 
" clip-path="url(#p66b514f049)" style="fill: none; stroke: #b0b0b0; stroke-width: 0.8; stroke-linecap: square"/>
     </g>
     <g id="line2d_12"/>
     <g id="text_6">
      <!-- 50 -->
      <g transform="translate(322.52125 426.074437)scale(0.1 -0.1)">
       <defs>
        <path id="DejaVuSans-35" d="M 691 4666 
L 3169 4666 
L 3169 4134 
L 1269 4134 
L 1269 2991 
Q 1406 3038 1543 3061 
Q 1681 3084 1819 3084 
Q 2600 3084 3056 2656 
Q 3513 2228 3513 1497 
Q 3513 744 3044 326 
Q 2575 -91 1722 -91 
Q 1428 -91 1123 -41 
Q 819 9 494 109 
L 494 744 
Q 775 591 1075 516 
Q 1375 441 1709 441 
Q 2250 441 2565 725 
Q 2881 1009 2881 1497 
Q 2881 1984 2565 2268 
Q 2250 2553 1709 2553 
Q 1456 2553 1204 2497 
Q 953 2441 691 2322 
L 691 4666 
z
" transform="scale(0.015625)"/>
       </defs>
       <use xlink:href="#DejaVuSans-35"/>
       <use xlink:href="#DejaVuSans-30" x="63.623047"/>
      </g>
     </g>
    </g>
    <g id="xtick_7">
     <g id="line2d_13">
      <path d="M 385.33175 414.976 
L 385.33175 62.176 
" clip-path="url(#p66b514f049)" style="fill: none; stroke: #b0b0b0; stroke-width: 0.8; stroke-linecap: square"/>
     </g>
     <g id="line2d_14"/>
     <g id="text_7">
      <!-- 60 -->
      <g transform="translate(378.96925 426.074437)scale(0.1 -0.1)">
       <defs>
        <path id="DejaVuSans-36" d="M 2113 2584 
Q 1688 2584 1439 2293 
Q 1191 2003 1191 1497 
Q 1191 994 1439 701 
Q 1688 409 2113 409 
Q 2538 409 2786 701 
Q 3034 994 3034 1497 
Q 3034 2003 2786 2293 
Q 2538 2584 2113 2584 
z
M 3366 4563 
L 3366 3988 
Q 3128 4100 2886 4159 
Q 2644 4219 2406 4219 
Q 1781 4219 1451 3797 
Q 1122 3375 1075 2522 
Q 1259 2794 1537 2939 
Q 1816 3084 2150 3084 
Q 2853 3084 3261 2657 
Q 3669 2231 3669 1497 
Q 3669 778 3244 343 
Q 2819 -91 2113 -91 
Q 1303 -91 875 529 
Q 447 1150 447 2328 
Q 447 3434 972 4092 
Q 1497 4750 2381 4750 
Q 2619 4750 2861 4703 
Q 3103 4656 3366 4563 
z
" transform="scale(0.015625)"/>
       </defs>
       <use xlink:href="#DejaVuSans-36"/>
       <use xlink:href="#DejaVuSans-30" x="63.623047"/>
      </g>
     </g>
    </g>
    <g id="text_8">
     <!-- Time (s) -->
     <g transform="translate(202.714844 439.752562)scale(0.1 -0.1)">
      <defs>
       <path id="DejaVuSans-54" d="M -19 4666 
L 3928 4666 
L 3928 4134 
L 2272 4134 
L 2272 0 
L 1638 0 
L 1638 4134 
L -19 4134 
L -19 4666 
z
" transform="scale(0.015625)"/>
       <path id="DejaVuSans-69" d="M 603 3500 
L 1178 3500 
L 1178 0 
L 603 0 
L 603 3500 
z
M 603 4863 
L 1178 4863 
L 1178 4134 
L 603 4134 
L 603 4863 
z
" transform="scale(0.015625)"/>
       <path id="DejaVuSans-6d" d="M 3328 2828 
Q 3544 3216 3844 3400 
Q 4144 3584 4550 3584 
Q 5097 3584 5394 3201 
Q 5691 2819 5691 2113 
L 5691 0 
L 5113 0 
L 5113 2094 
Q 5113 2597 4934 2840 
Q 4756 3084 4391 3084 
Q 3944 3084 3684 2787 
Q 3425 2491 3425 1978 
L 3425 0 
L 2847 0 
L 2847 2094 
Q 2847 2600 2669 2842 
Q 2491 3084 2119 3084 
Q 1678 3084 1418 2786 
Q 1159 2488 1159 1978 
L 1159 0 
L 581 0 
L 581 3500 
L 1159 3500 
L 1159 2956 
Q 1356 3278 1631 3431 
Q 1906 3584 2284 3584 
Q 2666 3584 2933 3390 
Q 3200 3197 3328 2828 
z
" transform="scale(0.015625)"/>
       <path id="DejaVuSans-65" d="M 3597 1894 
L 3597 1613 
L 953 1613 
Q 991 1019 1311 708 
Q 1631 397 2203 397 
Q 2534 397 2845 478 
Q 3156 559 3463 722 
L 3463 178 
Q 3153 47 2828 -22 
Q 2503 -91 2169 -91 
Q 1331 -91 842 396 
Q 353 884 353 1716 
Q 353 2575 817 3079 
Q 1281 3584 2069 3584 
Q 2775 3584 3186 3129 
Q 3597 2675 3597 1894 
z
M 3022 2063 
Q 3016 2534 2758 2815 
Q 2500 3097 2075 3097 
Q 1594 3097 1305 2825 
Q 1016 2553 972 2059 
L 3022 2063 
z
" transform="scale(0.015625)"/>
       <path id="DejaVuSans-20" transform="scale(0.015625)"/>
       <path id="DejaVuSans-28" d="M 1984 4856 
Q 1566 4138 1362 3434 
Q 1159 2731 1159 2009 
Q 1159 1288 1364 580 
Q 1569 -128 1984 -844 
L 1484 -844 
Q 1016 -109 783 600 
Q 550 1309 550 2009 
Q 550 2706 781 3412 
Q 1013 4119 1484 4856 
L 1984 4856 
z
" transform="scale(0.015625)"/>
       <path id="DejaVuSans-73" d="M 2834 3397 
L 2834 2853 
Q 2591 2978 2328 3040 
Q 2066 3103 1784 3103 
Q 1356 3103 1142 2972 
Q 928 2841 928 2578 
Q 928 2378 1081 2264 
Q 1234 2150 1697 2047 
L 1894 2003 
Q 2506 1872 2764 1633 
Q 3022 1394 3022 966 
Q 3022 478 2636 193 
Q 2250 -91 1575 -91 
Q 1294 -91 989 -36 
Q 684 19 347 128 
L 347 722 
Q 666 556 975 473 
Q 1284 391 1588 391 
Q 1994 391 2212 530 
Q 2431 669 2431 922 
Q 2431 1156 2273 1281 
Q 2116 1406 1581 1522 
L 1381 1569 
Q 847 1681 609 1914 
Q 372 2147 372 2553 
Q 372 3047 722 3315 
Q 1072 3584 1716 3584 
Q 2034 3584 2315 3537 
Q 2597 3491 2834 3397 
z
" transform="scale(0.015625)"/>
       <path id="DejaVuSans-29" d="M 513 4856 
L 1013 4856 
Q 1481 4119 1714 3412 
Q 1947 2706 1947 2009 
Q 1947 1309 1714 600 
Q 1481 -109 1013 -844 
L 513 -844 
Q 928 -128 1133 580 
Q 1338 1288 1338 2009 
Q 1338 2731 1133 3434 
Q 928 4138 513 4856 
z
" transform="scale(0.015625)"/>
      </defs>
      <use xlink:href="#DejaVuSans-54"/>
      <use xlink:href="#DejaVuSans-69" x="57.958984"/>
      <use xlink:href="#DejaVuSans-6d" x="85.742188"/>
      <use xlink:href="#DejaVuSans-65" x="183.154297"/>
      <use xlink:href="#DejaVuSans-20" x="244.677734"/>
      <use xlink:href="#DejaVuSans-28" x="276.464844"/>
      <use xlink:href="#DejaVuSans-73" x="315.478516"/>
      <use xlink:href="#DejaVuSans-29" x="367.578125"/>
     </g>
    </g>
   </g>
   <g id="matplotlib.axis_2">
    <g id="ytick_1">
     <g id="line2d_15">
      <path d="M 46.64375 398.939636 
L 399.44375 398.939636 
" clip-path="url(#p66b514f049)" style="fill: none; stroke: #b0b0b0; stroke-width: 0.8; stroke-linecap: square"/>
     </g>
     <g id="line2d_16"/>
     <g id="text_9">
      <!-- 0.25 -->
      <g transform="translate(20.878125 402.738855)scale(0.1 -0.1)">
       <defs>
        <path id="DejaVuSans-2e" d="M 684 794 
L 1344 794 
L 1344 0 
L 684 0 
L 684 794 
z
" transform="scale(0.015625)"/>
       </defs>
       <use xlink:href="#DejaVuSans-30"/>
       <use xlink:href="#DejaVuSans-2e" x="63.623047"/>
       <use xlink:href="#DejaVuSans-32" x="95.410156"/>
       <use xlink:href="#DejaVuSans-35" x="159.033203"/>
      </g>
     </g>
    </g>
    <g id="ytick_2">
     <g id="line2d_17">
      <path d="M 46.64375 345.485091 
L 399.44375 345.485091 
" clip-path="url(#p66b514f049)" style="fill: none; stroke: #b0b0b0; stroke-width: 0.8; stroke-linecap: square"/>
     </g>
     <g id="line2d_18"/>
     <g id="text_10">
      <!-- 0.30 -->
      <g transform="translate(20.878125 349.28431)scale(0.1 -0.1)">
       <use xlink:href="#DejaVuSans-30"/>
       <use xlink:href="#DejaVuSans-2e" x="63.623047"/>
       <use xlink:href="#DejaVuSans-33" x="95.410156"/>
       <use xlink:href="#DejaVuSans-30" x="159.033203"/>
      </g>
     </g>
    </g>
    <g id="ytick_3">
     <g id="line2d_19">
      <path d="M 46.64375 292.030545 
L 399.44375 292.030545 
" clip-path="url(#p66b514f049)" style="fill: none; stroke: #b0b0b0; stroke-width: 0.8; stroke-linecap: square"/>
     </g>
     <g id="line2d_20"/>
     <g id="text_11">
      <!-- 0.35 -->
      <g transform="translate(20.878125 295.829764)scale(0.1 -0.1)">
       <use xlink:href="#DejaVuSans-30"/>
       <use xlink:href="#DejaVuSans-2e" x="63.623047"/>
       <use xlink:href="#DejaVuSans-33" x="95.410156"/>
       <use xlink:href="#DejaVuSans-35" x="159.033203"/>
      </g>
     </g>
    </g>
    <g id="ytick_4">
     <g id="line2d_21">
      <path d="M 46.64375 238.576 
L 399.44375 238.576 
" clip-path="url(#p66b514f049)" style="fill: none; stroke: #b0b0b0; stroke-width: 0.8; stroke-linecap: square"/>
     </g>
     <g id="line2d_22"/>
     <g id="text_12">
      <!-- 0.40 -->
      <g transform="translate(20.878125 242.375219)scale(0.1 -0.1)">
       <use xlink:href="#DejaVuSans-30"/>
       <use xlink:href="#DejaVuSans-2e" x="63.623047"/>
       <use xlink:href="#DejaVuSans-34" x="95.410156"/>
       <use xlink:href="#DejaVuSans-30" x="159.033203"/>
      </g>
     </g>
    </g>
    <g id="ytick_5">
     <g id="line2d_23">
      <path d="M 46.64375 185.121455 
L 399.44375 185.121455 
" clip-path="url(#p66b514f049)" style="fill: none; stroke: #b0b0b0; stroke-width: 0.8; stroke-linecap: square"/>
     </g>
     <g id="line2d_24"/>
     <g id="text_13">
      <!-- 0.45 -->
      <g transform="translate(20.878125 188.920673)scale(0.1 -0.1)">
       <use xlink:href="#DejaVuSans-30"/>
       <use xlink:href="#DejaVuSans-2e" x="63.623047"/>
       <use xlink:href="#DejaVuSans-34" x="95.410156"/>
       <use xlink:href="#DejaVuSans-35" x="159.033203"/>
      </g>
     </g>
    </g>
    <g id="ytick_6">
     <g id="line2d_25">
      <path d="M 46.64375 131.666909 
L 399.44375 131.666909 
" clip-path="url(#p66b514f049)" style="fill: none; stroke: #b0b0b0; stroke-width: 0.8; stroke-linecap: square"/>
     </g>
     <g id="line2d_26"/>
     <g id="text_14">
      <!-- 0.50 -->
      <g transform="translate(20.878125 135.466128)scale(0.1 -0.1)">
       <use xlink:href="#DejaVuSans-30"/>
       <use xlink:href="#DejaVuSans-2e" x="63.623047"/>
       <use xlink:href="#DejaVuSans-35" x="95.410156"/>
       <use xlink:href="#DejaVuSans-30" x="159.033203"/>
      </g>
     </g>
    </g>
    <g id="ytick_7">
     <g id="line2d_27">
      <path d="M 46.64375 78.212364 
L 399.44375 78.212364 
" clip-path="url(#p66b514f049)" style="fill: none; stroke: #b0b0b0; stroke-width: 0.8; stroke-linecap: square"/>
     </g>
     <g id="line2d_28"/>
     <g id="text_15">
      <!-- 0.55 -->
      <g transform="translate(20.878125 82.011582)scale(0.1 -0.1)">
       <use xlink:href="#DejaVuSans-30"/>
       <use xlink:href="#DejaVuSans-2e" x="63.623047"/>
       <use xlink:href="#DejaVuSans-35" x="95.410156"/>
       <use xlink:href="#DejaVuSans-35" x="159.033203"/>
      </g>
     </g>
    </g>
    <g id="text_16">
     <!-- Latency (s) -->
     <g transform="translate(14.798438 266.435375)rotate(-90)scale(0.1 -0.1)">
      <defs>
       <path id="DejaVuSans-4c" d="M 628 4666 
L 1259 4666 
L 1259 531 
L 3531 531 
L 3531 0 
L 628 0 
L 628 4666 
z
" transform="scale(0.015625)"/>
       <path id="DejaVuSans-61" d="M 2194 1759 
Q 1497 1759 1228 1600 
Q 959 1441 959 1056 
Q 959 750 1161 570 
Q 1363 391 1709 391 
Q 2188 391 2477 730 
Q 2766 1069 2766 1631 
L 2766 1759 
L 2194 1759 
z
M 3341 1997 
L 3341 0 
L 2766 0 
L 2766 531 
Q 2569 213 2275 61 
Q 1981 -91 1556 -91 
Q 1019 -91 701 211 
Q 384 513 384 1019 
Q 384 1609 779 1909 
Q 1175 2209 1959 2209 
L 2766 2209 
L 2766 2266 
Q 2766 2663 2505 2880 
Q 2244 3097 1772 3097 
Q 1472 3097 1187 3025 
Q 903 2953 641 2809 
L 641 3341 
Q 956 3463 1253 3523 
Q 1550 3584 1831 3584 
Q 2591 3584 2966 3190 
Q 3341 2797 3341 1997 
z
" transform="scale(0.015625)"/>
       <path id="DejaVuSans-74" d="M 1172 4494 
L 1172 3500 
L 2356 3500 
L 2356 3053 
L 1172 3053 
L 1172 1153 
Q 1172 725 1289 603 
Q 1406 481 1766 481 
L 2356 481 
L 2356 0 
L 1766 0 
Q 1100 0 847 248 
Q 594 497 594 1153 
L 594 3053 
L 172 3053 
L 172 3500 
L 594 3500 
L 594 4494 
L 1172 4494 
z
" transform="scale(0.015625)"/>
       <path id="DejaVuSans-6e" d="M 3513 2113 
L 3513 0 
L 2938 0 
L 2938 2094 
Q 2938 2591 2744 2837 
Q 2550 3084 2163 3084 
Q 1697 3084 1428 2787 
Q 1159 2491 1159 1978 
L 1159 0 
L 581 0 
L 581 3500 
L 1159 3500 
L 1159 2956 
Q 1366 3272 1645 3428 
Q 1925 3584 2291 3584 
Q 2894 3584 3203 3211 
Q 3513 2838 3513 2113 
z
" transform="scale(0.015625)"/>
       <path id="DejaVuSans-63" d="M 3122 3366 
L 3122 2828 
Q 2878 2963 2633 3030 
Q 2388 3097 2138 3097 
Q 1578 3097 1268 2742 
Q 959 2388 959 1747 
Q 959 1106 1268 751 
Q 1578 397 2138 397 
Q 2388 397 2633 464 
Q 2878 531 3122 666 
L 3122 134 
Q 2881 22 2623 -34 
Q 2366 -91 2075 -91 
Q 1284 -91 818 406 
Q 353 903 353 1747 
Q 353 2603 823 3093 
Q 1294 3584 2113 3584 
Q 2378 3584 2631 3529 
Q 2884 3475 3122 3366 
z
" transform="scale(0.015625)"/>
       <path id="DejaVuSans-79" d="M 2059 -325 
Q 1816 -950 1584 -1140 
Q 1353 -1331 966 -1331 
L 506 -1331 
L 506 -850 
L 844 -850 
Q 1081 -850 1212 -737 
Q 1344 -625 1503 -206 
L 1606 56 
L 191 3500 
L 800 3500 
L 1894 763 
L 2988 3500 
L 3597 3500 
L 2059 -325 
z
" transform="scale(0.015625)"/>
      </defs>
      <use xlink:href="#DejaVuSans-4c"/>
      <use xlink:href="#DejaVuSans-61" x="55.712891"/>
      <use xlink:href="#DejaVuSans-74" x="116.992188"/>
      <use xlink:href="#DejaVuSans-65" x="156.201172"/>
      <use xlink:href="#DejaVuSans-6e" x="217.724609"/>
      <use xlink:href="#DejaVuSans-63" x="281.103516"/>
      <use xlink:href="#DejaVuSans-79" x="336.083984"/>
      <use xlink:href="#DejaVuSans-20" x="395.263672"/>
      <use xlink:href="#DejaVuSans-28" x="427.050781"/>
      <use xlink:href="#DejaVuSans-73" x="466.064453"/>
      <use xlink:href="#DejaVuSans-29" x="518.164062"/>
     </g>
    </g>
   </g>
   <g id="LineCollection_1">
    <path d="M 46.64375 345.485091 
L 46.64375 270.648727 
" clip-path="url(#p66b514f049)" style="fill: none; stroke: #1f77b4; stroke-width: 1.5"/>
    <path d="M 84.74615 377.557818 
L 84.74615 270.648727 
" clip-path="url(#p66b514f049)" style="fill: none; stroke: #1f77b4; stroke-width: 1.5"/>
    <path d="M 122.84855 345.485091 
L 122.84855 238.576 
" clip-path="url(#p66b514f049)" style="fill: none; stroke: #1f77b4; stroke-width: 1.5"/>
    <path d="M 160.95095 345.485091 
L 160.95095 313.412364 
" clip-path="url(#p66b514f049)" style="fill: none; stroke: #1f77b4; stroke-width: 1.5"/>
    <path d="M 199.05335 345.485091 
L 199.05335 270.648727 
" clip-path="url(#p66b514f049)" style="fill: none; stroke: #1f77b4; stroke-width: 1.5"/>
    <path d="M 237.15575 345.485091 
L 237.15575 270.648727 
" clip-path="url(#p66b514f049)" style="fill: none; stroke: #1f77b4; stroke-width: 1.5"/>
    <path d="M 275.25815 356.176 
L 275.25815 217.194182 
" clip-path="url(#p66b514f049)" style="fill: none; stroke: #1f77b4; stroke-width: 1.5"/>
    <path d="M 313.36055 398.939636 
L 313.36055 270.648727 
" clip-path="url(#p66b514f049)" style="fill: none; stroke: #1f77b4; stroke-width: 1.5"/>
    <path d="M 351.46295 345.485091 
L 351.46295 270.648727 
" clip-path="url(#p66b514f049)" style="fill: none; stroke: #1f77b4; stroke-width: 1.5"/>
    <path d="M 389.56535 345.485091 
L 389.56535 238.576 
" clip-path="url(#p66b514f049)" style="fill: none; stroke: #1f77b4; stroke-width: 1.5"/>
   </g>
   <g id="LineCollection_2">
    <path d="M 46.64375 270.648727 
L 46.64375 227.885091 
" clip-path="url(#p66b514f049)" style="fill: none; stroke: #ff7f0e; stroke-width: 1.5"/>
    <path d="M 84.74615 238.576 
L 84.74615 206.503273 
" clip-path="url(#p66b514f049)" style="fill: none; stroke: #ff7f0e; stroke-width: 1.5"/>
    <path d="M 122.84855 238.576 
L 122.84855 206.503273 
" clip-path="url(#p66b514f049)" style="fill: none; stroke: #ff7f0e; stroke-width: 1.5"/>
    <path d="M 160.95095 281.339636 
L 160.95095 206.503273 
" clip-path="url(#p66b514f049)" style="fill: none; stroke: #ff7f0e; stroke-width: 1.5"/>
    <path d="M 199.05335 249.266909 
L 199.05335 185.121455 
" clip-path="url(#p66b514f049)" style="fill: none; stroke: #ff7f0e; stroke-width: 1.5"/>
    <path d="M 237.15575 270.648727 
L 237.15575 142.357818 
" clip-path="url(#p66b514f049)" style="fill: none; stroke: #ff7f0e; stroke-width: 1.5"/>
    <path d="M 275.25815 238.576 
L 275.25815 206.503273 
" clip-path="url(#p66b514f049)" style="fill: none; stroke: #ff7f0e; stroke-width: 1.5"/>
    <path d="M 313.36055 270.648727 
L 313.36055 206.503273 
" clip-path="url(#p66b514f049)" style="fill: none; stroke: #ff7f0e; stroke-width: 1.5"/>
    <path d="M 351.46295 238.576 
L 351.46295 195.812364 
" clip-path="url(#p66b514f049)" style="fill: none; stroke: #ff7f0e; stroke-width: 1.5"/>
    <path d="M 389.56535 249.266909 
L 389.56535 227.885091 
" clip-path="url(#p66b514f049)" style="fill: none; stroke: #ff7f0e; stroke-width: 1.5"/>
   </g>
   <g id="LineCollection_3">
    <path d="M 46.64375 302.721455 
L 46.64375 131.666909 
" clip-path="url(#p66b514f049)" style="fill: none; stroke: #2ca02c; stroke-width: 1.5"/>
    <path d="M 84.74615 206.503273 
L 84.74615 163.739636 
" clip-path="url(#p66b514f049)" style="fill: none; stroke: #2ca02c; stroke-width: 1.5"/>
    <path d="M 122.84855 206.503273 
L 122.84855 163.739636 
" clip-path="url(#p66b514f049)" style="fill: none; stroke: #2ca02c; stroke-width: 1.5"/>
    <path d="M 160.95095 206.503273 
L 160.95095 120.976 
" clip-path="url(#p66b514f049)" style="fill: none; stroke: #2ca02c; stroke-width: 1.5"/>
    <path d="M 199.05335 249.266909 
L 199.05335 163.739636 
" clip-path="url(#p66b514f049)" style="fill: none; stroke: #2ca02c; stroke-width: 1.5"/>
    <path d="M 237.15575 238.576 
L 237.15575 78.212364 
" clip-path="url(#p66b514f049)" style="fill: none; stroke: #2ca02c; stroke-width: 1.5"/>
    <path d="M 275.25815 206.503273 
L 275.25815 174.430545 
" clip-path="url(#p66b514f049)" style="fill: none; stroke: #2ca02c; stroke-width: 1.5"/>
    <path d="M 313.36055 270.648727 
L 313.36055 195.812364 
" clip-path="url(#p66b514f049)" style="fill: none; stroke: #2ca02c; stroke-width: 1.5"/>
    <path d="M 351.46295 227.885091 
L 351.46295 78.212364 
" clip-path="url(#p66b514f049)" style="fill: none; stroke: #2ca02c; stroke-width: 1.5"/>
    <path d="M 389.56535 206.503273 
L 389.56535 131.666909 
" clip-path="url(#p66b514f049)" style="fill: none; stroke: #2ca02c; stroke-width: 1.5"/>
   </g>
   <g id="line2d_29">
    <path d="M 46.64375 308.066909 
L 84.74615 324.103273 
L 122.84855 292.030545 
L 160.95095 329.448727 
L 199.05335 308.066909 
L 237.15575 308.066909 
L 275.25815 286.685091 
L 313.36055 334.794182 
L 351.46295 308.066909 
L 389.56535 292.030545 
" clip-path="url(#p66b514f049)" style="fill: none; stroke-dasharray: 5.55,2.4; stroke-dashoffset: 0; stroke: #1f77b4; stroke-width: 1.5"/>
    <defs>
     <path id="mfc9e603f06" d="M 3 0 
L -3 -0 
" style="stroke: #1f77b4"/>
    </defs>
    <g clip-path="url(#p66b514f049)">
     <use xlink:href="#mfc9e603f06" x="46.64375" y="308.066909" style="fill: #1f77b4; stroke: #1f77b4"/>
     <use xlink:href="#mfc9e603f06" x="84.74615" y="324.103273" style="fill: #1f77b4; stroke: #1f77b4"/>
     <use xlink:href="#mfc9e603f06" x="122.84855" y="292.030545" style="fill: #1f77b4; stroke: #1f77b4"/>
     <use xlink:href="#mfc9e603f06" x="160.95095" y="329.448727" style="fill: #1f77b4; stroke: #1f77b4"/>
     <use xlink:href="#mfc9e603f06" x="199.05335" y="308.066909" style="fill: #1f77b4; stroke: #1f77b4"/>
     <use xlink:href="#mfc9e603f06" x="237.15575" y="308.066909" style="fill: #1f77b4; stroke: #1f77b4"/>
     <use xlink:href="#mfc9e603f06" x="275.25815" y="286.685091" style="fill: #1f77b4; stroke: #1f77b4"/>
     <use xlink:href="#mfc9e603f06" x="313.36055" y="334.794182" style="fill: #1f77b4; stroke: #1f77b4"/>
     <use xlink:href="#mfc9e603f06" x="351.46295" y="308.066909" style="fill: #1f77b4; stroke: #1f77b4"/>
     <use xlink:href="#mfc9e603f06" x="389.56535" y="292.030545" style="fill: #1f77b4; stroke: #1f77b4"/>
    </g>
   </g>
   <g id="line2d_30">
    <path d="M 46.64375 249.266909 
L 84.74615 222.539636 
L 122.84855 222.539636 
L 160.95095 243.921455 
L 199.05335 217.194182 
L 237.15575 206.503273 
L 275.25815 222.539636 
L 313.36055 238.576 
L 351.46295 217.194182 
L 389.56535 238.576 
" clip-path="url(#p66b514f049)" style="fill: none; stroke-dasharray: 5.55,2.4; stroke-dashoffset: 0; stroke: #ff7f0e; stroke-width: 1.5"/>
    <defs>
     <path id="mef83a6b3df" d="M 3 0 
L -3 -0 
" style="stroke: #ff7f0e"/>
    </defs>
    <g clip-path="url(#p66b514f049)">
     <use xlink:href="#mef83a6b3df" x="46.64375" y="249.266909" style="fill: #ff7f0e; stroke: #ff7f0e"/>
     <use xlink:href="#mef83a6b3df" x="84.74615" y="222.539636" style="fill: #ff7f0e; stroke: #ff7f0e"/>
     <use xlink:href="#mef83a6b3df" x="122.84855" y="222.539636" style="fill: #ff7f0e; stroke: #ff7f0e"/>
     <use xlink:href="#mef83a6b3df" x="160.95095" y="243.921455" style="fill: #ff7f0e; stroke: #ff7f0e"/>
     <use xlink:href="#mef83a6b3df" x="199.05335" y="217.194182" style="fill: #ff7f0e; stroke: #ff7f0e"/>
     <use xlink:href="#mef83a6b3df" x="237.15575" y="206.503273" style="fill: #ff7f0e; stroke: #ff7f0e"/>
     <use xlink:href="#mef83a6b3df" x="275.25815" y="222.539636" style="fill: #ff7f0e; stroke: #ff7f0e"/>
     <use xlink:href="#mef83a6b3df" x="313.36055" y="238.576" style="fill: #ff7f0e; stroke: #ff7f0e"/>
     <use xlink:href="#mef83a6b3df" x="351.46295" y="217.194182" style="fill: #ff7f0e; stroke: #ff7f0e"/>
     <use xlink:href="#mef83a6b3df" x="389.56535" y="238.576" style="fill: #ff7f0e; stroke: #ff7f0e"/>
    </g>
   </g>
   <g id="line2d_31">
    <path d="M 46.64375 217.194182 
L 84.74615 185.121455 
L 122.84855 185.121455 
L 160.95095 163.739636 
L 199.05335 206.503273 
L 237.15575 158.394182 
L 275.25815 190.466909 
L 313.36055 233.230545 
L 351.46295 153.048727 
L 389.56535 169.085091 
" clip-path="url(#p66b514f049)" style="fill: none; stroke-dasharray: 5.55,2.4; stroke-dashoffset: 0; stroke: #2ca02c; stroke-width: 1.5"/>
    <defs>
     <path id="m12ca106951" d="M 3 0 
L -3 -0 
" style="stroke: #2ca02c"/>
    </defs>
    <g clip-path="url(#p66b514f049)">
     <use xlink:href="#m12ca106951" x="46.64375" y="217.194182" style="fill: #2ca02c; stroke: #2ca02c"/>
     <use xlink:href="#m12ca106951" x="84.74615" y="185.121455" style="fill: #2ca02c; stroke: #2ca02c"/>
     <use xlink:href="#m12ca106951" x="122.84855" y="185.121455" style="fill: #2ca02c; stroke: #2ca02c"/>
     <use xlink:href="#m12ca106951" x="160.95095" y="163.739636" style="fill: #2ca02c; stroke: #2ca02c"/>
     <use xlink:href="#m12ca106951" x="199.05335" y="206.503273" style="fill: #2ca02c; stroke: #2ca02c"/>
     <use xlink:href="#m12ca106951" x="237.15575" y="158.394182" style="fill: #2ca02c; stroke: #2ca02c"/>
     <use xlink:href="#m12ca106951" x="275.25815" y="190.466909" style="fill: #2ca02c; stroke: #2ca02c"/>
     <use xlink:href="#m12ca106951" x="313.36055" y="233.230545" style="fill: #2ca02c; stroke: #2ca02c"/>
     <use xlink:href="#m12ca106951" x="351.46295" y="153.048727" style="fill: #2ca02c; stroke: #2ca02c"/>
     <use xlink:href="#m12ca106951" x="389.56535" y="169.085091" style="fill: #2ca02c; stroke: #2ca02c"/>
    </g>
   </g>
   <g id="patch_3">
    <path d="M 46.64375 414.976 
L 46.64375 62.176 
" style="fill: none; stroke: #000000; stroke-width: 0.8; stroke-linejoin: miter; stroke-linecap: square"/>
   </g>
   <g id="patch_4">
    <path d="M 399.44375 414.976 
L 399.44375 62.176 
" style="fill: none; stroke: #000000; stroke-width: 0.8; stroke-linejoin: miter; stroke-linecap: square"/>
   </g>
   <g id="patch_5">
    <path d="M 46.64375 414.976 
L 399.44375 414.976 
" style="fill: none; stroke: #000000; stroke-width: 0.8; stroke-linejoin: miter; stroke-linecap: square"/>
   </g>
   <g id="patch_6">
    <path d="M 46.64375 62.176 
L 399.44375 62.176 
" style="fill: none; stroke: #000000; stroke-width: 0.8; stroke-linejoin: miter; stroke-linecap: square"/>
   </g>
   <g id="legend_1">
    <g id="patch_7">
     <path d="M 166.833594 54.234375 
L 279.253906 54.234375 
Q 281.253906 54.234375 281.253906 52.234375 
L 281.253906 9.2 
Q 281.253906 7.2 279.253906 7.2 
L 166.833594 7.2 
Q 164.833594 7.2 164.833594 9.2 
L 164.833594 52.234375 
Q 164.833594 54.234375 166.833594 54.234375 
z
" style="fill: #ffffff; opacity: 0.8; stroke: #cccccc; stroke-linejoin: miter"/>
    </g>
    <g id="LineCollection_4">
     <path d="M 178.833594 20.298437 
L 178.833594 10.298437 
" style="fill: none; stroke: #1f77b4; stroke-width: 1.5"/>
    </g>
    <g id="line2d_32">
     <path d="M 168.833594 15.298437 
L 188.833594 15.298437 
" style="fill: none; stroke-dasharray: 5.55,2.4; stroke-dashoffset: 0; stroke: #1f77b4; stroke-width: 1.5"/>
    </g>
    <g id="line2d_33">
     <g>
      <use xlink:href="#mfc9e603f06" x="178.833594" y="15.298437" style="fill: #1f77b4; stroke: #1f77b4"/>
     </g>
    </g>
    <g id="text_17">
     <!-- clock-jitter=0 -->
     <g transform="translate(196.833594 18.798437)scale(0.1 -0.1)">
      <defs>
       <path id="DejaVuSans-6c" d="M 603 4863 
L 1178 4863 
L 1178 0 
L 603 0 
L 603 4863 
z
" transform="scale(0.015625)"/>
       <path id="DejaVuSans-6f" d="M 1959 3097 
Q 1497 3097 1228 2736 
Q 959 2375 959 1747 
Q 959 1119 1226 758 
Q 1494 397 1959 397 
Q 2419 397 2687 759 
Q 2956 1122 2956 1747 
Q 2956 2369 2687 2733 
Q 2419 3097 1959 3097 
z
M 1959 3584 
Q 2709 3584 3137 3096 
Q 3566 2609 3566 1747 
Q 3566 888 3137 398 
Q 2709 -91 1959 -91 
Q 1206 -91 779 398 
Q 353 888 353 1747 
Q 353 2609 779 3096 
Q 1206 3584 1959 3584 
z
" transform="scale(0.015625)"/>
       <path id="DejaVuSans-6b" d="M 581 4863 
L 1159 4863 
L 1159 1991 
L 2875 3500 
L 3609 3500 
L 1753 1863 
L 3688 0 
L 2938 0 
L 1159 1709 
L 1159 0 
L 581 0 
L 581 4863 
z
" transform="scale(0.015625)"/>
       <path id="DejaVuSans-2d" d="M 313 2009 
L 1997 2009 
L 1997 1497 
L 313 1497 
L 313 2009 
z
" transform="scale(0.015625)"/>
       <path id="DejaVuSans-6a" d="M 603 3500 
L 1178 3500 
L 1178 -63 
Q 1178 -731 923 -1031 
Q 669 -1331 103 -1331 
L -116 -1331 
L -116 -844 
L 38 -844 
Q 366 -844 484 -692 
Q 603 -541 603 -63 
L 603 3500 
z
M 603 4863 
L 1178 4863 
L 1178 4134 
L 603 4134 
L 603 4863 
z
" transform="scale(0.015625)"/>
       <path id="DejaVuSans-72" d="M 2631 2963 
Q 2534 3019 2420 3045 
Q 2306 3072 2169 3072 
Q 1681 3072 1420 2755 
Q 1159 2438 1159 1844 
L 1159 0 
L 581 0 
L 581 3500 
L 1159 3500 
L 1159 2956 
Q 1341 3275 1631 3429 
Q 1922 3584 2338 3584 
Q 2397 3584 2469 3576 
Q 2541 3569 2628 3553 
L 2631 2963 
z
" transform="scale(0.015625)"/>
       <path id="DejaVuSans-3d" d="M 678 2906 
L 4684 2906 
L 4684 2381 
L 678 2381 
L 678 2906 
z
M 678 1631 
L 4684 1631 
L 4684 1100 
L 678 1100 
L 678 1631 
z
" transform="scale(0.015625)"/>
      </defs>
      <use xlink:href="#DejaVuSans-63"/>
      <use xlink:href="#DejaVuSans-6c" x="54.980469"/>
      <use xlink:href="#DejaVuSans-6f" x="82.763672"/>
      <use xlink:href="#DejaVuSans-63" x="143.945312"/>
      <use xlink:href="#DejaVuSans-6b" x="198.925781"/>
      <use xlink:href="#DejaVuSans-2d" x="256.835938"/>
      <use xlink:href="#DejaVuSans-6a" x="292.919922"/>
      <use xlink:href="#DejaVuSans-69" x="320.703125"/>
      <use xlink:href="#DejaVuSans-74" x="348.486328"/>
      <use xlink:href="#DejaVuSans-74" x="387.695312"/>
      <use xlink:href="#DejaVuSans-65" x="426.904297"/>
      <use xlink:href="#DejaVuSans-72" x="488.427734"/>
      <use xlink:href="#DejaVuSans-3d" x="529.541016"/>
      <use xlink:href="#DejaVuSans-30" x="613.330078"/>
     </g>
    </g>
    <g id="LineCollection_5">
     <path d="M 178.833594 34.976562 
L 178.833594 24.976562 
" style="fill: none; stroke: #ff7f0e; stroke-width: 1.5"/>
    </g>
    <g id="line2d_34">
     <path d="M 168.833594 29.976562 
L 188.833594 29.976562 
" style="fill: none; stroke-dasharray: 5.55,2.4; stroke-dashoffset: 0; stroke: #ff7f0e; stroke-width: 1.5"/>
    </g>
    <g id="line2d_35">
     <g>
      <use xlink:href="#mef83a6b3df" x="178.833594" y="29.976562" style="fill: #ff7f0e; stroke: #ff7f0e"/>
     </g>
    </g>
    <g id="text_18">
     <!-- clock-jitter=100 -->
     <g transform="translate(196.833594 33.476562)scale(0.1 -0.1)">
      <use xlink:href="#DejaVuSans-63"/>
      <use xlink:href="#DejaVuSans-6c" x="54.980469"/>
      <use xlink:href="#DejaVuSans-6f" x="82.763672"/>
      <use xlink:href="#DejaVuSans-63" x="143.945312"/>
      <use xlink:href="#DejaVuSans-6b" x="198.925781"/>
      <use xlink:href="#DejaVuSans-2d" x="256.835938"/>
      <use xlink:href="#DejaVuSans-6a" x="292.919922"/>
      <use xlink:href="#DejaVuSans-69" x="320.703125"/>
      <use xlink:href="#DejaVuSans-74" x="348.486328"/>
      <use xlink:href="#DejaVuSans-74" x="387.695312"/>
      <use xlink:href="#DejaVuSans-65" x="426.904297"/>
      <use xlink:href="#DejaVuSans-72" x="488.427734"/>
      <use xlink:href="#DejaVuSans-3d" x="529.541016"/>
      <use xlink:href="#DejaVuSans-31" x="613.330078"/>
      <use xlink:href="#DejaVuSans-30" x="676.953125"/>
      <use xlink:href="#DejaVuSans-30" x="740.576172"/>
     </g>
    </g>
    <g id="LineCollection_6">
     <path d="M 178.833594 49.654687 
L 178.833594 39.654687 
" style="fill: none; stroke: #2ca02c; stroke-width: 1.5"/>
    </g>
    <g id="line2d_36">
     <path d="M 168.833594 44.654687 
L 188.833594 44.654687 
" style="fill: none; stroke-dasharray: 5.55,2.4; stroke-dashoffset: 0; stroke: #2ca02c; stroke-width: 1.5"/>
    </g>
    <g id="line2d_37">
     <g>
      <use xlink:href="#m12ca106951" x="178.833594" y="44.654687" style="fill: #2ca02c; stroke: #2ca02c"/>
     </g>
    </g>
    <g id="text_19">
     <!-- clock-jitter=300 -->
     <g transform="translate(196.833594 48.154687)scale(0.1 -0.1)">
      <use xlink:href="#DejaVuSans-63"/>
      <use xlink:href="#DejaVuSans-6c" x="54.980469"/>
      <use xlink:href="#DejaVuSans-6f" x="82.763672"/>
      <use xlink:href="#DejaVuSans-63" x="143.945312"/>
      <use xlink:href="#DejaVuSans-6b" x="198.925781"/>
      <use xlink:href="#DejaVuSans-2d" x="256.835938"/>
      <use xlink:href="#DejaVuSans-6a" x="292.919922"/>
      <use xlink:href="#DejaVuSans-69" x="320.703125"/>
      <use xlink:href="#DejaVuSans-74" x="348.486328"/>
      <use xlink:href="#DejaVuSans-74" x="387.695312"/>
      <use xlink:href="#DejaVuSans-65" x="426.904297"/>
      <use xlink:href="#DejaVuSans-72" x="488.427734"/>
      <use xlink:href="#DejaVuSans-3d" x="529.541016"/>
      <use xlink:href="#DejaVuSans-33" x="613.330078"/>
      <use xlink:href="#DejaVuSans-30" x="676.953125"/>
      <use xlink:href="#DejaVuSans-30" x="740.576172"/>
     </g>
    </g>
   </g>
  </g>
 </g>
 <defs>
  <clipPath id="p66b514f049">
   <rect x="46.64375" y="62.176" width="352.8" height="352.8"/>
  </clipPath>
 </defs>
</svg>
