<?xml version="1.0" encoding="utf-8" standalone="no"?>
<!DOCTYPE svg PUBLIC "-//W3C//DTD SVG 1.1//EN"
  "http://www.w3.org/Graphics/SVG/1.1/DTD/svg11.dtd">
<svg xmlns:xlink="http://www.w3.org/1999/xlink" width="413.00625pt" height="434.92025pt" viewBox="0 0 413.00625 434.92025" xmlns="http://www.w3.org/2000/svg" version="1.1">
 <metadata>
  <rdf:RDF xmlns:dc="http://purl.org/dc/elements/1.1/" xmlns:cc="http://creativecommons.org/ns#" xmlns:rdf="http://www.w3.org/1999/02/22-rdf-syntax-ns#">
   <cc:Work>
    <dc:type rdf:resource="http://purl.org/dc/dcmitype/StillImage"/>
    <dc:date>2022-05-23T22:32:18.340538</dc:date>
    <dc:format>image/svg+xml</dc:format>
    <dc:creator>
     <cc:Agent>
      <dc:title>Matplotlib v3.5.2, https://matplotlib.org/</dc:title>
     </cc:Agent>
    </dc:creator>
   </cc:Work>
  </rdf:RDF>
 </metadata>
 <defs>
  <style type="text/css">*{stroke-linejoin: round; stroke-linecap: butt}</style>
 </defs>
 <g id="figure_1">
  <g id="patch_1">
   <path d="M 0 434.92025 
L 413.00625 434.92025 
L 413.00625 0 
L 0 0 
L 0 434.92025 
z
" style="fill: none"/>
  </g>
  <g id="axes_1">
   <g id="patch_2">
    <path d="M 53.00625 400.864 
L 405.80625 400.864 
L 405.80625 48.064 
L 53.00625 48.064 
z
" style="fill: #ffffff"/>
   </g>
   <g id="matplotlib.axis_1">
    <g id="xtick_1">
     <g id="line2d_1">
      <path d="M 53.00625 400.864 
L 53.00625 48.064 
" clip-path="url(#pa4ac2c1b7a)" style="fill: none; stroke: #b0b0b0; stroke-width: 0.8; stroke-linecap: square"/>
     </g>
     <g id="line2d_2"/>
     <g id="text_1">
      <!-- 0 -->
      <g transform="translate(49.825 411.962437)scale(0.1 -0.1)">
       <defs>
        <path id="DejaVuSans-30" d="M 2034 4250 
Q 1547 4250 1301 3770 
Q 1056 3291 1056 2328 
Q 1056 1369 1301 889 
Q 1547 409 2034 409 
Q 2525 409 2770 889 
Q 3016 1369 3016 2328 
Q 3016 3291 2770 3770 
Q 2525 4250 2034 4250 
z
M 2034 4750 
Q 2819 4750 3233 4129 
Q 3647 3509 3647 2328 
Q 3647 1150 3233 529 
Q 2819 -91 2034 -91 
Q 1250 -91 836 529 
Q 422 1150 422 2328 
Q 422 3509 836 4129 
Q 1250 4750 2034 4750 
z
" transform="scale(0.015625)"/>
       </defs>
       <use xlink:href="#DejaVuSans-30"/>
      </g>
     </g>
    </g>
    <g id="xtick_2">
     <g id="line2d_3">
      <path d="M 98.587645 400.864 
L 98.587645 48.064 
" clip-path="url(#pa4ac2c1b7a)" style="fill: none; stroke: #b0b0b0; stroke-width: 0.8; stroke-linecap: square"/>
     </g>
     <g id="line2d_4"/>
     <g id="text_2">
      <!-- 50 -->
      <g transform="translate(92.225145 411.962437)scale(0.1 -0.1)">
       <defs>
        <path id="DejaVuSans-35" d="M 691 4666 
L 3169 4666 
L 3169 4134 
L 1269 4134 
L 1269 2991 
Q 1406 3038 1543 3061 
Q 1681 3084 1819 3084 
Q 2600 3084 3056 2656 
Q 3513 2228 3513 1497 
Q 3513 744 3044 326 
Q 2575 -91 1722 -91 
Q 1428 -91 1123 -41 
Q 819 9 494 109 
L 494 744 
Q 775 591 1075 516 
Q 1375 441 1709 441 
Q 2250 441 2565 725 
Q 2881 1009 2881 1497 
Q 2881 1984 2565 2268 
Q 2250 2553 1709 2553 
Q 1456 2553 1204 2497 
Q 953 2441 691 2322 
L 691 4666 
z
" transform="scale(0.015625)"/>
       </defs>
       <use xlink:href="#DejaVuSans-35"/>
       <use xlink:href="#DejaVuSans-30" x="63.623047"/>
      </g>
     </g>
    </g>
    <g id="xtick_3">
     <g id="line2d_5">
      <path d="M 144.169041 400.864 
L 144.169041 48.064 
" clip-path="url(#pa4ac2c1b7a)" style="fill: none; stroke: #b0b0b0; stroke-width: 0.8; stroke-linecap: square"/>
     </g>
     <g id="line2d_6"/>
     <g id="text_3">
      <!-- 100 -->
      <g transform="translate(134.625291 411.962437)scale(0.1 -0.1)">
       <defs>
        <path id="DejaVuSans-31" d="M 794 531 
L 1825 531 
L 1825 4091 
L 703 3866 
L 703 4441 
L 1819 4666 
L 2450 4666 
L 2450 531 
L 3481 531 
L 3481 0 
L 794 0 
L 794 531 
z
" transform="scale(0.015625)"/>
       </defs>
       <use xlink:href="#DejaVuSans-31"/>
       <use xlink:href="#DejaVuSans-30" x="63.623047"/>
       <use xlink:href="#DejaVuSans-30" x="127.246094"/>
      </g>
     </g>
    </g>
    <g id="xtick_4">
     <g id="line2d_7">
      <path d="M 189.750436 400.864 
L 189.750436 48.064 
" clip-path="url(#pa4ac2c1b7a)" style="fill: none; stroke: #b0b0b0; stroke-width: 0.8; stroke-linecap: square"/>
     </g>
     <g id="line2d_8"/>
     <g id="text_4">
      <!-- 150 -->
      <g transform="translate(180.206686 411.962437)scale(0.1 -0.1)">
       <use xlink:href="#DejaVuSans-31"/>
       <use xlink:href="#DejaVuSans-35" x="63.623047"/>
       <use xlink:href="#DejaVuSans-30" x="127.246094"/>
      </g>
     </g>
    </g>
    <g id="xtick_5">
     <g id="line2d_9">
      <path d="M 235.331831 400.864 
L 235.331831 48.064 
" clip-path="url(#pa4ac2c1b7a)" style="fill: none; stroke: #b0b0b0; stroke-width: 0.8; stroke-linecap: square"/>
     </g>
     <g id="line2d_10"/>
     <g id="text_5">
      <!-- 200 -->
      <g transform="translate(225.788081 411.962437)scale(0.1 -0.1)">
       <defs>
        <path id="DejaVuSans-32" d="M 1228 531 
L 3431 531 
L 3431 0 
L 469 0 
L 469 531 
Q 828 903 1448 1529 
Q 2069 2156 2228 2338 
Q 2531 2678 2651 2914 
Q 2772 3150 2772 3378 
Q 2772 3750 2511 3984 
Q 2250 4219 1831 4219 
Q 1534 4219 1204 4116 
Q 875 4013 500 3803 
L 500 4441 
Q 881 4594 1212 4672 
Q 1544 4750 1819 4750 
Q 2544 4750 2975 4387 
Q 3406 4025 3406 3419 
Q 3406 3131 3298 2873 
Q 3191 2616 2906 2266 
Q 2828 2175 2409 1742 
Q 1991 1309 1228 531 
z
" transform="scale(0.015625)"/>
       </defs>
       <use xlink:href="#DejaVuSans-32"/>
       <use xlink:href="#DejaVuSans-30" x="63.623047"/>
       <use xlink:href="#DejaVuSans-30" x="127.246094"/>
      </g>
     </g>
    </g>
    <g id="xtick_6">
     <g id="line2d_11">
      <path d="M 280.913227 400.864 
L 280.913227 48.064 
" clip-path="url(#pa4ac2c1b7a)" style="fill: none; stroke: #b0b0b0; stroke-width: 0.8; stroke-linecap: square"/>
     </g>
     <g id="line2d_12"/>
     <g id="text_6">
      <!-- 250 -->
      <g transform="translate(271.369477 411.962437)scale(0.1 -0.1)">
       <use xlink:href="#DejaVuSans-32"/>
       <use xlink:href="#DejaVuSans-35" x="63.623047"/>
       <use xlink:href="#DejaVuSans-30" x="127.246094"/>
      </g>
     </g>
    </g>
    <g id="xtick_7">
     <g id="line2d_13">
      <path d="M 326.494622 400.864 
L 326.494622 48.064 
" clip-path="url(#pa4ac2c1b7a)" style="fill: none; stroke: #b0b0b0; stroke-width: 0.8; stroke-linecap: square"/>
     </g>
     <g id="line2d_14"/>
     <g id="text_7">
      <!-- 300 -->
      <g transform="translate(316.950872 411.962437)scale(0.1 -0.1)">
       <defs>
        <path id="DejaVuSans-33" d="M 2597 2516 
Q 3050 2419 3304 2112 
Q 3559 1806 3559 1356 
Q 3559 666 3084 287 
Q 2609 -91 1734 -91 
Q 1441 -91 1130 -33 
Q 819 25 488 141 
L 488 750 
Q 750 597 1062 519 
Q 1375 441 1716 441 
Q 2309 441 2620 675 
Q 2931 909 2931 1356 
Q 2931 1769 2642 2001 
Q 2353 2234 1838 2234 
L 1294 2234 
L 1294 2753 
L 1863 2753 
Q 2328 2753 2575 2939 
Q 2822 3125 2822 3475 
Q 2822 3834 2567 4026 
Q 2313 4219 1838 4219 
Q 1578 4219 1281 4162 
Q 984 4106 628 3988 
L 628 4550 
Q 988 4650 1302 4700 
Q 1616 4750 1894 4750 
Q 2613 4750 3031 4423 
Q 3450 4097 3450 3541 
Q 3450 3153 3228 2886 
Q 3006 2619 2597 2516 
z
" transform="scale(0.015625)"/>
       </defs>
       <use xlink:href="#DejaVuSans-33"/>
       <use xlink:href="#DejaVuSans-30" x="63.623047"/>
       <use xlink:href="#DejaVuSans-30" x="127.246094"/>
      </g>
     </g>
    </g>
    <g id="xtick_8">
     <g id="line2d_15">
      <path d="M 372.076017 400.864 
L 372.076017 48.064 
" clip-path="url(#pa4ac2c1b7a)" style="fill: none; stroke: #b0b0b0; stroke-width: 0.8; stroke-linecap: square"/>
     </g>
     <g id="line2d_16"/>
     <g id="text_8">
      <!-- 350 -->
      <g transform="translate(362.532267 411.962437)scale(0.1 -0.1)">
       <use xlink:href="#DejaVuSans-33"/>
       <use xlink:href="#DejaVuSans-35" x="63.623047"/>
       <use xlink:href="#DejaVuSans-30" x="127.246094"/>
      </g>
     </g>
    </g>
    <g id="text_9">
     <!-- Время, сек -->
     <g transform="translate(200.921094 425.640562)scale(0.1 -0.1)">
      <defs>
       <path id="DejaVuSans-412" d="M 1259 2228 
L 1259 519 
L 2272 519 
Q 2781 519 3026 730 
Q 3272 941 3272 1375 
Q 3272 1813 3026 2020 
Q 2781 2228 2272 2228 
L 1259 2228 
z
M 1259 4147 
L 1259 2741 
L 2194 2741 
Q 2656 2741 2882 2914 
Q 3109 3088 3109 3444 
Q 3109 3797 2882 3972 
Q 2656 4147 2194 4147 
L 1259 4147 
z
M 628 4666 
L 2241 4666 
Q 2963 4666 3353 4366 
Q 3744 4066 3744 3513 
Q 3744 3084 3544 2831 
Q 3344 2578 2956 2516 
Q 3422 2416 3680 2098 
Q 3938 1781 3938 1306 
Q 3938 681 3513 340 
Q 3088 0 2303 0 
L 628 0 
L 628 4666 
z
" transform="scale(0.015625)"/>
       <path id="DejaVuSans-440" d="M 1159 525 
L 1159 -1331 
L 581 -1331 
L 581 3500 
L 1159 3500 
L 1159 2969 
Q 1341 3281 1617 3432 
Q 1894 3584 2278 3584 
Q 2916 3584 3314 3078 
Q 3713 2572 3713 1747 
Q 3713 922 3314 415 
Q 2916 -91 2278 -91 
Q 1894 -91 1617 61 
Q 1341 213 1159 525 
z
M 3116 1747 
Q 3116 2381 2855 2742 
Q 2594 3103 2138 3103 
Q 1681 3103 1420 2742 
Q 1159 2381 1159 1747 
Q 1159 1113 1420 752 
Q 1681 391 2138 391 
Q 2594 391 2855 752 
Q 3116 1113 3116 1747 
z
" transform="scale(0.015625)"/>
       <path id="DejaVuSans-435" d="M 3597 1894 
L 3597 1613 
L 953 1613 
Q 991 1019 1311 708 
Q 1631 397 2203 397 
Q 2534 397 2845 478 
Q 3156 559 3463 722 
L 3463 178 
Q 3153 47 2828 -22 
Q 2503 -91 2169 -91 
Q 1331 -91 842 396 
Q 353 884 353 1716 
Q 353 2575 817 3079 
Q 1281 3584 2069 3584 
Q 2775 3584 3186 3129 
Q 3597 2675 3597 1894 
z
M 3022 2063 
Q 3016 2534 2758 2815 
Q 2500 3097 2075 3097 
Q 1594 3097 1305 2825 
Q 1016 2553 972 2059 
L 3022 2063 
z
" transform="scale(0.015625)"/>
       <path id="DejaVuSans-43c" d="M 581 3500 
L 1422 3500 
L 2416 1156 
L 3413 3500 
L 4247 3500 
L 4247 0 
L 3669 0 
L 3669 2950 
L 2703 672 
L 2128 672 
L 1159 2950 
L 1159 0 
L 581 0 
L 581 3500 
z
" transform="scale(0.015625)"/>
       <path id="DejaVuSans-44f" d="M 1181 2491 
Q 1181 2231 1381 2084 
Q 1581 1938 1953 1938 
L 2728 1938 
L 2728 3041 
L 1953 3041 
Q 1581 3041 1381 2897 
Q 1181 2753 1181 2491 
z
M 363 0 
L 1431 1534 
Q 1069 1616 828 1830 
Q 588 2044 588 2491 
Q 588 2997 923 3248 
Q 1259 3500 1938 3500 
L 3306 3500 
L 3306 0 
L 2728 0 
L 2728 1478 
L 2013 1478 
L 981 0 
L 363 0 
z
" transform="scale(0.015625)"/>
       <path id="DejaVuSans-2c" d="M 750 794 
L 1409 794 
L 1409 256 
L 897 -744 
L 494 -744 
L 750 256 
L 750 794 
z
" transform="scale(0.015625)"/>
       <path id="DejaVuSans-20" transform="scale(0.015625)"/>
       <path id="DejaVuSans-441" d="M 3122 3366 
L 3122 2828 
Q 2878 2963 2633 3030 
Q 2388 3097 2138 3097 
Q 1578 3097 1268 2742 
Q 959 2388 959 1747 
Q 959 1106 1268 751 
Q 1578 397 2138 397 
Q 2388 397 2633 464 
Q 2878 531 3122 666 
L 3122 134 
Q 2881 22 2623 -34 
Q 2366 -91 2075 -91 
Q 1284 -91 818 406 
Q 353 903 353 1747 
Q 353 2603 823 3093 
Q 1294 3584 2113 3584 
Q 2378 3584 2631 3529 
Q 2884 3475 3122 3366 
z
" transform="scale(0.015625)"/>
       <path id="DejaVuSans-43a" d="M 581 3500 
L 1153 3500 
L 1153 1856 
L 2775 3500 
L 3481 3500 
L 2144 2147 
L 3653 0 
L 3009 0 
L 1769 1766 
L 1153 1141 
L 1153 0 
L 581 0 
L 581 3500 
z
" transform="scale(0.015625)"/>
      </defs>
      <use xlink:href="#DejaVuSans-412"/>
      <use xlink:href="#DejaVuSans-440" x="68.603516"/>
      <use xlink:href="#DejaVuSans-435" x="132.080078"/>
      <use xlink:href="#DejaVuSans-43c" x="193.603516"/>
      <use xlink:href="#DejaVuSans-44f" x="269.042969"/>
      <use xlink:href="#DejaVuSans-2c" x="329.199219"/>
      <use xlink:href="#DejaVuSans-20" x="360.986328"/>
      <use xlink:href="#DejaVuSans-441" x="392.773438"/>
      <use xlink:href="#DejaVuSans-435" x="447.753906"/>
      <use xlink:href="#DejaVuSans-43a" x="509.277344"/>
     </g>
    </g>
   </g>
   <g id="matplotlib.axis_2">
    <g id="ytick_1">
     <g id="line2d_17">
      <path d="M 53.00625 393.267828 
L 405.80625 393.267828 
" clip-path="url(#pa4ac2c1b7a)" style="fill: none; stroke: #b0b0b0; stroke-width: 0.8; stroke-linecap: square"/>
     </g>
     <g id="line2d_18"/>
     <g id="text_10">
      <!-- 0.225 -->
      <g transform="translate(20.878125 397.067047)scale(0.1 -0.1)">
       <defs>
        <path id="DejaVuSans-2e" d="M 684 794 
L 1344 794 
L 1344 0 
L 684 0 
L 684 794 
z
" transform="scale(0.015625)"/>
       </defs>
       <use xlink:href="#DejaVuSans-30"/>
       <use xlink:href="#DejaVuSans-2e" x="63.623047"/>
       <use xlink:href="#DejaVuSans-32" x="95.410156"/>
       <use xlink:href="#DejaVuSans-32" x="159.033203"/>
       <use xlink:href="#DejaVuSans-35" x="222.65625"/>
      </g>
     </g>
    </g>
    <g id="ytick_2">
     <g id="line2d_19">
      <path d="M 53.00625 351.066871 
L 405.80625 351.066871 
" clip-path="url(#pa4ac2c1b7a)" style="fill: none; stroke: #b0b0b0; stroke-width: 0.8; stroke-linecap: square"/>
     </g>
     <g id="line2d_20"/>
     <g id="text_11">
      <!-- 0.250 -->
      <g transform="translate(20.878125 354.86609)scale(0.1 -0.1)">
       <use xlink:href="#DejaVuSans-30"/>
       <use xlink:href="#DejaVuSans-2e" x="63.623047"/>
       <use xlink:href="#DejaVuSans-32" x="95.410156"/>
       <use xlink:href="#DejaVuSans-35" x="159.033203"/>
       <use xlink:href="#DejaVuSans-30" x="222.65625"/>
      </g>
     </g>
    </g>
    <g id="ytick_3">
     <g id="line2d_21">
      <path d="M 53.00625 308.865914 
L 405.80625 308.865914 
" clip-path="url(#pa4ac2c1b7a)" style="fill: none; stroke: #b0b0b0; stroke-width: 0.8; stroke-linecap: square"/>
     </g>
     <g id="line2d_22"/>
     <g id="text_12">
      <!-- 0.275 -->
      <g transform="translate(20.878125 312.665133)scale(0.1 -0.1)">
       <defs>
        <path id="DejaVuSans-37" d="M 525 4666 
L 3525 4666 
L 3525 4397 
L 1831 0 
L 1172 0 
L 2766 4134 
L 525 4134 
L 525 4666 
z
" transform="scale(0.015625)"/>
       </defs>
       <use xlink:href="#DejaVuSans-30"/>
       <use xlink:href="#DejaVuSans-2e" x="63.623047"/>
       <use xlink:href="#DejaVuSans-32" x="95.410156"/>
       <use xlink:href="#DejaVuSans-37" x="159.033203"/>
       <use xlink:href="#DejaVuSans-35" x="222.65625"/>
      </g>
     </g>
    </g>
    <g id="ytick_4">
     <g id="line2d_23">
      <path d="M 53.00625 266.664957 
L 405.80625 266.664957 
" clip-path="url(#pa4ac2c1b7a)" style="fill: none; stroke: #b0b0b0; stroke-width: 0.8; stroke-linecap: square"/>
     </g>
     <g id="line2d_24"/>
     <g id="text_13">
      <!-- 0.300 -->
      <g transform="translate(20.878125 270.464176)scale(0.1 -0.1)">
       <use xlink:href="#DejaVuSans-30"/>
       <use xlink:href="#DejaVuSans-2e" x="63.623047"/>
       <use xlink:href="#DejaVuSans-33" x="95.410156"/>
       <use xlink:href="#DejaVuSans-30" x="159.033203"/>
       <use xlink:href="#DejaVuSans-30" x="222.65625"/>
      </g>
     </g>
    </g>
    <g id="ytick_5">
     <g id="line2d_25">
      <path d="M 53.00625 224.464 
L 405.80625 224.464 
" clip-path="url(#pa4ac2c1b7a)" style="fill: none; stroke: #b0b0b0; stroke-width: 0.8; stroke-linecap: square"/>
     </g>
     <g id="line2d_26"/>
     <g id="text_14">
      <!-- 0.325 -->
      <g transform="translate(20.878125 228.263219)scale(0.1 -0.1)">
       <use xlink:href="#DejaVuSans-30"/>
       <use xlink:href="#DejaVuSans-2e" x="63.623047"/>
       <use xlink:href="#DejaVuSans-33" x="95.410156"/>
       <use xlink:href="#DejaVuSans-32" x="159.033203"/>
       <use xlink:href="#DejaVuSans-35" x="222.65625"/>
      </g>
     </g>
    </g>
    <g id="ytick_6">
     <g id="line2d_27">
      <path d="M 53.00625 182.263043 
L 405.80625 182.263043 
" clip-path="url(#pa4ac2c1b7a)" style="fill: none; stroke: #b0b0b0; stroke-width: 0.8; stroke-linecap: square"/>
     </g>
     <g id="line2d_28"/>
     <g id="text_15">
      <!-- 0.350 -->
      <g transform="translate(20.878125 186.062262)scale(0.1 -0.1)">
       <use xlink:href="#DejaVuSans-30"/>
       <use xlink:href="#DejaVuSans-2e" x="63.623047"/>
       <use xlink:href="#DejaVuSans-33" x="95.410156"/>
       <use xlink:href="#DejaVuSans-35" x="159.033203"/>
       <use xlink:href="#DejaVuSans-30" x="222.65625"/>
      </g>
     </g>
    </g>
    <g id="ytick_7">
     <g id="line2d_29">
      <path d="M 53.00625 140.062086 
L 405.80625 140.062086 
" clip-path="url(#pa4ac2c1b7a)" style="fill: none; stroke: #b0b0b0; stroke-width: 0.8; stroke-linecap: square"/>
     </g>
     <g id="line2d_30"/>
     <g id="text_16">
      <!-- 0.375 -->
      <g transform="translate(20.878125 143.861305)scale(0.1 -0.1)">
       <use xlink:href="#DejaVuSans-30"/>
       <use xlink:href="#DejaVuSans-2e" x="63.623047"/>
       <use xlink:href="#DejaVuSans-33" x="95.410156"/>
       <use xlink:href="#DejaVuSans-37" x="159.033203"/>
       <use xlink:href="#DejaVuSans-35" x="222.65625"/>
      </g>
     </g>
    </g>
    <g id="ytick_8">
     <g id="line2d_31">
      <path d="M 53.00625 97.861129 
L 405.80625 97.861129 
" clip-path="url(#pa4ac2c1b7a)" style="fill: none; stroke: #b0b0b0; stroke-width: 0.8; stroke-linecap: square"/>
     </g>
     <g id="line2d_32"/>
     <g id="text_17">
      <!-- 0.400 -->
      <g transform="translate(20.878125 101.660348)scale(0.1 -0.1)">
       <defs>
        <path id="DejaVuSans-34" d="M 2419 4116 
L 825 1625 
L 2419 1625 
L 2419 4116 
z
M 2253 4666 
L 3047 4666 
L 3047 1625 
L 3713 1625 
L 3713 1100 
L 3047 1100 
L 3047 0 
L 2419 0 
L 2419 1100 
L 313 1100 
L 313 1709 
L 2253 4666 
z
" transform="scale(0.015625)"/>
       </defs>
       <use xlink:href="#DejaVuSans-30"/>
       <use xlink:href="#DejaVuSans-2e" x="63.623047"/>
       <use xlink:href="#DejaVuSans-34" x="95.410156"/>
       <use xlink:href="#DejaVuSans-30" x="159.033203"/>
       <use xlink:href="#DejaVuSans-30" x="222.65625"/>
      </g>
     </g>
    </g>
    <g id="ytick_9">
     <g id="line2d_33">
      <path d="M 53.00625 55.660172 
L 405.80625 55.660172 
" clip-path="url(#pa4ac2c1b7a)" style="fill: none; stroke: #b0b0b0; stroke-width: 0.8; stroke-linecap: square"/>
     </g>
     <g id="line2d_34"/>
     <g id="text_18">
      <!-- 0.425 -->
      <g transform="translate(20.878125 59.459391)scale(0.1 -0.1)">
       <use xlink:href="#DejaVuSans-30"/>
       <use xlink:href="#DejaVuSans-2e" x="63.623047"/>
       <use xlink:href="#DejaVuSans-34" x="95.410156"/>
       <use xlink:href="#DejaVuSans-32" x="159.033203"/>
       <use xlink:href="#DejaVuSans-35" x="222.65625"/>
      </g>
     </g>
    </g>
    <g id="text_19">
     <!-- Задержка, сек -->
     <g transform="translate(14.798437 263.054625)rotate(-90)scale(0.1 -0.1)">
      <defs>
       <path id="DejaVuSans-417" d="M 1828 4750 
Q 2597 4750 3084 4423 
Q 3572 4097 3572 3541 
Q 3572 3153 3350 2886 
Q 3128 2619 2719 2516 
Q 3172 2419 3426 2112 
Q 3681 1806 3681 1356 
Q 3681 638 3126 273 
Q 2572 -91 1828 -91 
Q 1447 -91 1003 12 
Q 559 116 422 203 
L 422 853 
Q 900 575 1164 508 
Q 1428 441 1816 441 
Q 2403 441 2728 666 
Q 3053 891 3053 1356 
Q 3053 1769 2764 2001 
Q 2475 2234 1866 2234 
L 1228 2234 
L 1228 2753 
L 1891 2753 
Q 2450 2753 2697 2939 
Q 2944 3125 2944 3475 
Q 2944 3834 2689 4026 
Q 2434 4219 1816 4219 
Q 1397 4219 1253 4181 
Q 1109 4144 469 3903 
L 469 4519 
Q 822 4644 1190 4697 
Q 1559 4750 1828 4750 
z
" transform="scale(0.015625)"/>
       <path id="DejaVuSans-430" d="M 2194 1759 
Q 1497 1759 1228 1600 
Q 959 1441 959 1056 
Q 959 750 1161 570 
Q 1363 391 1709 391 
Q 2188 391 2477 730 
Q 2766 1069 2766 1631 
L 2766 1759 
L 2194 1759 
z
M 3341 1997 
L 3341 0 
L 2766 0 
L 2766 531 
Q 2569 213 2275 61 
Q 1981 -91 1556 -91 
Q 1019 -91 701 211 
Q 384 513 384 1019 
Q 384 1609 779 1909 
Q 1175 2209 1959 2209 
L 2766 2209 
L 2766 2266 
Q 2766 2663 2505 2880 
Q 2244 3097 1772 3097 
Q 1472 3097 1187 3025 
Q 903 2953 641 2809 
L 641 3341 
Q 956 3463 1253 3523 
Q 1550 3584 1831 3584 
Q 2591 3584 2966 3190 
Q 3341 2797 3341 1997 
z
" transform="scale(0.015625)"/>
       <path id="DejaVuSans-434" d="M 1384 459 
L 3053 459 
L 3053 3041 
L 1844 3041 
L 1844 2603 
Q 1844 1316 1475 628 
L 1384 459 
z
M 550 459 
Q 834 584 959 850 
Q 1266 1509 1266 2838 
L 1266 3500 
L 3631 3500 
L 3631 459 
L 4091 459 
L 4091 -884 
L 3631 -884 
L 3631 0 
L 794 0 
L 794 -884 
L 334 -884 
L 334 459 
L 550 459 
z
" transform="scale(0.015625)"/>
       <path id="DejaVuSans-436" d="M 2597 3500 
L 3169 3500 
L 3169 1856 
L 4697 3500 
L 5366 3500 
L 4109 2153 
L 5547 0 
L 4931 0 
L 3753 1769 
L 3169 1141 
L 3169 0 
L 2597 0 
L 2597 1141 
L 2013 1769 
L 834 0 
L 219 0 
L 1656 2153 
L 400 3500 
L 1069 3500 
L 2597 1856 
L 2597 3500 
z
" transform="scale(0.015625)"/>
      </defs>
      <use xlink:href="#DejaVuSans-417"/>
      <use xlink:href="#DejaVuSans-430" x="64.111328"/>
      <use xlink:href="#DejaVuSans-434" x="125.390625"/>
      <use xlink:href="#DejaVuSans-435" x="194.53125"/>
      <use xlink:href="#DejaVuSans-440" x="256.054688"/>
      <use xlink:href="#DejaVuSans-436" x="319.53125"/>
      <use xlink:href="#DejaVuSans-43a" x="409.619141"/>
      <use xlink:href="#DejaVuSans-430" x="470.019531"/>
      <use xlink:href="#DejaVuSans-2c" x="531.298828"/>
      <use xlink:href="#DejaVuSans-20" x="563.085938"/>
      <use xlink:href="#DejaVuSans-441" x="594.873047"/>
      <use xlink:href="#DejaVuSans-435" x="649.853516"/>
      <use xlink:href="#DejaVuSans-43a" x="711.376953"/>
     </g>
    </g>
   </g>
   <g id="LineCollection_1">
    <path d="M 53.00625 283.54534 
L 53.00625 97.861129 
" clip-path="url(#pa4ac2c1b7a)" style="fill: none; stroke: #1f77b4; stroke-width: 1.5"/>
    <path d="M 59.159738 317.306105 
L 59.159738 131.621895 
" clip-path="url(#pa4ac2c1b7a)" style="fill: none; stroke: #1f77b4; stroke-width: 1.5"/>
    <path d="M 65.313227 300.425722 
L 65.313227 216.023809 
" clip-path="url(#pa4ac2c1b7a)" style="fill: none; stroke: #1f77b4; stroke-width: 1.5"/>
    <path d="M 71.466715 300.425722 
L 71.466715 216.023809 
" clip-path="url(#pa4ac2c1b7a)" style="fill: none; stroke: #1f77b4; stroke-width: 1.5"/>
    <path d="M 77.620203 300.425722 
L 77.620203 199.143426 
" clip-path="url(#pa4ac2c1b7a)" style="fill: none; stroke: #1f77b4; stroke-width: 1.5"/>
    <path d="M 83.773692 266.664957 
L 83.773692 148.502278 
" clip-path="url(#pa4ac2c1b7a)" style="fill: none; stroke: #1f77b4; stroke-width: 1.5"/>
    <path d="M 89.92718 300.425722 
L 89.92718 97.861129 
" clip-path="url(#pa4ac2c1b7a)" style="fill: none; stroke: #1f77b4; stroke-width: 1.5"/>
    <path d="M 96.080669 216.023809 
L 96.080669 97.861129 
" clip-path="url(#pa4ac2c1b7a)" style="fill: none; stroke: #1f77b4; stroke-width: 1.5"/>
    <path d="M 102.234157 351.066871 
L 102.234157 199.143426 
" clip-path="url(#pa4ac2c1b7a)" style="fill: none; stroke: #1f77b4; stroke-width: 1.5"/>
    <path d="M 108.387645 384.827636 
L 108.387645 182.263043 
" clip-path="url(#pa4ac2c1b7a)" style="fill: none; stroke: #1f77b4; stroke-width: 1.5"/>
    <path d="M 114.541134 266.664957 
L 114.541134 148.502278 
" clip-path="url(#pa4ac2c1b7a)" style="fill: none; stroke: #1f77b4; stroke-width: 1.5"/>
    <path d="M 120.694622 334.186488 
L 120.694622 131.621895 
" clip-path="url(#pa4ac2c1b7a)" style="fill: none; stroke: #1f77b4; stroke-width: 1.5"/>
    <path d="M 126.84811 300.425722 
L 126.84811 199.143426 
" clip-path="url(#pa4ac2c1b7a)" style="fill: none; stroke: #1f77b4; stroke-width: 1.5"/>
    <path d="M 133.001599 300.425722 
L 133.001599 199.143426 
" clip-path="url(#pa4ac2c1b7a)" style="fill: none; stroke: #1f77b4; stroke-width: 1.5"/>
    <path d="M 139.155087 367.947254 
L 139.155087 64.100364 
" clip-path="url(#pa4ac2c1b7a)" style="fill: none; stroke: #1f77b4; stroke-width: 1.5"/>
    <path d="M 145.308576 317.306105 
L 145.308576 148.502278 
" clip-path="url(#pa4ac2c1b7a)" style="fill: none; stroke: #1f77b4; stroke-width: 1.5"/>
    <path d="M 151.462064 266.664957 
L 151.462064 97.861129 
" clip-path="url(#pa4ac2c1b7a)" style="fill: none; stroke: #1f77b4; stroke-width: 1.5"/>
    <path d="M 157.615552 266.664957 
L 157.615552 97.861129 
" clip-path="url(#pa4ac2c1b7a)" style="fill: none; stroke: #1f77b4; stroke-width: 1.5"/>
    <path d="M 163.769041 300.425722 
L 163.769041 131.621895 
" clip-path="url(#pa4ac2c1b7a)" style="fill: none; stroke: #1f77b4; stroke-width: 1.5"/>
    <path d="M 169.922529 300.425722 
L 169.922529 148.502278 
" clip-path="url(#pa4ac2c1b7a)" style="fill: none; stroke: #1f77b4; stroke-width: 1.5"/>
    <path d="M 176.076017 300.425722 
L 176.076017 216.023809 
" clip-path="url(#pa4ac2c1b7a)" style="fill: none; stroke: #1f77b4; stroke-width: 1.5"/>
    <path d="M 182.229506 266.664957 
L 182.229506 148.502278 
" clip-path="url(#pa4ac2c1b7a)" style="fill: none; stroke: #1f77b4; stroke-width: 1.5"/>
    <path d="M 188.382994 266.664957 
L 188.382994 97.861129 
" clip-path="url(#pa4ac2c1b7a)" style="fill: none; stroke: #1f77b4; stroke-width: 1.5"/>
    <path d="M 194.536483 300.425722 
L 194.536483 97.861129 
" clip-path="url(#pa4ac2c1b7a)" style="fill: none; stroke: #1f77b4; stroke-width: 1.5"/>
    <path d="M 200.689971 300.425722 
L 200.689971 97.861129 
" clip-path="url(#pa4ac2c1b7a)" style="fill: none; stroke: #1f77b4; stroke-width: 1.5"/>
    <path d="M 206.843459 266.664957 
L 206.843459 97.861129 
" clip-path="url(#pa4ac2c1b7a)" style="fill: none; stroke: #1f77b4; stroke-width: 1.5"/>
    <path d="M 212.996948 384.827636 
L 212.996948 148.502278 
" clip-path="url(#pa4ac2c1b7a)" style="fill: none; stroke: #1f77b4; stroke-width: 1.5"/>
    <path d="M 219.150436 266.664957 
L 219.150436 97.861129 
" clip-path="url(#pa4ac2c1b7a)" style="fill: none; stroke: #1f77b4; stroke-width: 1.5"/>
    <path d="M 225.303924 266.664957 
L 225.303924 165.38266 
" clip-path="url(#pa4ac2c1b7a)" style="fill: none; stroke: #1f77b4; stroke-width: 1.5"/>
    <path d="M 231.457413 266.664957 
L 231.457413 199.143426 
" clip-path="url(#pa4ac2c1b7a)" style="fill: none; stroke: #1f77b4; stroke-width: 1.5"/>
    <path d="M 237.610901 266.664957 
L 237.610901 148.502278 
" clip-path="url(#pa4ac2c1b7a)" style="fill: none; stroke: #1f77b4; stroke-width: 1.5"/>
    <path d="M 243.76439 334.186488 
L 243.76439 148.502278 
" clip-path="url(#pa4ac2c1b7a)" style="fill: none; stroke: #1f77b4; stroke-width: 1.5"/>
    <path d="M 249.917878 300.425722 
L 249.917878 216.023809 
" clip-path="url(#pa4ac2c1b7a)" style="fill: none; stroke: #1f77b4; stroke-width: 1.5"/>
    <path d="M 256.071366 300.425722 
L 256.071366 148.502278 
" clip-path="url(#pa4ac2c1b7a)" style="fill: none; stroke: #1f77b4; stroke-width: 1.5"/>
    <path d="M 262.224855 367.947254 
L 262.224855 97.861129 
" clip-path="url(#pa4ac2c1b7a)" style="fill: none; stroke: #1f77b4; stroke-width: 1.5"/>
    <path d="M 268.378343 283.54534 
L 268.378343 148.502278 
" clip-path="url(#pa4ac2c1b7a)" style="fill: none; stroke: #1f77b4; stroke-width: 1.5"/>
    <path d="M 274.531831 266.664957 
L 274.531831 97.861129 
" clip-path="url(#pa4ac2c1b7a)" style="fill: none; stroke: #1f77b4; stroke-width: 1.5"/>
    <path d="M 280.68532 283.54534 
L 280.68532 97.861129 
" clip-path="url(#pa4ac2c1b7a)" style="fill: none; stroke: #1f77b4; stroke-width: 1.5"/>
    <path d="M 286.838808 266.664957 
L 286.838808 97.861129 
" clip-path="url(#pa4ac2c1b7a)" style="fill: none; stroke: #1f77b4; stroke-width: 1.5"/>
    <path d="M 292.992297 317.306105 
L 292.992297 165.38266 
" clip-path="url(#pa4ac2c1b7a)" style="fill: none; stroke: #1f77b4; stroke-width: 1.5"/>
    <path d="M 299.145785 384.827636 
L 299.145785 148.502278 
" clip-path="url(#pa4ac2c1b7a)" style="fill: none; stroke: #1f77b4; stroke-width: 1.5"/>
    <path d="M 305.299273 300.425722 
L 305.299273 182.263043 
" clip-path="url(#pa4ac2c1b7a)" style="fill: none; stroke: #1f77b4; stroke-width: 1.5"/>
    <path d="M 311.452762 300.425722 
L 311.452762 199.143426 
" clip-path="url(#pa4ac2c1b7a)" style="fill: none; stroke: #1f77b4; stroke-width: 1.5"/>
    <path d="M 317.60625 351.066871 
L 317.60625 199.143426 
" clip-path="url(#pa4ac2c1b7a)" style="fill: none; stroke: #1f77b4; stroke-width: 1.5"/>
    <path d="M 323.759738 300.425722 
L 323.759738 165.38266 
" clip-path="url(#pa4ac2c1b7a)" style="fill: none; stroke: #1f77b4; stroke-width: 1.5"/>
    <path d="M 329.913227 266.664957 
L 329.913227 131.621895 
" clip-path="url(#pa4ac2c1b7a)" style="fill: none; stroke: #1f77b4; stroke-width: 1.5"/>
    <path d="M 336.066715 266.664957 
L 336.066715 165.38266 
" clip-path="url(#pa4ac2c1b7a)" style="fill: none; stroke: #1f77b4; stroke-width: 1.5"/>
    <path d="M 342.220203 283.54534 
L 342.220203 148.502278 
" clip-path="url(#pa4ac2c1b7a)" style="fill: none; stroke: #1f77b4; stroke-width: 1.5"/>
    <path d="M 348.373692 266.664957 
L 348.373692 165.38266 
" clip-path="url(#pa4ac2c1b7a)" style="fill: none; stroke: #1f77b4; stroke-width: 1.5"/>
    <path d="M 354.52718 283.54534 
L 354.52718 131.621895 
" clip-path="url(#pa4ac2c1b7a)" style="fill: none; stroke: #1f77b4; stroke-width: 1.5"/>
    <path d="M 360.680669 266.664957 
L 360.680669 148.502278 
" clip-path="url(#pa4ac2c1b7a)" style="fill: none; stroke: #1f77b4; stroke-width: 1.5"/>
    <path d="M 366.834157 300.425722 
L 366.834157 131.621895 
" clip-path="url(#pa4ac2c1b7a)" style="fill: none; stroke: #1f77b4; stroke-width: 1.5"/>
    <path d="M 372.987645 216.023809 
L 372.987645 97.861129 
" clip-path="url(#pa4ac2c1b7a)" style="fill: none; stroke: #1f77b4; stroke-width: 1.5"/>
    <path d="M 379.141134 300.425722 
L 379.141134 97.861129 
" clip-path="url(#pa4ac2c1b7a)" style="fill: none; stroke: #1f77b4; stroke-width: 1.5"/>
    <path d="M 385.294622 266.664957 
L 385.294622 199.143426 
" clip-path="url(#pa4ac2c1b7a)" style="fill: none; stroke: #1f77b4; stroke-width: 1.5"/>
    <path d="M 391.44811 384.827636 
L 391.44811 165.38266 
" clip-path="url(#pa4ac2c1b7a)" style="fill: none; stroke: #1f77b4; stroke-width: 1.5"/>
    <path d="M 397.601599 266.664957 
L 397.601599 165.38266 
" clip-path="url(#pa4ac2c1b7a)" style="fill: none; stroke: #1f77b4; stroke-width: 1.5"/>
    <path d="M 403.755087 317.306105 
L 403.755087 131.621895 
" clip-path="url(#pa4ac2c1b7a)" style="fill: none; stroke: #1f77b4; stroke-width: 1.5"/>
   </g>
   <g id="line2d_35">
    <path d="M 53.00625 190.703234 
L 59.159738 224.464 
L 65.313227 258.224766 
L 71.466715 258.224766 
L 77.620203 249.784574 
L 83.773692 207.583617 
L 89.92718 199.143426 
L 96.080669 156.942469 
L 102.234157 275.105148 
L 108.387645 283.54534 
L 114.541134 207.583617 
L 120.694622 232.904191 
L 126.84811 249.784574 
L 133.001599 249.784574 
L 139.155087 216.023809 
L 145.308576 232.904191 
L 151.462064 182.263043 
L 157.615552 182.263043 
L 163.769041 216.023809 
L 169.922529 224.464 
L 176.076017 258.224766 
L 182.229506 207.583617 
L 188.382994 182.263043 
L 194.536483 199.143426 
L 200.689971 199.143426 
L 206.843459 182.263043 
L 212.996948 266.664957 
L 219.150436 182.263043 
L 225.303924 216.023809 
L 231.457413 232.904191 
L 237.610901 207.583617 
L 243.76439 241.344383 
L 249.917878 258.224766 
L 256.071366 224.464 
L 262.224855 232.904191 
L 268.378343 216.023809 
L 274.531831 182.263043 
L 280.68532 190.703234 
L 286.838808 182.263043 
L 292.992297 241.344383 
L 299.145785 266.664957 
L 305.299273 241.344383 
L 311.452762 249.784574 
L 317.60625 275.105148 
L 323.759738 232.904191 
L 329.913227 199.143426 
L 336.066715 216.023809 
L 342.220203 216.023809 
L 348.373692 216.023809 
L 354.52718 207.583617 
L 360.680669 207.583617 
L 366.834157 216.023809 
L 372.987645 156.942469 
L 379.141134 199.143426 
L 385.294622 232.904191 
L 391.44811 275.105148 
L 397.601599 216.023809 
L 403.755087 224.464 
" clip-path="url(#pa4ac2c1b7a)" style="fill: none; stroke-dasharray: 5.55,2.4; stroke-dashoffset: 0; stroke: #1f77b4; stroke-width: 1.5"/>
    <defs>
     <path id="mb7923df2d2" d="M 3 0 
L -3 -0 
" style="stroke: #1f77b4"/>
    </defs>
    <g clip-path="url(#pa4ac2c1b7a)">
     <use xlink:href="#mb7923df2d2" x="53.00625" y="190.703234" style="fill: #1f77b4; stroke: #1f77b4"/>
     <use xlink:href="#mb7923df2d2" x="59.159738" y="224.464" style="fill: #1f77b4; stroke: #1f77b4"/>
     <use xlink:href="#mb7923df2d2" x="65.313227" y="258.224766" style="fill: #1f77b4; stroke: #1f77b4"/>
     <use xlink:href="#mb7923df2d2" x="71.466715" y="258.224766" style="fill: #1f77b4; stroke: #1f77b4"/>
     <use xlink:href="#mb7923df2d2" x="77.620203" y="249.784574" style="fill: #1f77b4; stroke: #1f77b4"/>
     <use xlink:href="#mb7923df2d2" x="83.773692" y="207.583617" style="fill: #1f77b4; stroke: #1f77b4"/>
     <use xlink:href="#mb7923df2d2" x="89.92718" y="199.143426" style="fill: #1f77b4; stroke: #1f77b4"/>
     <use xlink:href="#mb7923df2d2" x="96.080669" y="156.942469" style="fill: #1f77b4; stroke: #1f77b4"/>
     <use xlink:href="#mb7923df2d2" x="102.234157" y="275.105148" style="fill: #1f77b4; stroke: #1f77b4"/>
     <use xlink:href="#mb7923df2d2" x="108.387645" y="283.54534" style="fill: #1f77b4; stroke: #1f77b4"/>
     <use xlink:href="#mb7923df2d2" x="114.541134" y="207.583617" style="fill: #1f77b4; stroke: #1f77b4"/>
     <use xlink:href="#mb7923df2d2" x="120.694622" y="232.904191" style="fill: #1f77b4; stroke: #1f77b4"/>
     <use xlink:href="#mb7923df2d2" x="126.84811" y="249.784574" style="fill: #1f77b4; stroke: #1f77b4"/>
     <use xlink:href="#mb7923df2d2" x="133.001599" y="249.784574" style="fill: #1f77b4; stroke: #1f77b4"/>
     <use xlink:href="#mb7923df2d2" x="139.155087" y="216.023809" style="fill: #1f77b4; stroke: #1f77b4"/>
     <use xlink:href="#mb7923df2d2" x="145.308576" y="232.904191" style="fill: #1f77b4; stroke: #1f77b4"/>
     <use xlink:href="#mb7923df2d2" x="151.462064" y="182.263043" style="fill: #1f77b4; stroke: #1f77b4"/>
     <use xlink:href="#mb7923df2d2" x="157.615552" y="182.263043" style="fill: #1f77b4; stroke: #1f77b4"/>
     <use xlink:href="#mb7923df2d2" x="163.769041" y="216.023809" style="fill: #1f77b4; stroke: #1f77b4"/>
     <use xlink:href="#mb7923df2d2" x="169.922529" y="224.464" style="fill: #1f77b4; stroke: #1f77b4"/>
     <use xlink:href="#mb7923df2d2" x="176.076017" y="258.224766" style="fill: #1f77b4; stroke: #1f77b4"/>
     <use xlink:href="#mb7923df2d2" x="182.229506" y="207.583617" style="fill: #1f77b4; stroke: #1f77b4"/>
     <use xlink:href="#mb7923df2d2" x="188.382994" y="182.263043" style="fill: #1f77b4; stroke: #1f77b4"/>
     <use xlink:href="#mb7923df2d2" x="194.536483" y="199.143426" style="fill: #1f77b4; stroke: #1f77b4"/>
     <use xlink:href="#mb7923df2d2" x="200.689971" y="199.143426" style="fill: #1f77b4; stroke: #1f77b4"/>
     <use xlink:href="#mb7923df2d2" x="206.843459" y="182.263043" style="fill: #1f77b4; stroke: #1f77b4"/>
     <use xlink:href="#mb7923df2d2" x="212.996948" y="266.664957" style="fill: #1f77b4; stroke: #1f77b4"/>
     <use xlink:href="#mb7923df2d2" x="219.150436" y="182.263043" style="fill: #1f77b4; stroke: #1f77b4"/>
     <use xlink:href="#mb7923df2d2" x="225.303924" y="216.023809" style="fill: #1f77b4; stroke: #1f77b4"/>
     <use xlink:href="#mb7923df2d2" x="231.457413" y="232.904191" style="fill: #1f77b4; stroke: #1f77b4"/>
     <use xlink:href="#mb7923df2d2" x="237.610901" y="207.583617" style="fill: #1f77b4; stroke: #1f77b4"/>
     <use xlink:href="#mb7923df2d2" x="243.76439" y="241.344383" style="fill: #1f77b4; stroke: #1f77b4"/>
     <use xlink:href="#mb7923df2d2" x="249.917878" y="258.224766" style="fill: #1f77b4; stroke: #1f77b4"/>
     <use xlink:href="#mb7923df2d2" x="256.071366" y="224.464" style="fill: #1f77b4; stroke: #1f77b4"/>
     <use xlink:href="#mb7923df2d2" x="262.224855" y="232.904191" style="fill: #1f77b4; stroke: #1f77b4"/>
     <use xlink:href="#mb7923df2d2" x="268.378343" y="216.023809" style="fill: #1f77b4; stroke: #1f77b4"/>
     <use xlink:href="#mb7923df2d2" x="274.531831" y="182.263043" style="fill: #1f77b4; stroke: #1f77b4"/>
     <use xlink:href="#mb7923df2d2" x="280.68532" y="190.703234" style="fill: #1f77b4; stroke: #1f77b4"/>
     <use xlink:href="#mb7923df2d2" x="286.838808" y="182.263043" style="fill: #1f77b4; stroke: #1f77b4"/>
     <use xlink:href="#mb7923df2d2" x="292.992297" y="241.344383" style="fill: #1f77b4; stroke: #1f77b4"/>
     <use xlink:href="#mb7923df2d2" x="299.145785" y="266.664957" style="fill: #1f77b4; stroke: #1f77b4"/>
     <use xlink:href="#mb7923df2d2" x="305.299273" y="241.344383" style="fill: #1f77b4; stroke: #1f77b4"/>
     <use xlink:href="#mb7923df2d2" x="311.452762" y="249.784574" style="fill: #1f77b4; stroke: #1f77b4"/>
     <use xlink:href="#mb7923df2d2" x="317.60625" y="275.105148" style="fill: #1f77b4; stroke: #1f77b4"/>
     <use xlink:href="#mb7923df2d2" x="323.759738" y="232.904191" style="fill: #1f77b4; stroke: #1f77b4"/>
     <use xlink:href="#mb7923df2d2" x="329.913227" y="199.143426" style="fill: #1f77b4; stroke: #1f77b4"/>
     <use xlink:href="#mb7923df2d2" x="336.066715" y="216.023809" style="fill: #1f77b4; stroke: #1f77b4"/>
     <use xlink:href="#mb7923df2d2" x="342.220203" y="216.023809" style="fill: #1f77b4; stroke: #1f77b4"/>
     <use xlink:href="#mb7923df2d2" x="348.373692" y="216.023809" style="fill: #1f77b4; stroke: #1f77b4"/>
     <use xlink:href="#mb7923df2d2" x="354.52718" y="207.583617" style="fill: #1f77b4; stroke: #1f77b4"/>
     <use xlink:href="#mb7923df2d2" x="360.680669" y="207.583617" style="fill: #1f77b4; stroke: #1f77b4"/>
     <use xlink:href="#mb7923df2d2" x="366.834157" y="216.023809" style="fill: #1f77b4; stroke: #1f77b4"/>
     <use xlink:href="#mb7923df2d2" x="372.987645" y="156.942469" style="fill: #1f77b4; stroke: #1f77b4"/>
     <use xlink:href="#mb7923df2d2" x="379.141134" y="199.143426" style="fill: #1f77b4; stroke: #1f77b4"/>
     <use xlink:href="#mb7923df2d2" x="385.294622" y="232.904191" style="fill: #1f77b4; stroke: #1f77b4"/>
     <use xlink:href="#mb7923df2d2" x="391.44811" y="275.105148" style="fill: #1f77b4; stroke: #1f77b4"/>
     <use xlink:href="#mb7923df2d2" x="397.601599" y="216.023809" style="fill: #1f77b4; stroke: #1f77b4"/>
     <use xlink:href="#mb7923df2d2" x="403.755087" y="224.464" style="fill: #1f77b4; stroke: #1f77b4"/>
    </g>
   </g>
   <g id="patch_3">
    <path d="M 53.00625 400.864 
L 53.00625 48.064 
" style="fill: none; stroke: #000000; stroke-width: 0.8; stroke-linejoin: miter; stroke-linecap: square"/>
   </g>
   <g id="patch_4">
    <path d="M 405.80625 400.864 
L 405.80625 48.064 
" style="fill: none; stroke: #000000; stroke-width: 0.8; stroke-linejoin: miter; stroke-linecap: square"/>
   </g>
   <g id="patch_5">
    <path d="M 53.00625 400.864 
L 405.80625 400.864 
" style="fill: none; stroke: #000000; stroke-width: 0.8; stroke-linejoin: miter; stroke-linecap: square"/>
   </g>
   <g id="patch_6">
    <path d="M 53.00625 48.064 
L 405.80625 48.064 
" style="fill: none; stroke: #000000; stroke-width: 0.8; stroke-linejoin: miter; stroke-linecap: square"/>
   </g>
   <g id="legend_1">
    <g id="patch_7">
     <path d="M 154.182812 24.878125 
L 304.629687 24.878125 
Q 306.629687 24.878125 306.629687 22.878125 
L 306.629687 9.2 
Q 306.629687 7.2 304.629687 7.2 
L 154.182812 7.2 
Q 152.182812 7.2 152.182812 9.2 
L 152.182812 22.878125 
Q 152.182812 24.878125 154.182812 24.878125 
z
" style="fill: #ffffff; opacity: 0.8; stroke: #cccccc; stroke-linejoin: miter"/>
    </g>
    <g id="LineCollection_2">
     <path d="M 166.182812 20.298437 
L 166.182812 10.298437 
" style="fill: none; stroke: #1f77b4; stroke-width: 1.5"/>
    </g>
    <g id="line2d_36">
     <path d="M 156.182812 15.298437 
L 176.182812 15.298437 
" style="fill: none; stroke-dasharray: 5.55,2.4; stroke-dashoffset: 0; stroke: #1f77b4; stroke-width: 1.5"/>
    </g>
    <g id="line2d_37">
     <g>
      <use xlink:href="#mb7923df2d2" x="166.182812" y="15.298437" style="fill: #1f77b4; stroke: #1f77b4"/>
     </g>
    </g>
    <g id="text_20">
     <!-- Полученная задержка -->
     <g transform="translate(184.182812 18.798437)scale(0.1 -0.1)">
      <defs>
       <path id="DejaVuSans-41f" d="M 4184 4666 
L 4184 0 
L 3553 0 
L 3553 4134 
L 1259 4134 
L 1259 0 
L 628 0 
L 628 4666 
L 4184 4666 
z
" transform="scale(0.015625)"/>
       <path id="DejaVuSans-43e" d="M 1959 3097 
Q 1497 3097 1228 2736 
Q 959 2375 959 1747 
Q 959 1119 1226 758 
Q 1494 397 1959 397 
Q 2419 397 2687 759 
Q 2956 1122 2956 1747 
Q 2956 2369 2687 2733 
Q 2419 3097 1959 3097 
z
M 1959 3584 
Q 2709 3584 3137 3096 
Q 3566 2609 3566 1747 
Q 3566 888 3137 398 
Q 2709 -91 1959 -91 
Q 1206 -91 779 398 
Q 353 888 353 1747 
Q 353 2609 779 3096 
Q 1206 3584 1959 3584 
z
" transform="scale(0.015625)"/>
       <path id="DejaVuSans-43b" d="M 238 0 
L 238 478 
Q 806 566 981 959 
Q 1194 1513 1194 2928 
L 1194 3500 
L 3559 3500 
L 3559 0 
L 2984 0 
L 2984 3041 
L 1769 3041 
L 1769 2694 
Q 1769 1344 1494 738 
Q 1200 91 238 0 
z
" transform="scale(0.015625)"/>
       <path id="DejaVuSans-443" d="M 2059 -325 
Q 1816 -950 1584 -1140 
Q 1353 -1331 966 -1331 
L 506 -1331 
L 506 -850 
L 844 -850 
Q 1081 -850 1212 -737 
Q 1344 -625 1503 -206 
L 1606 56 
L 191 3500 
L 800 3500 
L 1894 763 
L 2988 3500 
L 3597 3500 
L 2059 -325 
z
" transform="scale(0.015625)"/>
       <path id="DejaVuSans-447" d="M 2625 0 
L 2625 1472 
L 1553 1472 
Q 1075 1472 756 1769 
Q 469 2038 469 2613 
L 469 3500 
L 1044 3500 
L 1044 2666 
Q 1044 2300 1206 2116 
Q 1372 1931 1697 1931 
L 2625 1931 
L 2625 3500 
L 3200 3500 
L 3200 0 
L 2625 0 
z
" transform="scale(0.015625)"/>
       <path id="DejaVuSans-43d" d="M 581 3500 
L 1159 3500 
L 1159 2072 
L 3025 2072 
L 3025 3500 
L 3603 3500 
L 3603 0 
L 3025 0 
L 3025 1613 
L 1159 1613 
L 1159 0 
L 581 0 
L 581 3500 
z
" transform="scale(0.015625)"/>
       <path id="DejaVuSans-437" d="M 2206 1888 
Q 2594 1813 2809 1584 
Q 3025 1356 3025 1019 
Q 3025 478 2622 193 
Q 2219 -91 1475 -91 
Q 1225 -91 961 -47 
Q 697 -3 416 84 
L 416 619 
Q 638 503 903 445 
Q 1169 388 1459 388 
Q 1931 388 2195 563 
Q 2459 738 2459 1019 
Q 2459 1294 2225 1461 
Q 1991 1628 1563 1628 
L 1100 1628 
L 1100 2103 
L 1584 2103 
Q 1947 2103 2158 2242 
Q 2369 2381 2369 2600 
Q 2369 2800 2151 2944 
Q 1934 3088 1563 3088 
Q 1341 3088 1089 3047 
Q 838 3006 534 2916 
L 534 3438 
Q 841 3513 1106 3550 
Q 1372 3588 1609 3588 
Q 2222 3588 2576 3342 
Q 2931 3097 2931 2656 
Q 2931 2366 2743 2164 
Q 2556 1963 2206 1888 
z
" transform="scale(0.015625)"/>
      </defs>
      <use xlink:href="#DejaVuSans-41f"/>
      <use xlink:href="#DejaVuSans-43e" x="75.195312"/>
      <use xlink:href="#DejaVuSans-43b" x="136.376953"/>
      <use xlink:href="#DejaVuSans-443" x="200.292969"/>
      <use xlink:href="#DejaVuSans-447" x="259.472656"/>
      <use xlink:href="#DejaVuSans-435" x="318.554688"/>
      <use xlink:href="#DejaVuSans-43d" x="380.078125"/>
      <use xlink:href="#DejaVuSans-43d" x="445.458984"/>
      <use xlink:href="#DejaVuSans-430" x="510.839844"/>
      <use xlink:href="#DejaVuSans-44f" x="572.119141"/>
      <use xlink:href="#DejaVuSans-20" x="632.275391"/>
      <use xlink:href="#DejaVuSans-437" x="664.0625"/>
      <use xlink:href="#DejaVuSans-430" x="717.236328"/>
      <use xlink:href="#DejaVuSans-434" x="778.515625"/>
      <use xlink:href="#DejaVuSans-435" x="847.65625"/>
      <use xlink:href="#DejaVuSans-440" x="909.179688"/>
      <use xlink:href="#DejaVuSans-436" x="972.65625"/>
      <use xlink:href="#DejaVuSans-43a" x="1062.744141"/>
      <use xlink:href="#DejaVuSans-430" x="1123.144531"/>
     </g>
    </g>
   </g>
  </g>
 </g>
 <defs>
  <clipPath id="pa4ac2c1b7a">
   <rect x="53.00625" y="48.064" width="352.8" height="352.8"/>
  </clipPath>
 </defs>
</svg>
